<svg id="Layer_1" data-name="Layer 1" xmlns="http://www.w3.org/2000/svg" viewBox="0 0 206.58 300"><defs><style>.cls-1{fill:#f9ad98;}.cls-2{fill:#434343;}.cls-3{fill:#1e763b;}.cls-4{fill:#f99e1c;}.cls-5{fill:#fdb714;}.cls-6{fill:#089346;}.cls-7{fill:#fff;}.cls-8{fill:#22763b;}.cls-9{fill:#fbc4b3;}.cls-10{fill:#dca864;}.cls-11{fill:#e8b779;}.cls-12{fill:#ffe0c0;}.cls-13{fill:#1a572b;}.cls-14{fill:#542828;}.cls-15{fill:#7a3e3e;}</style></defs><path class="cls-1" d="M51.19,27.81a59.94,59.94,0,0,0-7.91-1s.52-.58,1.11-3.4.08-4.76-1.11-2.54a16.36,16.36,0,0,1-8.66,8.41C28.78,32,11.44,21.92,11.44,21.92l-1,1.5c-1.57,12.64,8.16,11.77,8.16,11.77s9.05,2.4,15,2.15a89.24,89.24,0,0,0,16.16-1.83C58.43,33.38,55,28.6,51.19,27.81Z" transform="translate(37.62 86.62)"/><path class="cls-2" d="M98.58,145.19s-2.93,3.18-6.84,7c-3.62,3.53-4.74,4.55-8.1,7.82-2,1.92-.34,3.68,3.4,3.54a67.28,67.28,0,0,0,14.89-3.23,75.83,75.83,0,0,0,11.14-5.81,7.38,7.38,0,0,0,3.31-4.18v-5.89Z" transform="translate(37.62 86.62)"/><path class="cls-2" d="M152.06,140a48.51,48.51,0,0,1-5.78,6.55,63.79,63.79,0,0,0-7.89,9.13c-.73,1-1.16,3.71,2.58,3.57,3.29-.13,8.29-1.53,12.46-3,4.76-1.69,8.77-6.49,11.54-8.24s4-5.62,4-5.62l-1.92-5.8Z" transform="translate(37.62 86.62)"/><path class="cls-3" d="M150.57,44.49C152,22.9,140.05,11.55,140.05,11.55c.95-7.28-32.8,2.9-32.8,2.9S100,53.57,97,74.17c-3.48,23.41-1.37,71.09-1.37,71.09s.43,5.09,9.15,5.06c6.7,0,11.63-5.89,11.63-5.89l.69-54.26,7.76-38.48s7.46,31.27,9.82,42.5c2.52,11.93,12.17,47.26,12.17,47.26s6.24,7.17,14,3.3,6.22-8.21,6.22-8.21-1.52-25-11.48-47.48C154.72,72,149.94,54.41,150.57,44.49Z" transform="translate(37.62 86.62)"/><path class="cls-4" d="M111.86-42.24s-4.82-.24-9.8,9.13-9.75,19.32-9.75,19.32,7.25,1,15.14,8.31C118.25-15.24,120-37.68,111.86-42.24Z" transform="translate(37.62 86.62)"/><path class="cls-5" d="M111.86-42.24a76.88,76.88,0,0,0-5.2,14.76c-2.5,9.55-1.6,54-1.6,54s10.29,7.27,27.52,5.85a23.39,23.39,0,0,0,15.47-7.19s6.12-43.49,5.29-49.72-13.87-20.87-13.87-20.87S122.24-46.32,111.86-42.24Z" transform="translate(37.62 86.62)"/><path class="cls-1" d="M123.66-48.31l-2,11.66S127.59-30,133.41-35s6.64-7.28,6.64-7.28l-2.86-15.9Z" transform="translate(37.62 86.62)"/><path class="cls-3" d="M126.21-15.28s7.5-11.29,13.44-14.46,9.14-3.76,9.14-3.76-2.16-4.46-3.61-5c-2.51.38-4.14,1.07-9.49,3.84s-11.2,9.5-13.53,13.62C117.46-12.72,122.76-10.48,126.21-15.28Z" transform="translate(37.62 86.62)"/><path class="cls-3" d="M114.16-43.25S109.27-31.59,108.68-26s.53,7.33,2.79,7.52,2.37-3.8,3-8.26c.63-4.21,4.75-18.06,4.75-18.06Z" transform="translate(37.62 86.62)"/><path class="cls-6" d="M148.89,19s-5.48,4.32-10.9,3.73c-4.76-.52-11.6-5.15-11.24-20.19s1.76-22,1.76-22l-18.18-8S105.39-16,104.42,6.43,103,36.57,103,36.57s19.4,1.19,30.88,0S150.19,34,150.19,34Z" transform="translate(37.62 86.62)"/><path class="cls-7" d="M112.34-23.29c0,.92-.52,1.67-1.16,1.67S110-22.37,110-23.29s.52-1.67,1.15-1.67S112.34-24.22,112.34-23.29Z" transform="translate(37.62 86.62)"/><path class="cls-7" d="M123.23-18.21c-.54.75-.56,1.66,0,2s1.37.06,1.91-.69.55-1.66,0-2S123.76-19,123.23-18.21Z" transform="translate(37.62 86.62)"/><path class="cls-8" d="M108.77-16c-.74,3.76-.37,15.6,6.34,17.38,6.08,1.61,7.65-5.55,9-11.1A60.85,60.85,0,0,1,108.77-16Z" transform="translate(37.62 86.62)"/><path class="cls-9" d="M131.86-75.65c-5-3.78-16.72-5-21,7.16-4.5,12.74,7,28.65,13.18,25.95,3.44-1.52,10.67-6.9,12.71-13.6C139-63.69,135.72-72.71,131.86-75.65Z" transform="translate(37.62 86.62)"/><polygon class="cls-10" points="122.03 149.67 122.03 103.45 159.28 84.88 159.28 128.48 122.03 149.67"/><polygon class="cls-11" points="122.03 149.67 122.03 103.45 84.79 84.88 84.79 128.48 122.03 149.67"/><polygon class="cls-10" points="122.05 150.06 122.03 103.45 159.28 81.92 159.28 128.48 122.05 150.06"/><polygon class="cls-11" points="122.05 150.06 122.03 103.45 84.79 81.92 84.79 128.48 122.05 150.06"/><polygon class="cls-12" points="84.79 81.92 122.03 103.45 159.28 81.92 122.05 60.4 84.79 81.92"/><polygon class="cls-13" points="145.43 103.48 137.13 108.3 137.13 94.7 145.43 89.88 145.43 103.48"/><polygon class="cls-6" points="145.43 89.88 108.24 68.37 99.92 73.18 137.13 94.72 145.43 89.88"/><polygon class="cls-13" points="126.97 143.39 126.97 141 139.47 133.75 139.47 136.18 126.97 143.39"/><polygon class="cls-13" points="126.97 139.11 126.97 136.71 139.47 129.46 139.47 131.89 126.97 139.11"/><polygon class="cls-13" points="150.7 121.66 150.7 129.97 156.68 126.51 156.68 118.19 150.7 121.66"/><polygon class="cls-13" points="92.98 120.78 92.98 129.45 87 125.99 87 117.33 92.98 120.78"/><polygon class="cls-13" points="101.14 125.52 101.14 134.18 95.16 130.73 95.16 122.06 101.14 125.52"/><polygon class="cls-7" points="99.29 95.46 99.29 107.91 87 100.81 87 88.35 99.29 95.46"/><polygon class="cls-6" points="97.79 98.01 97.79 95.98 88.12 90.41 88.12 92.4 97.79 98.01"/><path class="cls-9" d="M130.85-2s-7,14.83-10,19-14.79,13.58-17.22,15-8,3.12-11,2.84S87.82,35.88,90.63,37a24,24,0,0,0,5.54,1.31S91,42.05,89,45.28c-1.63,2.6-3,7.38,3.3,6,5.1-1.12,12.17-8.93,14-10.67,3.51-3.28,17.42-10.8,20.56-13,4.45-3.15,17-21.7,17-21.7S140.05-4,130.85-2Z" transform="translate(37.62 86.62)"/><path class="cls-4" d="M151.12-29.95c-3.66-2.95-11.48,7-15.64,13.26S128-1.14,128-1.14s5,3.63,9.48,6.46a74.34,74.34,0,0,0,7.73,4.16S163.66-19.85,151.12-29.95Z" transform="translate(37.62 86.62)"/><path class="cls-14" d="M109.83-64.45c2,2.09,5,4.41,11.19,3.39a24.83,24.83,0,0,0,8.65-3.18l1,6.75a5.85,5.85,0,0,0,1.77-.65c.11-2.67,1.06-3.5,2.53-2.71,1.66.9,1.73,4.71,1.73,4.71a13.85,13.85,0,0,0,3.32-12.46c-1.05-4.75-7.46-14.12-16.39-13.29S109.52-75.15,108.42-70A6.26,6.26,0,0,0,109.83-64.45Z" transform="translate(37.62 86.62)"/><path class="cls-3" d="M108-70.3s-11.48,8.08-13.45,9.79,9.07,9.17,16.89,6.67S131.07-65,131.07-65Z" transform="translate(37.62 86.62)"/><path class="cls-6" d="M108-70.3s13.08,8.13,21.25,5.8,10.38-4.36,10.38-4.36-.71-17.07-15.72-17.07S108-70.3,108-70.3Z" transform="translate(37.62 86.62)"/><path class="cls-3" d="M124.6-85.38c0,.69-1,1.25-2.25,1.25s-2.25-.56-2.25-1.25,1-1.24,2.25-1.24S124.6-86.07,124.6-85.38Z" transform="translate(37.62 86.62)"/><path class="cls-9" d="M-6,193.09c4.35-2.17,8.49-4.84,7.16-7.32a4.38,4.38,0,0,0-3.32-1.84c-4,1.32-6,2.22-6,2.22s.42-23.31,2.14-33c.56-3.19-14.66-3.3-14.66-3.3-.55,2.22-1,21.82,0,33.75a35.19,35.19,0,0,1-.17,8.54c1,.45,3.18,1.39,4.77,2.11C-13.89,195.27-10.33,195.27-6,193.09Z" transform="translate(37.62 86.62)"/><path class="cls-2" d="M-21,198.52c1.46,3.46,4.81,3.14,11.6.7a58.44,58.44,0,0,0,15.27-7.79c4.28-3.16,4.32-3.58,4.89-5.73.79-3-3.59-4.67-10.87-2.41-.72.22-1.38.43-2,.64a4.38,4.38,0,0,1,3.32,1.84c1.33,2.48-2.81,5.15-7.16,7.32s-7.92,2.18-10.1,1.19c-1.59-.72-3.73-1.66-4.77-2.11C-21.28,195.09-21.89,196.44-21,198.52Z" transform="translate(37.62 86.62)"/><path class="cls-9" d="M15.21,205.38c4.35-2.17,8.49-4.84,7.16-7.32a4.38,4.38,0,0,0-3.32-1.84c-4,1.32-6,2.22-6,2.22s1.12-36.58,2.83-46.24c.57-3.19-14.71,1.6-14.71,1.6C.61,156-.52,184,.51,195.92a35.3,35.3,0,0,1-.17,8.55c1,.45,3.18,1.38,4.77,2.1C7.29,207.56,10.85,207.56,15.21,205.38Z" transform="translate(37.62 86.62)"/><path class="cls-2" d="M.16,210.81c1.46,3.46,4.81,3.14,11.6.7A58.89,58.89,0,0,0,27,203.73c4.28-3.17,4.32-3.59,4.89-5.73.79-3-3.59-4.68-10.87-2.42-.72.22-1.38.43-2,.64a4.38,4.38,0,0,1,3.32,1.84c1.33,2.48-2.81,5.15-7.16,7.32s-7.92,2.18-10.1,1.19c-1.59-.72-3.73-1.65-4.77-2.1C-.1,207.38-.71,208.73.16,210.81Z" transform="translate(37.62 86.62)"/><path class="cls-9" d="M-.72-43C1.07-41.74,7.79-40.2,9.67-25.4,11.33-12.29,8.44-8.88,5.78-7.77c-1.47.61-6.71.6-6.71.6L-.72,3.9s-6.5,2.56-12.72,0l-6.23-2.57s2.43-4.19,2-11.45c-.51-9-3.7-21.82-1.44-26.59C-15-45.32-5.61-46.38-.72-43Z" transform="translate(37.62 86.62)"/><path class="cls-4" d="M-23-5.61S-5.26-.5-.73,1C3.54,2.49,7,5.42,11.42,14.39s1.17,22.54,1.17,22.54L11.25,61.41S2,72.64-6.27,73.43c-11.27,1.08-12.5-5.1-12.5-5.1S-33.1,36.93-30.77,22C-28.65,8.34-23-5.61-23-5.61Z" transform="translate(37.62 86.62)"/><path class="cls-15" d="M10.14-30.48C9.67-25.4,5.5-23.89,1.78-20S-2.3-10.92-3.43-7.46-3,11.44-8.64,23.08c-6,12.4-13.76,15.09-13.76,15.09S-33.15,21.64-37,1.59-27-44.55-12.06-47.7C3.78-51,11.12-40.91,10.14-30.48Z" transform="translate(37.62 86.62)"/><path class="cls-9" d="M7.34,9.28C3.68,8.93-.13,15.6.25,23.93.73,34.59,23,52.76,23,52.76c7.47,4.42,30.16-2.14,35.57-2.78s11.72,1.17,15.1.33c3.21-.8,7.72-6.15,5.54-7.87-1.75-1.38-12-1.41-12-1.41s1.86-4.26,1.9-5.59c.14-5-2.33.58-5.54,3.17C60,41.5,57.79,41.55,54.7,42a81.1,81.1,0,0,1-26.84-1S14.37,10,7.34,9.28Z" transform="translate(37.62 86.62)"/><path class="cls-6" d="M-10.43-48S4-46.81,2.86-34.34,1.78-20,1.78-20s2.69-7.42,4-13.1S5.32-51.83-10.43-48Z" transform="translate(37.62 86.62)"/><path class="cls-9" d="M5.78-23.21s-3.89-6.66-5.56,0a6.77,6.77,0,0,0,3.84,8.27Z" transform="translate(37.62 86.62)"/><path class="cls-4" d="M-19.88,56.19s-5,14.79-6.51,23.56c-3.79,21.88-2.54,70.13-2.54,70.13s19.74,11.27,33.36,10.35c19.88-1.33,25.82-10.35,25.82-10.35s-8-46.66-9.4-56.6C18.17,73.63,9.69,54.88,9.69,54.88Z" transform="translate(37.62 86.62)"/><path class="cls-12" d="M-22.9,65.8S-9.59,70.43-.06,67.22,12.57,62,12.57,62l-1.16-5.49A65.11,65.11,0,0,1-5,61c-9.2,1.35-17.78-2.44-17.78-2.44Z" transform="translate(37.62 86.62)"/></svg>