<svg id="Layer_1" data-name="Layer 1" xmlns="http://www.w3.org/2000/svg" viewBox="0 0 234.96 300"><defs><style>.cls-1{fill:#ebdce1;}.cls-2{fill:#9b8790;}.cls-3{fill:#c2aeb6;}.cls-4{fill:#1d5f30;}.cls-5{fill:#1e763b;}.cls-6{fill:#fff;}.cls-7{fill:#fdb714;}.cls-8{fill:#089346;}.cls-9{fill:#f99e1c;}.cls-10{fill:#ea5826;}.cls-11{fill:#713535;}.cls-12{fill:#d3d3d3;}</style></defs><path class="cls-1" d="M12.6,176.26S44.19,159,52.83,152.9c6.24-4.37,4.29-8.12.46-20.57S41.1,97.07,41.1,97.07l5.57-.89a61.16,61.16,0,0,0-3.76-10c25.51,2.54,51,21.62,52.76,23.9s16.06,54.89,18,61.73,0,10.89-11.8,17.95-34.91,17.83-34.91,17.83L18.51,180.18l-5.91,3.44Z" transform="translate(53.41 85.09)"/><path class="cls-2" d="M66.93,207.55s32.22-18.19,40.65-23.49c6.45-4.05,3.87-8.56,0-21s-12.19-35.26-12.19-35.26l7.71-1.24s9,27.5,12.16,38,5.37,18.7-4.22,24.75c-13,8.22-44.15,25.59-44.15,25.59Z" transform="translate(53.41 85.09)"/><polygon class="cls-3" points="120.34 292.64 120.34 300 66.01 268.7 66.01 261.35 120.34 292.64"/><polygon class="cls-4" points="230.15 269.27 220.53 274.83 214.8 265.93 227.49 258.25 230.15 269.27"/><polygon class="cls-4" points="47.04 0.79 36.85 6.71 55.05 11.34 47.04 0.79"/><path class="cls-4" d="M181.56,27.89V175.82a9.57,9.57,0,0,1-14.35,8.28L-4.65,84.88A13.67,13.67,0,0,1-11.49,73V-76.37A8.71,8.71,0,0,1,1.57-83.91l173.15,100A13.66,13.66,0,0,1,181.56,27.89Z" transform="translate(53.41 85.09)"/><path class="cls-5" d="M172,33.53V181.45a9.56,9.56,0,0,1-14.34,8.28L-14.26,90.51a13.66,13.66,0,0,1-6.83-11.84V-70.74A8.71,8.71,0,0,1-8-78.28l173.15,100A13.66,13.66,0,0,1,172,33.53Z" transform="translate(53.41 85.09)"/><polygon class="cls-6" points="41.32 14.29 195.54 103.42 216.35 115.45 216.35 267.46 41.32 166.3 41.32 14.29"/><polygon class="cls-1" points="117.85 80.72 204.36 130.72 204.36 252.6 117.85 202.6 117.85 80.72"/><polygon class="cls-4" points="47.65 150.89 108.3 185.94 108.3 195.3 47.65 160.25 47.65 150.89"/><polygon class="cls-1" points="47.65 139.27 108.3 174.32 108.3 178.04 47.65 142.99 47.65 139.27"/><polygon class="cls-1" points="47.65 128.9 108.3 163.95 108.3 167.67 47.65 132.62 47.65 128.9"/><polygon class="cls-1" points="47.65 118.21 108.3 153.26 108.3 156.98 47.65 121.93 47.65 118.21"/><polygon class="cls-1" points="47.65 107.83 108.3 142.88 108.3 146.61 47.65 111.56 47.65 107.83"/><polygon class="cls-6" points="125.48 73.63 166.28 97.21 166.28 219.09 125.48 195.51 125.48 73.63"/><polygon class="cls-3" points="177.13 145.73 197.82 157.55 197.82 171.16 177.13 159.34 177.13 145.73"/><polygon class="cls-3" points="177.13 166.66 197.82 178.48 197.82 192.09 177.13 180.27 177.13 166.66"/><polygon class="cls-3" points="177.08 188.67 197.76 200.49 197.76 214.1 177.08 202.28 177.08 188.67"/><polygon class="cls-3" points="177.18 211.32 197.87 223.14 197.87 236.75 177.18 224.93 177.18 211.32"/><polygon class="cls-4" points="171.16 177.59 216.35 151.57 216.35 115.12 174.46 154.08 171.16 177.59"/><polygon class="cls-7" points="213.92 113.94 57.54 23.39 15.67 64.95 172.21 155.35 213.92 113.94"/><polygon class="cls-8" points="41.87 14.29 0 55.86 15.83 65.03 57.54 23.39 41.87 14.29"/><polygon class="cls-8" points="73.64 32.69 31.77 74.25 47.6 83.42 89.31 41.78 73.64 32.69"/><polygon class="cls-8" points="105.4 51.04 63.53 92.61 79.36 101.77 121.08 60.13 105.4 51.04"/><polygon class="cls-8" points="137.17 69.37 95.3 110.94 111.13 120.11 152.84 78.46 137.17 69.37"/><polygon class="cls-8" points="168.89 87.73 127.02 129.3 142.86 138.47 184.57 96.83 168.89 87.73"/><polygon class="cls-8" points="200.68 106.03 158.81 147.6 174.64 156.76 216.35 115.12 200.68 106.03"/><path class="cls-9" d="M-37.52-20.06V-5.95c0,5.82,3.57,12.65,7.94,15.17s7.94-.18,7.94-6V-10.89Z" transform="translate(53.41 85.09)"/><path class="cls-9" d="M-5.76-1.72V12.4c0,5.82,3.58,12.65,8,15.17s7.94-.18,7.94-6V7.45Z" transform="translate(53.41 85.09)"/><path class="cls-9" d="M26,16.64V30.75C26,36.57,29.58,43.4,34,45.92s7.94-.18,7.94-6V25.81Z" transform="translate(53.41 85.09)"/><path class="cls-9" d="M57.78,35V49.06c0,5.83,3.57,12.66,7.94,15.18s7.94-.18,7.94-6V44.12Z" transform="translate(53.41 85.09)"/><path class="cls-9" d="M89.54,53.26V67.38c0,5.82,3.58,12.65,7.94,15.17s8-.18,8-6V62.43Z" transform="translate(53.41 85.09)"/><path class="cls-5" d="M-53.41-29.28v14.12c0,5.82,3.58,12.65,7.95,15.17s7.94-.18,7.94-6V-20.1Z" transform="translate(53.41 85.09)"/><path class="cls-5" d="M-21.64-10.86V3.26c0,5.82,3.57,12.65,7.94,15.17s7.94-.18,7.94-6V-1.69Z" transform="translate(53.41 85.09)"/><path class="cls-5" d="M10.13,7.45V21.57c0,5.82,3.57,12.65,7.94,15.17s7.94-.18,7.94-6V16.62Z" transform="translate(53.41 85.09)"/><path class="cls-5" d="M41.89,25.81V39.92c0,5.83,3.58,12.65,7.94,15.18s8-.18,8-6V35Z" transform="translate(53.41 85.09)"/><path class="cls-5" d="M73.66,44.08V58.19c0,5.82,3.57,12.65,7.94,15.17s7.94-.18,7.94-6V53.25Z" transform="translate(53.41 85.09)"/><path class="cls-5" d="M105.43,62.46V76.57c0,5.82,3.57,12.65,7.94,15.17s7.94-.18,7.94-6V71.63Z" transform="translate(53.41 85.09)"/><path class="cls-5" d="M-2.3,124.83,42.13,99.17,5.46,78-39,103.66c-3.18,1.83-2.78,5.07.89,7.19l23.32,13.46C-11.09,126.43-5.48,126.67-2.3,124.83Z" transform="translate(53.41 85.09)"/><rect class="cls-8" x="38.95" y="97.33" width="3.18" height="1.84" transform="translate(134.49 281.6) rotate(-180)"/><rect class="cls-10" x="-41.12" y="104.85" width="3.18" height="1.92" transform="translate(-25.65 296.7) rotate(-180)"/><path class="cls-8" d="M17.72,83.24l3.17,1.83-31.76,18.22,1.65.95L22.54,86,25.6,87.8-6.16,106l1.65,1L27.25,88.75l5.29,3.06-44.46,25.5,4.13,2.49L36.76,94.25l5.35,3.09L-2.3,123c-3.18,1.83-8.79,1.6-12.46-.52L-38.08,109l-.09-.06,5.61,3.25Z" transform="translate(53.41 85.09)"/><path class="cls-8" d="M-39,101.81,5.46,76.16,12,80l-50.44,28.81C-41.74,106.64-42,103.58-39,101.81Z" transform="translate(53.41 85.09)"/><path class="cls-11" d="M-38.45,108.78l0,0,.25.18Z" transform="translate(53.41 85.09)"/><path class="cls-12" d="M17.72,83.24l-50.28,29-5.61-3.25-.25-.18L12,80Z" transform="translate(53.41 85.09)"/><polygon class="cls-6" points="44.19 189.33 42.54 188.38 74.3 170.16 75.94 171.12 44.19 189.33"/><polygon class="cls-6" points="48.9 192.06 47.25 191.11 79.01 172.89 80.66 173.84 48.9 192.06"/><polygon class="cls-6" points="45.62 204.89 41.48 202.4 85.95 176.9 90.17 179.34 45.62 204.89"/><polygon class="cls-11" points="76.93 164.99 76.93 164.99 76.65 164.83 76.93 164.99"/><path class="cls-6" d="M-15,115.64l7.23-4.17c1-.57.85-1.56-.28-2.21l-5.22-3a4.27,4.27,0,0,0-3.82-.16l-7.23,4.18c-1,.56-.86,1.55.27,2.2l5.23,3A4.21,4.21,0,0,0-15,115.64Z" transform="translate(53.41 85.09)"/><polygon class="cls-8" points="29.89 198.95 42.79 191.5 41.75 190.9 28.85 198.35 29.89 198.95"/><polygon class="cls-8" points="33.39 200.63 46.3 193.19 45.25 192.59 32.35 200.03 33.39 200.63"/><polygon class="cls-8" points="45.64 198.95 46.5 198.45 33.41 190.9 32.55 191.39 45.64 198.95"/><polygon class="cls-8" points="41.94 201.3 42.8 200.81 29.7 193.25 28.84 193.75 41.94 201.3"/></svg>