<svg id="logo_youtube" data-name="logo/youtube" xmlns="http://www.w3.org/2000/svg" width="42.249" height="32" viewBox="0 0 42.249 32">
  <path id="Path_6" data-name="Path 6" d="M202.816,173.843l-9.334-5.107a1.714,1.714,0,0,0-2.537,1.5v10.126a1.711,1.711,0,0,0,2.526,1.51l9.334-5.019a1.714,1.714,0,0,0,.011-3.014Zm-9.4,5.25v-7.568l6.976,3.817Z" transform="translate(-175.189 -159.733)" fill="#fff"/>
  <path id="Path_7" data-name="Path 7" d="M41.938,69.553l0-.019c-.036-.34-.392-3.365-1.862-4.9A6.875,6.875,0,0,0,35.521,62.5l-.21-.025-.074-.008C29.651,62.056,21.216,62,21.132,62h-.015c-.084,0-8.52.056-14.155.462l-.074.008-.2.024a6.7,6.7,0,0,0-4.527,2.2C.762,66.217.357,69.177.316,69.509l0,.043C.3,69.694,0,73.063,0,76.445v3.161c0,3.382.3,6.751.311,6.893l0,.021c.036.335.392,3.3,1.855,4.843a7.016,7.016,0,0,0,4.706,2.1c.172.02.32.036.421.054l.1.014c3.225.307,13.336.458,13.765.464h.026c.084,0,8.519-.056,14.1-.462l.074-.008c.071-.009.15-.018.237-.027a6.547,6.547,0,0,0,4.488-2.147c1.4-1.522,1.806-4.482,1.847-4.815l0-.043c.013-.142.311-3.51.311-6.892V76.445C42.249,73.063,41.951,69.694,41.938,69.553ZM39.773,79.606c0,3.13-.273,6.354-.3,6.65a7.86,7.86,0,0,1-1.215,3.43,4.071,4.071,0,0,1-2.922,1.356l-.264.03c-5.4.391-13.519.451-13.893.453-.419-.006-10.383-.159-13.509-.449-.16-.026-.333-.046-.516-.067A4.629,4.629,0,0,1,3.99,89.686l-.023-.025a7.131,7.131,0,0,1-1.191-3.4c-.02-.224-.3-3.485-.3-6.659V76.445c0-3.127.273-6.347.3-6.649A7.7,7.7,0,0,1,3.99,66.365a4.272,4.272,0,0,1,2.984-1.412l.2-.024c5.481-.393,13.656-.451,13.949-.453s8.465.061,13.9.453l.218.026a4.434,4.434,0,0,1,3.032,1.373l.01.011a7.246,7.246,0,0,1,1.191,3.445c.019.211.3,3.48.3,6.661Z" transform="translate(0 -62)" fill="#fff"/>
</svg>
