<svg id="EX" xmlns="http://www.w3.org/2000/svg" width="240" height="32.023" viewBox="0 0 240 32.023">
  <g id="positivo" transform="translate(-43.487 -11.265)">
    <path id="Path_287" data-name="Path 287" d="M43.5,48.626V34.783c.8-4.391,4.6-3.509,4.6-3.509H76.7c-2.87,2.99-10.894,6.674-10.894,6.674-9,3.439-16.865,6.212-16.865,6.212-5.9,2.726-5.443,4.467-5.443,4.467Z" transform="translate(0 -13.226)" fill="#ea2227" fill-rule="evenodd"/>
    <path id="Path_288" data-name="Path 288" d="M226.384,41.648l9.132-11h-6.764c-1.629.283-5.8,6.146-5.8,6.146-3.243-5.962-4.967-6.113-4.967-6.113h-7.957l8.132,11.782-4.827,5.542s-1.7,2.892-7.568,3.8H197.84a3.875,3.875,0,0,1-2.894-3.1V45.553l11.99-.146c3.632-.66,3.79-5.151,3.79-5.151.816-10.051-9.613-9.91-9.613-9.91-10.493-.429-12.4,3.75-12.4,3.75s-3.038,3.523-1.026,15.707c0,0,1.682,6.146,7.988,6.037h12.288c7.228,1.038,13.707-8.693,13.707-8.693,1.573,2.443,3.106,4.886,3.106,4.886,1.863,3.915,3.684,3.694,3.684,3.694h7.912Zm-25.843-6.882A2.322,2.322,0,0,1,202.852,37l.049,2.085s.036,1.627-1.1,1.835h-6.813l-.04-4.24S195.194,33.855,200.541,34.766Z" transform="translate(-95.21 -12.638)" fill="#ea2227" fill-rule="evenodd"/>
    <path id="Path_289" data-name="Path 289" d="M343.071,11.265s-6.4,1.6-7.462,5.189V34.962s.241,7.589,7.389,8.122c0,0,6.167.839,6.941-.9V38.411s-3.606.745-5.523-.326a2.611,2.611,0,0,1-1.255-2.184V22.661h6.073a1.8,1.8,0,0,0,.915-1.207V17.991H343.1l-.033-6.726Z" transform="translate(-193.795)" fill="#ea2227" fill-rule="evenodd"/>
    <path id="Path_290" data-name="Path 290" d="M383.08,55.113s.649.731,1.137.793H389.3a1.587,1.587,0,0,0,1.342-1.236V37.561s-.156-1.774,2.518-2.429h4.594V31.9s-.274-1.3-2.877-1.25c0,0-11.254-1.821-11.745,7.7l-.057,16.759Z" transform="translate(-225.288 -12.769)" fill="#ea2227" fill-rule="evenodd"/>
    <path id="Path_291" data-name="Path 291" d="M438.208,30.449l-6.641.1c-4.434-.146-4.679,1.326-4.679,1.326l.009,3.288a99.377,99.377,0,0,1,10.169-.156,3.706,3.706,0,0,1,2.887,4.174l-9.075.17s-5.542-.113-6.971,4.3c0,0-1.123,5.315.448,8.471,0,0,1.029,3.052,7,3.642l16.037.047V40.194S447.717,30.61,438.208,30.449ZM439.8,51.585H434.51s-3.217.208-3.542-2.047a28.558,28.558,0,0,1-.024-4.235,2.688,2.688,0,0,1,2.34-2.061,53.549,53.549,0,0,1,6.6-.127Z" transform="translate(-252.114 -12.727)" fill="#ea2227" fill-rule="evenodd"/>
    <path id="Path_292" data-name="Path 292" d="M535.239,51.539l1.151-2.231s-1.2-1.905-4.957-1.373c0,0-5.642.448-5.052,8.438,0,0,.33,6.844,7.453,5.5,0,0,1.859-.4,2.217-1.141l-.858-2.3a4.36,4.36,0,0,1-2.948,1,2.764,2.764,0,0,1-2.179-2.25s-.307-4.882.345-5.58c0,0,1.245-2.561,4.83-.061Z" transform="translate(-320.326 -24.265)" fill="#045ca9" fill-rule="evenodd"/>
    <path id="Subtraction_1" data-name="Subtraction 1" d="M5.678,14.218h0a5.562,5.562,0,0,1-2.893-.735,5.057,5.057,0,0,1-1.652-1.617,6.44,6.44,0,0,1-.92-2.353A13.624,13.624,0,0,1,.205,4.744a6.48,6.48,0,0,1,1.26-2.808A5.117,5.117,0,0,1,3.65.364,4.3,4.3,0,0,1,4.78.093,2.787,2.787,0,0,1,5.555,0,9.576,9.576,0,0,1,7.874.381a6.312,6.312,0,0,1,2.674,2.463,7.509,7.509,0,0,1,.943,2.94,10.692,10.692,0,0,1-.183,3.5,7.72,7.72,0,0,1-1.159,2.8,5.059,5.059,0,0,1-1.536,1.453,4.232,4.232,0,0,1-2.033.633H6.572A8.26,8.26,0,0,1,5.678,14.218ZM5.4,2.777a1.556,1.556,0,0,0-.974.389,3.392,3.392,0,0,0-.96,2.418,21.153,21.153,0,0,0,.387,4.849,3.066,3.066,0,0,0,2,1.224c.721,0,1.348-.539,1.863-1.6a21.891,21.891,0,0,0,.123-5.066,3.77,3.77,0,0,0-.291-1.138,2.119,2.119,0,0,0-.565-.782,1.557,1.557,0,0,0-1.022-.356,2.381,2.381,0,0,0-.528.064Z" transform="translate(217.586 23.53)" fill="#045ca9"/>
    <path id="Path_295" data-name="Path 295" d="M602.685,48.676s1.095,1.137.665,12.66h3.425V51.459s2.759-2.561,3.476.213v9.617h3.26V51.723s2.5-2.722,3.528-.325v10h3.377V50.313s-1.472-5.448-7.118-.821c0,0-2.118-4.014-6.958-.062l-.66-1.783-3,1.028Z" transform="translate(-370.975 -24.124)" fill="#045ca9" fill-rule="evenodd"/>
    <path id="Path_296" data-name="Path 296" d="M695.714,36.529a6.475,6.475,0,0,0-2.83,1.189l-.047-6.849-3.378.726V47.944l-.646,2.118,3.156.552.708-.934s3.2,2.934,6.406-1.033a7.18,7.18,0,0,0,1.406-4.783S701.421,36.8,695.714,36.529Zm1.415,7.825a4.457,4.457,0,0,1-.887,2.816c-2.207,1.873-3.3.4-3.3.4V40c2.717-1.9,3.754.4,3.754.4A7.125,7.125,0,0,1,697.129,44.355Z" transform="translate(-428.113 -13.005)" fill="#045ca9" fill-rule="evenodd"/>
    <path id="Path_297" data-name="Path 297" d="M731.761,51.2V61.456h3.368V52.276a2.85,2.85,0,0,1,3.424-1.245l1.1-2.877a3.7,3.7,0,0,0-4.858,1.675l-.967-2.009L731.1,48.8a21.191,21.191,0,0,1,.656,2.4Z" transform="translate(-456.17 -24.243)" fill="#045ca9" fill-rule="evenodd"/>
    <path id="Path_298" data-name="Path 298" d="M667.612,74.966a2.477,2.477,0,0,0-2.552,2.457,2.606,2.606,0,0,0,2.443,2.594,2.422,2.422,0,0,0,2.66-2.5,2.547,2.547,0,0,0-2.552-2.547Z" transform="translate(-412.355 -42.259)" fill="#045ca9" fill-rule="evenodd"/>
    <path id="Path_299" data-name="Path 299" d="M506.161,74.97a2.45,2.45,0,0,0-2.453,2.665s.274,2.594,2.491,2.325a2.448,2.448,0,0,0,2.5-2.325s.387-2.5-2.538-2.665Z" transform="translate(-305.313 -42.262)" fill="#045ca9" fill-rule="evenodd"/>
    <path id="Path_300" data-name="Path 300" d="M43.512,56.6V50.835c.238-1.311,3.483-4,8.809-5.533,4.326-1.684,9.495-3.127,14.03-5.264a63.057,63.057,0,0,0,13.443-8.623h7.384c-5.509,8.561-21.736,14.867-21.736,14.867-9.433,3.16-15.964,5.707-15.964,5.707C43.569,54.7,43.512,56.6,43.512,56.6Z" transform="translate(-0.016 -13.368)" fill="#045ca9" fill-rule="evenodd"/>
  </g>
</svg>
