<svg id="Layer_1" data-name="Layer 1" xmlns="http://www.w3.org/2000/svg" xmlns:xlink="http://www.w3.org/1999/xlink" viewBox="0 0 1171.31 133.1"><defs><style>.cls-1{fill:#fff;}.cls-1,.cls-2,.cls-3,.cls-4{fill-rule:evenodd;}.cls-2{fill:#1a493d;}.cls-3{fill:#09774f;}.cls-4{fill:#fcbe3c;}.cls-5{mask:url(#mask);}.cls-6{mask:url(#mask-2-2);}</style><mask id="mask" x="215.34" y="0" width="52.27" height="4.1" maskUnits="userSpaceOnUse"><g transform="translate(-374.36 -473.11)"><g id="mask-2"><polygon id="path-1" class="cls-1" points="589.7 473.12 641.96 473.12 641.96 477.21 589.7 477.21 589.7 473.12"/></g></g></mask><mask id="mask-2-2" x="0" y="0" width="1171.31" height="133.1" maskUnits="userSpaceOnUse"><g transform="translate(-374.36 -473.11)"><g id="mask-4"><polygon id="path-3" class="cls-1" points="374.36 606.22 1545.66 606.22 1545.66 473.12 374.36 473.12 374.36 606.22"/></g></g></mask></defs><g id="E-mail---Integracao-do-Seller"><g id="E-mail"><g id="Header-Body"><g id="Logotipo-Marketplace-VERT_White" data-name="Logotipo-Marketplace-VERT/White"><g id="Group-41"><path id="Fill-1" class="cls-2" d="M639.82,534.45l-12.56,45.87c-1.44,5.34-3.74,6.34-6.52,6.34s-5.27-1-6.71-6.34l-12.56-45.87a2.57,2.57,0,0,1-.1-.81,1.53,1.53,0,0,1,1.54-1.71h1c.68,0,1.35.4,1.73,1.81l12.27,45.47c.87,3,1.83,3.62,2.88,3.62s1.82-.6,2.68-3.62l12.28-45.47c.38-1.41,1-1.81,1.72-1.81h1.15c1,0,1.35.6,1.35,1.51a3.5,3.5,0,0,1-.1,1" transform="translate(-374.36 -473.11)"/><path id="Fill-3" class="cls-2" d="M654.2,586.06h-.57a1.94,1.94,0,0,1-1.82-1.92v-50.3a1.93,1.93,0,0,1,1.82-1.91h.57a1.93,1.93,0,0,1,1.82,1.91v50.3a1.94,1.94,0,0,1-1.82,1.92m0-64.11h-.57a1.87,1.87,0,0,1-1.82-1.92v-7.46a1.93,1.93,0,0,1,1.82-1.91h.57a1.93,1.93,0,0,1,1.82,1.91V520A1.87,1.87,0,0,1,654.2,522" transform="translate(-374.36 -473.11)"/><path id="Fill-5" class="cls-2" d="M700,557.53h-7.38c-14.48,0-19.46,3-19.46,11.59v1.31c0,9.38,4.69,12.3,10.45,12.3,5.37,0,10-1.51,16.39-5.14Zm2.3,28.53h-.48a2,2,0,0,1-1.92-2v-2.52c-4.69,2.73-10.35,5.14-16.29,5.14-7.2,0-14.67-3.63-14.67-16.23v-1.31c0-10.38,6.23-15.52,23.68-15.52H700V550c0-10.48-2.78-14.61-12.08-14.61a99.22,99.22,0,0,0-13.61.9H674c-.86,0-1.82-.4-1.82-1.51v-.6c0-1.11.77-1.62,2.21-1.82a93.62,93.62,0,0,1,13.61-.91c12.94,0,16.3,7.66,16.3,18.55V584a2,2,0,0,1-1.92,2Z" transform="translate(-374.36 -473.11)"/><path id="Fill-7" class="cls-2" d="M763.71,531.52l-12.79,45.87c-2,7.46-7.5,9.47-12.68,9.47s-10.55-2-12.58-9.47l-12.79-45.87a1.7,1.7,0,0,1-.1-.7,1.6,1.6,0,0,1,1.62-1.62h10.15c.91,0,1.73.71,2,2l9.74,42.24c.41,1.91,1.12,2.52,1.93,2.52s1.52-.61,1.93-2.52l9.74-42.24a2.33,2.33,0,0,1,2.13-2h10.15a1.6,1.6,0,0,1,1.62,1.62,1.7,1.7,0,0,1-.1.7" transform="translate(-374.36 -473.11)"/><path id="Fill-9" class="cls-2" d="M800.07,561.06h-6.32c-9.13,0-11.13,2.92-11.13,8.57v.4c0,4.94,2.2,6.25,7.22,6.25a21.91,21.91,0,0,0,10.23-2.82Zm11.24,25h-8.53a2,2,0,0,1-2-2v-1.61a27.09,27.09,0,0,1-14.14,4.43c-8.33,0-17.35-3.22-17.35-16.83v-.4c0-11.49,7-17.44,24.47-17.44h6.32v-4.44c0-6.55-2.91-8.16-8.82-8.16a158.89,158.89,0,0,0-16.36.8h-.5c-1,0-1.8-.3-1.8-1.71v-6.45c0-1.11.6-1.82,1.9-2.12a86.76,86.76,0,0,1,16.76-1.61c14.24,0,22.07,6.35,22.07,19.25V584a2,2,0,0,1-2,2Z" transform="translate(-374.36 -473.11)"/><path id="Fill-11" class="cls-2" d="M851.85,539.79a26.28,26.28,0,0,0-13.28,3.63v40.52a2.07,2.07,0,0,1-1.92,2.12h-8.86a2.07,2.07,0,0,1-1.92-2.12V531.22a2,2,0,0,1,1.92-2h8.38a2,2,0,0,1,1.92,2v2.12a21.74,21.74,0,0,1,13.76-4.84,2,2,0,0,1,1.93,2v7.25a2,2,0,0,1-1.93,2" transform="translate(-374.36 -473.11)"/><path id="Fill-13" class="cls-2" d="M894.86,552.39c0-7.86-4.34-12.4-10.59-12.4s-10.79,4.43-10.79,12.4v.41h21.38Zm11.4,9.88H873.38v.3c0,5.85,2.42,12.8,12.1,12.8,7.36,0,14.32-.6,18.55-1h.31c1,0,1.82.5,1.82,1.51v6.65c0,1.61-.31,2.32-2.13,2.62a89.64,89.64,0,0,1-19.56,1.71c-10.09,0-24.4-5.44-24.4-25.3V554.1c0-15.72,8.77-25.6,24.2-25.6s24,10.58,24,25.6v5.65c0,1.61-.61,2.52-2,2.52Z" transform="translate(-374.36 -473.11)"/><path id="Fill-15" class="cls-2" d="M930,521.65h-9.24a2,2,0,0,1-1.93-2v-8.87a2,2,0,0,1,1.93-2H930a2.06,2.06,0,0,1,2,2v8.87a2.06,2.06,0,0,1-2,2m-12.52,84.57a34.92,34.92,0,0,1-6.35-.61c-1.25-.2-1.82-.8-1.82-1.81v-6.55c0-1,.76-1.61,2-1.61h4.33c3.08,0,3.37-1.32,3.37-5.35V531.22a2,2,0,0,1,1.92-2h8.86a2,2,0,0,1,1.92,2v59.07c0,12.3-5.3,15.93-14.25,15.93" transform="translate(-374.36 -473.11)"/><path id="Fill-17" class="cls-2" d="M977.24,553.6c0-8.27-3.77-13.61-10.89-13.61s-10.89,5.34-10.89,13.61v8.16c0,8.27,3.76,13.61,10.89,13.61s10.89-5.34,10.89-13.61Zm-10.89,33.26c-16,0-24.33-10.68-24.33-25.1V553.6c0-14.42,8.35-25.1,24.33-25.1s24.32,10.68,24.32,25.1v8.16c0,14.42-8.34,25.1-24.32,25.1Z" transform="translate(-374.36 -473.11)"/><path id="Fill-19" class="cls-3" d="M496.49,580.15c-6.5,0-13-3.35-17.95-9.18-2.32-2.75-7.59-10.5-12.69-18-4.09-6-7.94-11.67-9.63-13.8-3.28-4.15-10.1-12.8-19.39-12.8-8.83,0-14.89,6.24-29,21.62-14.25,15.58-30.74,16-31.43,16a2,2,0,0,1-2.08-2,2,2,0,0,1,2-2.09c.15,0,15.46-.48,28.48-14.7,14-15.27,21-22.94,32-22.94,11.27,0,19.21,10.06,22.61,14.35,1.77,2.25,5.67,8,9.79,14,4.81,7.07,10.26,15.08,12.44,17.67,4.13,4.9,9.53,7.72,14.82,7.72s11.2-.82,17.76-10.61c3.62-5.41,14.21-22.92,24.46-39.85C547.24,511.48,555.3,498.16,558,494c9.11-13.86,20.45-20.89,33.71-20.89h48.17a2,2,0,1,1,0,4.09H591.74c-12,0-21.87,6.23-30.29,19.05-2.68,4.08-10.72,17.38-19.24,31.44-10.26,17-20.88,34.53-24.56,40-7.31,10.92-14.49,12.43-21.16,12.43" transform="translate(-374.36 -473.11)"/><path id="Fill-21" class="cls-4" d="M531.32,591.93c-15,0-25.64-14-29.51-20-1.69-2.63-5.12-8.3-8.75-14.3-3.91-6.47-8-13.16-9.67-15.77-6.78-10.32-14.3-15.33-23-15.33a23.7,23.7,0,0,0-17.58,7.54c-2,2-6.47,7.16-12.64,14.27l-4.34,5c-9.5,10.95-18.76,10.95-23.73,10.95H376.4a2.05,2.05,0,0,1,0-4.1h25.7c6,0,13-.73,20.64-9.53l4.33-5c6.23-7.18,10.72-12.37,12.84-14.49a28,28,0,0,1,20.48-8.74c10.19,0,18.83,5.62,26.42,17.18,1.76,2.68,5.82,9.4,9.75,15.9,3.62,6,7,11.62,8.69,14.2,3.51,5.46,13.07,18.14,26.07,18.14s20.95-10.54,24.73-15.61l.64-.86c2.36-3.11,23.79-37,38-59.37,6.34-10,11.39-18,13-20.52,5.73-8.87,17.21-18.35,32.22-18.35a2.05,2.05,0,1,1,0,4.1c-13.37,0-23.63,8.5-28.78,16.47-1.63,2.53-6.68,10.5-13,20.49-15.07,23.8-35.71,56.4-38.17,59.65l-.62.84c-3.85,5.16-12.87,17.26-28,17.26" transform="translate(-374.36 -473.11)"/><path id="Fill-23" class="cls-3" d="M496.49,580.15c-6.5,0-13-3.35-17.95-9.18-2.32-2.75-7.59-10.5-12.69-18-4.09-6-7.94-11.67-9.63-13.8-3.28-4.15-10.1-12.8-19.39-12.8-8.83,0-14.89,6.24-29,21.62a2,2,0,1,1-3-2.77c14-15.27,21-22.94,32-22.94,11.27,0,19.21,10.06,22.61,14.35,1.77,2.25,5.67,8,9.79,14,4.81,7.07,10.26,15.08,12.44,17.67,4.13,4.9,9.53,7.72,14.82,7.72a2,2,0,0,1,0,4.1" transform="translate(-374.36 -473.11)"/><g id="Group-27"><g class="cls-5"><path id="Fill-25" class="cls-3" d="M639.91,477.21H591.75a2.05,2.05,0,0,1,0-4.1h48.16a2.05,2.05,0,1,1,0,4.1" transform="translate(-374.36 -473.11)"/></g></g><g class="cls-6"><polygon id="Fill-28" class="cls-2" points="651.29 133.1 654.52 133.1 654.52 35.63 651.29 35.63 651.29 133.1"/></g><g class="cls-6"><path id="Fill-30" class="cls-3" d="M1105.07,585.41h-.75a1.34,1.34,0,0,1-1.27-1.41V533.31a.47.47,0,0,0-.52-.52c-.37,0-.45.15-.75.67l-12.89,27.21c-1,2.16-2.16,2.68-3.8,2.68s-2.76-.52-3.8-2.68l-12.9-27.21c-.29-.52-.37-.67-.74-.67a.47.47,0,0,0-.52.52V584a1.34,1.34,0,0,1-1.27,1.41h-.74a1.34,1.34,0,0,1-1.27-1.41V533.31c0-2.46,1.49-3.65,3.8-3.65a3.65,3.65,0,0,1,3.43,2.3l13,27.37c.3.66.53,1,1,1s.67-.3,1-1l13-27.37a3.64,3.64,0,0,1,3.43-2.3c2.31,0,3.81,1.19,3.81,3.65V584a1.34,1.34,0,0,1-1.27,1.41" transform="translate(-374.36 -473.11)"/></g><g class="cls-6"><path id="Fill-31" class="cls-3" d="M1137.15,534.13a1.79,1.79,0,0,0-1.72-1.49,1.6,1.6,0,0,0-1.72,1.41l-8.19,27.14h19.75Zm17.29,51.5h-.9a1.28,1.28,0,0,1-1.19-1l-6.26-20.2h-21.47l-6.11,20.2a1.46,1.46,0,0,1-1.19,1h-1c-1,0-1.34-.81-1-1.86l15.29-50.47a4.81,4.81,0,0,1,4.84-3.64,4.73,4.73,0,0,1,4.77,3.57l15.28,50.54c.3,1.05,0,1.86-1,1.86Z" transform="translate(-374.36 -473.11)"/></g><g class="cls-6"><path id="Fill-32" class="cls-3" d="M1194.34,544.86c0-9.31-5.89-12.07-17-12.07-3.13,0-7.37.07-9.61.3v24.15c2,0,7.45.07,9.61.07,11.56,0,17-2.54,17-12.08Zm4.17,40.55h-1a1.74,1.74,0,0,1-1.11-.67l-15.88-24.3c-1.42.08-1.94,0-3.21,0-2.9,0-9.61-.08-9.61-.08V584a1.34,1.34,0,0,1-1.27,1.42h-.74a1.34,1.34,0,0,1-1.27-1.42V531.37a1.5,1.5,0,0,1,1.27-1.41c2.6-.16,8.42-.3,11.62-.3,13.42,0,20.28,3.8,20.28,15.2v.37c0,9.1-4.55,13.35-13.34,14.84l15,23.18c.6,1,.45,2.16-.82,2.16Z" transform="translate(-374.36 -473.11)"/></g><g class="cls-6"><path id="Fill-33" class="cls-3" d="M1240.2,532.34l-25,24.3,25.56,26.54c1,1.11.45,2.38-.89,2.38a2.55,2.55,0,0,1-1.72-.6l-25.78-26.83V584a1.34,1.34,0,0,1-1.27,1.41h-.74A1.35,1.35,0,0,1,1209,584V531.44a1.46,1.46,0,0,1,1.42-1.41h.45a1.46,1.46,0,0,1,1.42,1.41V555.3l25.34-24.75a2.48,2.48,0,0,1,1.71-.82,1.4,1.4,0,0,1,1.42,1.27,2,2,0,0,1-.6,1.34" transform="translate(-374.36 -473.11)"/></g><g class="cls-6"><path id="Fill-34" class="cls-3" d="M1275.48,585.41h-19.23c-5.67,0-9-2.09-9-8.35V538.38c0-6.26,3.35-8.35,9-8.35h19.23a1.29,1.29,0,0,1,1.41,1.27v.59c0,.75-.59,1.2-1.41,1.2h-19.23c-3.58,0-5.74.66-5.74,5.29v16.39h25c.82,0,1.41.45,1.41,1.2v.74a1.29,1.29,0,0,1-1.41,1.27h-25v19.08c0,4.62,2.16,5.29,5.74,5.29h19.23c.82,0,1.41.45,1.41,1.2v.59a1.29,1.29,0,0,1-1.41,1.27" transform="translate(-374.36 -473.11)"/></g><g class="cls-6"><path id="Fill-35" class="cls-3" d="M1319.92,533.09h-16V584a1.34,1.34,0,0,1-1.26,1.42H1302a1.35,1.35,0,0,1-1.27-1.42v-50.9h-16c-.82,0-1.42-.38-1.42-1.13v-.66a1.3,1.3,0,0,1,1.42-1.27h35.25a1.29,1.29,0,0,1,1.42,1.27V532c0,.75-.59,1.13-1.42,1.13" transform="translate(-374.36 -473.11)"/></g><g class="cls-6"><path id="Fill-36" class="cls-3" d="M1356.7,548c0-4.32-3-6-8-6l-5.29.08V554.7c.37.07,4.84.07,5.29.07,5.22,0,8-2,8-6.18Zm-8,19.38c-1.64,0-3.28-.15-5.29-.22v16.76a1.5,1.5,0,0,1-1.49,1.5H1330a1.44,1.44,0,0,1-1.56-1.34v-48.9c0-3.58,1.19-4.39,4.32-4.92a120.15,120.15,0,0,1,15.73-1c11.1,0,23.25,3.88,23.25,18.71v.6c0,14.68-12.3,18.78-23,18.78Z" transform="translate(-374.36 -473.11)"/></g><g class="cls-6"><path id="Fill-37" class="cls-3" d="M1409.79,585.18a73,73,0,0,1-11.7.9c-9.54,0-19.15-2.24-19.15-16.69V531.52a1.56,1.56,0,0,1,1.56-1.49h12.15a1.49,1.49,0,0,1,1.49,1.49v37.87c0,2.9.9,3.73,3.58,3.73h12.07a1.49,1.49,0,0,1,1.5,1.48v9.1c0,.89-.53,1.34-1.5,1.48" transform="translate(-374.36 -473.11)"/></g><g class="cls-6"><path id="Fill-38" class="cls-3" d="M1439.63,542.77c-.15-.66-.15-1-.82-1s-.67.38-.82,1l-3.65,18.94h8.94Zm7.9,41.22-2.09-10.35h-13.27L1430.09,584c-.15.75-.45,1.42-1.49,1.42h-12.9c-1.12,0-1.34-.75-1.2-1.57l10-45.61c1.65-7.38,7.24-8.87,14.32-8.87s12.67,1.49,14.31,8.87l10,45.61c.22.9,0,1.57-1.12,1.57h-13c-1,0-1.34-.67-1.49-1.42Z" transform="translate(-374.36 -473.11)"/></g><g class="cls-6"><path id="Fill-39" class="cls-3" d="M1501.52,584.74a35.26,35.26,0,0,1-10.44,1.34c-13.71,0-22.95-7.46-22.95-24.52v-7.68c0-17.07,9.24-24.52,22.95-24.52a35.26,35.26,0,0,1,10.44,1.34c1.19.37,1.64.6,1.64,1.64v9.54c0,1-.3,1.57-1.57,1.42a96.14,96.14,0,0,0-10.43-.67c-4,0-7.68,1.78-7.68,11.25v7.68c0,9.38,3.58,11.25,7.68,11.25a84.09,84.09,0,0,0,10.43-.67c1.34-.15,1.57.52,1.57,1.42v9.54c0,1-.45,1.27-1.64,1.64" transform="translate(-374.36 -473.11)"/></g><g class="cls-6"><path id="Fill-40" class="cls-3" d="M1544.17,585.18a105.8,105.8,0,0,1-14.68.9c-9.54,0-19.08-2.24-19.08-16.69V546c0-14.39,9.54-16.7,19.08-16.7a105.8,105.8,0,0,1,14.68.9c1,.14,1.49.6,1.49,1.49v9.1a1.49,1.49,0,0,1-1.49,1.48h-15.05c-2.69,0-3.58.82-3.58,3.73v5.44h18.34a1.49,1.49,0,0,1,1.49,1.49v8.8a1.49,1.49,0,0,1-1.49,1.48h-18.34v6.2c0,2.9.89,3.73,3.58,3.73h15.05a1.49,1.49,0,0,1,1.49,1.48v9.1c0,.89-.52,1.34-1.49,1.48" transform="translate(-374.36 -473.11)"/></g></g></g></g></g></g></svg>