<svg id="logo_instagram" data-name="logo/instagram" xmlns="http://www.w3.org/2000/svg" width="31.994" height="32" viewBox="0 0 31.994 32">
  <path id="Path_2" data-name="Path 2" d="M32.811,9.408a11.694,11.694,0,0,0-.744-3.882A8.2,8.2,0,0,0,27.384.844,11.724,11.724,0,0,0,23.5.1C21.79.019,21.246,0,16.9,0s-4.888.019-6.6.094A11.7,11.7,0,0,0,6.424.838a7.808,7.808,0,0,0-2.838,1.85A7.879,7.879,0,0,0,1.742,5.52,11.723,11.723,0,0,0,1,9.4C.917,11.115.9,11.659.9,16s.019,4.888.094,6.6a11.693,11.693,0,0,0,.744,3.882,8.2,8.2,0,0,0,4.682,4.682,11.726,11.726,0,0,0,3.882.744c1.706.075,2.25.094,6.6.094s4.888-.019,6.6-.094a11.691,11.691,0,0,0,3.882-.744,8.185,8.185,0,0,0,4.682-4.682A11.732,11.732,0,0,0,32.8,22.6c.075-1.707.094-2.25.094-6.6S32.886,11.115,32.811,9.408ZM29.929,22.473a8.77,8.77,0,0,1-.55,2.969,5.308,5.308,0,0,1-3.038,3.038,8.8,8.8,0,0,1-2.969.55c-1.688.075-2.194.094-6.464.094s-4.782-.019-6.464-.094a8.768,8.768,0,0,1-2.969-.55,4.925,4.925,0,0,1-1.838-1.194,4.976,4.976,0,0,1-1.194-1.838,8.8,8.8,0,0,1-.55-2.969c-.075-1.688-.094-2.194-.094-6.464s.019-4.782.094-6.464a8.765,8.765,0,0,1,.55-2.969,4.864,4.864,0,0,1,1.2-1.838A4.967,4.967,0,0,1,7.481,3.551,8.807,8.807,0,0,1,10.45,3c1.688-.075,2.194-.094,6.464-.094S21.7,2.926,23.378,3a8.77,8.77,0,0,1,2.969.55,4.92,4.92,0,0,1,1.838,1.194,4.974,4.974,0,0,1,1.194,1.838,8.806,8.806,0,0,1,.55,2.969c.075,1.688.094,2.194.094,6.464S30,20.785,29.929,22.473Z" transform="translate(-0.898 0)" fill="#fff"/>
  <path id="Path_3" data-name="Path 3" d="M133.4,124.281a8.22,8.22,0,1,0,8.22,8.22A8.222,8.222,0,0,0,133.4,124.281Zm0,13.553a5.332,5.332,0,1,1,5.332-5.332A5.333,5.333,0,0,1,133.4,137.834Z" transform="translate(-117.396 -116.498)" fill="#fff"/>
  <path id="Path_4" data-name="Path 4" d="M366.1,90.365a1.919,1.919,0,1,1-1.919-1.919A1.919,1.919,0,0,1,366.1,90.365Z" transform="translate(-339.632 -82.907)" fill="#fff"/>
</svg>
