<!DOCTYPE svg PUBLIC "-//W3C//DTD SVG 20010904//EN" "http://www.w3.org/TR/2001/REC-SVG-20010904/DTD/svg10.dtd">
<svg version="1.0" xmlns="http://www.w3.org/2000/svg" viewBox="0 0 877.23 434.88"><defs><style>.cls-1{fill:#f16936;}.cls-2,.cls-3{stroke:#000;stroke-miterlimit:10;}.cls-3{stroke-width:0.75px;}</style></defs><g id="Layer_1" data-name="Layer 1"><path class="cls-1" d="M801.13,95.1l-56.45,89.47,25.14,88H723L704.5,207.5H685l-11.59,65.07H629.08L660.38,95.1h44.37l-13.07,74h15.78l46.83-74Z"/><path class="cls-2" d="M347.25,330.52a13.74,13.74,0,0,1-6.88-1.7,12.21,12.21,0,0,1-4.7-4.73,13.78,13.78,0,0,1-1.71-6.91,14.47,14.47,0,0,1,1.61-6.93,12,12,0,0,1,11-6.45,12,12,0,0,1,6.36,1.65,11.2,11.2,0,0,1,4.2,4.58,14.58,14.58,0,0,1,1.48,6.67,1.65,1.65,0,0,1-.47,1.23,1.78,1.78,0,0,1-1.25.45H336.46v-3.07h20.77l-2.06,1.49a11,11,0,0,0-1-5,8.15,8.15,0,0,0-3-3.45,8.31,8.31,0,0,0-4.63-1.25,8.89,8.89,0,0,0-4.8,1.29,8.8,8.8,0,0,0-3.19,3.58,11.59,11.59,0,0,0-1.12,5.2,10.33,10.33,0,0,0,1.27,5.18,9.34,9.34,0,0,0,3.48,3.55,9.77,9.77,0,0,0,5.08,1.3,10.71,10.71,0,0,0,3.48-.6,8.46,8.46,0,0,0,2.81-1.51,2,2,0,0,1,1.2-.46,1.76,1.76,0,0,1,1.15.36,1.83,1.83,0,0,1,.65,1.25,1.39,1.39,0,0,1-.56,1.15,12.76,12.76,0,0,1-4,2.23A13.77,13.77,0,0,1,347.25,330.52Z"/><path class="cls-2" d="M364.14,319a1.8,1.8,0,0,1-1.3-.53,1.77,1.77,0,0,1-.52-1.3,1.82,1.82,0,0,1,.52-1.34,1.8,1.8,0,0,1,1.3-.53h11.27a1.85,1.85,0,0,1,1.35.53,1.82,1.82,0,0,1,.53,1.34,1.78,1.78,0,0,1-.53,1.3,1.85,1.85,0,0,1-1.35.53Z"/><path class="cls-2" d="M396.86,330.52a13.26,13.26,0,0,1-6.74-1.73,12.8,12.8,0,0,1-4.75-4.72,13.44,13.44,0,0,1-1.8-6.74V294.68a1.73,1.73,0,0,1,1.87-1.87,1.82,1.82,0,0,1,1.32.5,1.85,1.85,0,0,1,.5,1.37v14.11a11.57,11.57,0,0,1,4.2-3.62,12.29,12.29,0,0,1,5.83-1.37,12.62,12.62,0,0,1,6.62,1.75,12.85,12.85,0,0,1,4.63,4.77,13.61,13.61,0,0,1,1.7,6.81,13.45,13.45,0,0,1-1.75,6.87,13,13,0,0,1-4.77,4.77A13.41,13.41,0,0,1,396.86,330.52Zm0-3.36a9.52,9.52,0,0,0,8.47-4.89,11,11,0,0,0,0-10.24,9.35,9.35,0,0,0-3.48-3.58,9.71,9.71,0,0,0-5-1.29,9.61,9.61,0,0,0-4.94,1.29,9.16,9.16,0,0,0-3.46,3.58,11.19,11.19,0,0,0,0,10.24,9.45,9.45,0,0,0,8.4,4.89Z"/><path class="cls-2" d="M428.91,330.57a12.8,12.8,0,0,1-6.1-1.42,10.33,10.33,0,0,1-4.24-4.15,13.24,13.24,0,0,1-1.56-6.67V305.86a1.81,1.81,0,0,1,1.82-1.82,1.79,1.79,0,0,1,1.34.53,1.72,1.72,0,0,1,.53,1.29v12.47a9.58,9.58,0,0,0,1.13,4.9,7.16,7.16,0,0,0,3.07,2.88,9.77,9.77,0,0,0,4.39,1,9.6,9.6,0,0,0,4.24-.92,7.46,7.46,0,0,0,3-2.49,6.14,6.14,0,0,0,1.11-3.6h2.64a10.72,10.72,0,0,1-5.71,9.14A11.81,11.81,0,0,1,428.91,330.57Zm10.55-.29a1.82,1.82,0,0,1-1.32-.5,1.89,1.89,0,0,1-.5-1.37V305.86a1.72,1.72,0,0,1,1.82-1.82,1.88,1.88,0,0,1,1.34.5,1.76,1.76,0,0,1,.53,1.32v22.55a1.83,1.83,0,0,1-.53,1.37A1.88,1.88,0,0,1,439.46,330.28Z"/><path class="cls-2" d="M459.13,330.52a17.05,17.05,0,0,1-5.61-1,10.52,10.52,0,0,1-4.51-2.88,1.48,1.48,0,0,1-.43-1.29,1.91,1.91,0,0,1,.72-1.25,1.86,1.86,0,0,1,1.39-.38,1.9,1.9,0,0,1,1.2.62,7.36,7.36,0,0,0,3,2.06,11.79,11.79,0,0,0,4.2.72q3.56,0,5.13-1.22A3.8,3.8,0,0,0,465.9,323a3.39,3.39,0,0,0-1.64-2.86,13.87,13.87,0,0,0-5.37-1.75q-4.84-.76-7.1-2.68a5.83,5.83,0,0,1-2.26-4.56,6.39,6.39,0,0,1,1.3-4.08,7.89,7.89,0,0,1,3.45-2.45,13.46,13.46,0,0,1,4.75-.81,13,13,0,0,1,5.55,1.1,10.15,10.15,0,0,1,3.76,3,1.68,1.68,0,0,1,.39,1.29,1.57,1.57,0,0,1-.77,1.1,1.91,1.91,0,0,1-1.32.22,2.1,2.1,0,0,1-1.27-.7,7.33,7.33,0,0,0-2.79-2,9.38,9.38,0,0,0-3.64-.65,7.35,7.35,0,0,0-4.22,1.08,3.2,3.2,0,0,0-1,4.63,4.94,4.94,0,0,0,2.07,1.44,18.86,18.86,0,0,0,4.1,1.05,18.08,18.08,0,0,1,5.68,1.71,7.43,7.43,0,0,1,3,2.63,6.62,6.62,0,0,1-.43,7.25,8.73,8.73,0,0,1-3.65,2.66A13.92,13.92,0,0,1,459.13,330.52Z"/><path class="cls-2" d="M478.42,299.05a2.5,2.5,0,0,1-1.83-.77,2.54,2.54,0,0,1-.77-1.87,2.41,2.41,0,0,1,.8-1.9,2.7,2.7,0,0,1,1.84-.69,2.65,2.65,0,0,1,1.8.69,2.4,2.4,0,0,1,.79,1.9,2.53,2.53,0,0,1-.76,1.87A2.58,2.58,0,0,1,478.42,299.05Zm0,31.23a1.74,1.74,0,0,1-1.87-1.87v-22.5a1.74,1.74,0,0,1,1.87-1.87,1.79,1.79,0,0,1,1.32.5,1.84,1.84,0,0,1,.51,1.37v22.5a1.86,1.86,0,0,1-.51,1.37A1.79,1.79,0,0,1,478.46,330.28Z"/><path class="cls-2" d="M491.56,330.28a1.88,1.88,0,0,1-1.37-.5,1.82,1.82,0,0,1-.5-1.32V305.91a1.73,1.73,0,0,1,1.87-1.87,1.72,1.72,0,0,1,1.82,1.87v22.55a1.78,1.78,0,0,1-.5,1.32A1.82,1.82,0,0,1,491.56,330.28Zm20.63,0a1.79,1.79,0,0,1-1.34-.53,1.72,1.72,0,0,1-.53-1.29V316a9.56,9.56,0,0,0-1.13-4.89,7.16,7.16,0,0,0-3.07-2.88,10.43,10.43,0,0,0-8.63,0,7.48,7.48,0,0,0-3,2.5,6.09,6.09,0,0,0-1.11,3.6h-2.64a10.34,10.34,0,0,1,1.64-5.4,10.93,10.93,0,0,1,4.07-3.74,11.81,11.81,0,0,1,5.66-1.37,12.8,12.8,0,0,1,6.1,1.42,10.36,10.36,0,0,1,4.24,4.14A13.3,13.3,0,0,1,514,316v12.48a1.79,1.79,0,0,1-1.82,1.82Z"/><path class="cls-2" d="M534.07,330.52a13.77,13.77,0,0,1-6.89-1.7,12.21,12.21,0,0,1-4.7-4.73,13.77,13.77,0,0,1-1.7-6.91,14.47,14.47,0,0,1,1.6-6.93,12,12,0,0,1,11-6.45,11.94,11.94,0,0,1,6.35,1.65,11.2,11.2,0,0,1,4.2,4.58,14.58,14.58,0,0,1,1.49,6.67,1.62,1.62,0,0,1-.48,1.23,1.76,1.76,0,0,1-1.25.45H523.27v-3.07H544L542,316.8a10.9,10.9,0,0,0-1-5,8.19,8.19,0,0,0-3-3.45,8.33,8.33,0,0,0-4.63-1.25,8.84,8.84,0,0,0-4.8,1.29,8.66,8.66,0,0,0-3.19,3.58,11.59,11.59,0,0,0-1.13,5.2,10.33,10.33,0,0,0,1.27,5.18,9.34,9.34,0,0,0,3.48,3.55,9.81,9.81,0,0,0,5.09,1.3,10.6,10.6,0,0,0,3.47-.6,8.36,8.36,0,0,0,2.81-1.51,2,2,0,0,1,1.2-.46,1.74,1.74,0,0,1,1.15.36,1.79,1.79,0,0,1,.65,1.25,1.4,1.4,0,0,1-.55,1.15,13,13,0,0,1-4,2.23A13.82,13.82,0,0,1,534.07,330.52Z"/><path class="cls-2" d="M560.79,330.52a17.05,17.05,0,0,1-5.61-1,10.52,10.52,0,0,1-4.51-2.88,1.52,1.52,0,0,1-.44-1.29,2,2,0,0,1,.72-1.25,1.87,1.87,0,0,1,1.39-.38,1.9,1.9,0,0,1,1.2.62,7.46,7.46,0,0,0,3.05,2.06,11.71,11.71,0,0,0,4.2.72c2.36,0,4.08-.41,5.13-1.22a3.76,3.76,0,0,0,1.63-2.95,3.38,3.38,0,0,0-1.63-2.86,14,14,0,0,0-5.37-1.75q-4.84-.76-7.1-2.68a5.8,5.8,0,0,1-2.26-4.56,6.33,6.33,0,0,1,1.3-4.08,7.83,7.83,0,0,1,3.45-2.45,13.46,13.46,0,0,1,4.75-.81,12.91,12.91,0,0,1,5.54,1.1,10.19,10.19,0,0,1,3.77,3,1.63,1.63,0,0,1,.38,1.29,1.53,1.53,0,0,1-.76,1.1,1.91,1.91,0,0,1-1.32.22,2.16,2.16,0,0,1-1.28-.7,7.22,7.22,0,0,0-2.78-2,9.38,9.38,0,0,0-3.64-.65,7.41,7.41,0,0,0-4.23,1.08,3.2,3.2,0,0,0-1,4.63,5,5,0,0,0,2.06,1.44,19.13,19.13,0,0,0,4.11,1.05,18.17,18.17,0,0,1,5.68,1.71,7.5,7.5,0,0,1,3,2.63,6.41,6.41,0,0,1,.88,3.29,6.3,6.3,0,0,1-1.32,4,8.7,8.7,0,0,1-3.64,2.66A14,14,0,0,1,560.79,330.52Z"/><path class="cls-2" d="M586.65,330.52a17.16,17.16,0,0,1-5.62-1,10.64,10.64,0,0,1-4.51-2.88,1.54,1.54,0,0,1-.43-1.29,2,2,0,0,1,.72-1.25,1.87,1.87,0,0,1,1.39-.38,1.9,1.9,0,0,1,1.2.62,7.46,7.46,0,0,0,3.05,2.06,11.71,11.71,0,0,0,4.2.72c2.36,0,4.08-.41,5.13-1.22a3.76,3.76,0,0,0,1.63-2.95,3.38,3.38,0,0,0-1.63-2.86,14,14,0,0,0-5.37-1.75q-4.85-.76-7.1-2.68a5.8,5.8,0,0,1-2.26-4.56,6.33,6.33,0,0,1,1.3-4.08,7.83,7.83,0,0,1,3.45-2.45,13.42,13.42,0,0,1,4.75-.81,12.91,12.91,0,0,1,5.54,1.1,10.19,10.19,0,0,1,3.77,3,1.63,1.63,0,0,1,.38,1.29,1.52,1.52,0,0,1-.77,1.1,1.89,1.89,0,0,1-1.32.22,2.13,2.13,0,0,1-1.27-.7,7.29,7.29,0,0,0-2.78-2,9.4,9.4,0,0,0-3.65-.65,7.4,7.4,0,0,0-4.22,1.08,3.2,3.2,0,0,0-1,4.63,5,5,0,0,0,2.06,1.44,19,19,0,0,0,4.1,1.05A18.15,18.15,0,0,1,593.1,317a7.4,7.4,0,0,1,3,2.63,6.57,6.57,0,0,1-.43,7.25,8.7,8.7,0,0,1-3.64,2.66A14,14,0,0,1,586.65,330.52Z"/><path class="cls-1" d="M622.44,341.51a1.83,1.83,0,0,1-1.32-.53,1.76,1.76,0,0,1-.55-1.34v-45a1.88,1.88,0,0,1,3.21-1.32,1.86,1.86,0,0,1,.53,1.32v45a1.81,1.81,0,0,1-1.87,1.87Z"/><path class="cls-3" d="M648.53,308.21a1.66,1.66,0,0,1-1.19-.45,1.5,1.5,0,0,1-.48-1.13,1.57,1.57,0,0,1,.48-1.18,1.66,1.66,0,0,1,1.19-.45h12.24a1.69,1.69,0,0,1,1.2.45,1.57,1.57,0,0,1,.48,1.18,1.5,1.5,0,0,1-.48,1.13,1.69,1.69,0,0,1-1.2.45Zm12,22.07a8.54,8.54,0,0,1-7.68-4.49,9.79,9.79,0,0,1-1.15-4.77V297.56a1.85,1.85,0,0,1,.51-1.34,1.73,1.73,0,0,1,1.32-.53,1.81,1.81,0,0,1,1.87,1.87V321a5.68,5.68,0,0,0,1.44,4,4.8,4.8,0,0,0,3.69,1.56h1.3a1.59,1.59,0,0,1,1.24.52,1.94,1.94,0,0,1,.48,1.35,1.69,1.69,0,0,1-.57,1.32,2.16,2.16,0,0,1-1.44.5Z"/><path class="cls-3" d="M681.45,330.52a13.58,13.58,0,0,1-6.86-1.73,12.46,12.46,0,0,1-4.75-4.75,14.57,14.57,0,0,1,0-13.77,12.6,12.6,0,0,1,4.75-4.75,14.48,14.48,0,0,1,13.69,0,12.69,12.69,0,0,1,4.73,4.75,14,14,0,0,1,1.77,6.91A13.39,13.39,0,0,1,693,324a12.74,12.74,0,0,1-4.75,4.75A13.46,13.46,0,0,1,681.45,330.52Zm0-3.36a9.74,9.74,0,0,0,5-1.29,9.26,9.26,0,0,0,3.45-3.55,11.21,11.21,0,0,0,0-10.29,9.14,9.14,0,0,0-3.45-3.58,10.3,10.3,0,0,0-10,0A9.28,9.28,0,0,0,673,312a11.06,11.06,0,0,0,0,10.29,9.41,9.41,0,0,0,3.48,3.55A9.69,9.69,0,0,0,681.45,327.16Z"/><path class="cls-3" d="M713.92,330.52a13.6,13.6,0,0,1-6.86-1.73,12.6,12.6,0,0,1-4.75-4.75,14.64,14.64,0,0,1,0-13.77,12.74,12.74,0,0,1,4.75-4.75,14.5,14.5,0,0,1,13.7,0,12.69,12.69,0,0,1,4.73,4.75,14,14,0,0,1,1.77,6.91,13.39,13.39,0,0,1-1.75,6.86,12.74,12.74,0,0,1-4.75,4.75A13.48,13.48,0,0,1,713.92,330.52Zm0-3.36a9.69,9.69,0,0,0,5-1.29,9.29,9.29,0,0,0,3.46-3.55,11.21,11.21,0,0,0,0-10.29,9.16,9.16,0,0,0-3.46-3.58,10.28,10.28,0,0,0-10,0,9.21,9.21,0,0,0-3.48,3.58,11.06,11.06,0,0,0,0,10.29,9.34,9.34,0,0,0,3.48,3.55A9.68,9.68,0,0,0,713.92,327.16Z"/><path class="cls-3" d="M740.12,330.28a5.81,5.81,0,0,1-3.43-1.06,6.86,6.86,0,0,1-2.35-2.92,10.47,10.47,0,0,1-.84-4.32V294.63a1.87,1.87,0,0,1,3.14-1.32,1.78,1.78,0,0,1,.5,1.32V322a6.06,6.06,0,0,0,.84,3.36,2.48,2.48,0,0,0,2.14,1.29h1.2a1.43,1.43,0,0,1,1.15.51,1.93,1.93,0,0,1,.43,1.32,1.65,1.65,0,0,1-.6,1.32,2.37,2.37,0,0,1-1.56.5Z"/><path class="cls-3" d="M757.15,330.52a17.05,17.05,0,0,1-5.61-1,10.52,10.52,0,0,1-4.51-2.88,1.48,1.48,0,0,1-.43-1.29,1.91,1.91,0,0,1,.72-1.25,1.86,1.86,0,0,1,1.39-.38,1.9,1.9,0,0,1,1.2.62,7.36,7.36,0,0,0,3,2.06,11.75,11.75,0,0,0,4.2.72q3.55,0,5.13-1.22a3.76,3.76,0,0,0,1.63-2.95,3.38,3.38,0,0,0-1.63-2.86,13.93,13.93,0,0,0-5.37-1.75q-4.85-.76-7.1-2.68a5.83,5.83,0,0,1-2.26-4.56,6.39,6.39,0,0,1,1.3-4.08,7.83,7.83,0,0,1,3.45-2.45,13.46,13.46,0,0,1,4.75-.81,13,13,0,0,1,5.55,1.1,10.15,10.15,0,0,1,3.76,3,1.63,1.63,0,0,1,.38,1.29,1.53,1.53,0,0,1-.76,1.1,1.91,1.91,0,0,1-1.32.22,2.1,2.1,0,0,1-1.27-.7,7.33,7.33,0,0,0-2.79-2,9.38,9.38,0,0,0-3.64-.65,7.35,7.35,0,0,0-4.22,1.08,3.2,3.2,0,0,0-1,4.63,4.94,4.94,0,0,0,2.07,1.44,18.86,18.86,0,0,0,4.1,1.05A18.08,18.08,0,0,1,763.6,317a7.5,7.5,0,0,1,3,2.63,6.62,6.62,0,0,1-.43,7.25,8.73,8.73,0,0,1-3.65,2.66A14,14,0,0,1,757.15,330.52Z"/><path d="M423,93.37q-69.51,0-82.33,73.46l-5.91,34.51a139.06,139.06,0,0,0-2,22.43q0,21.43,9.12,34Q355.47,276,391.09,276t55.71-18.48q20.08-18.5,26.5-56.2l5.91-34.51a127.61,127.61,0,0,0,2-21.2Q481.18,93.37,423,93.37Zm-6.41,38.21q18.33,0,19.61,19.17l-54,32.73,2.85-15.67Q391.46,132.08,416.6,131.58Zm1.11,98.1q-7.75,8.15-20.09,8.14-18.72,0-19.88-19.09L431.68,186l-2.51,14.37Q425.48,221.55,417.71,229.68Z"/><path d="M573.86,93.37q-69.51,0-82.32,73.46l-5.92,34.51a139.06,139.06,0,0,0-2,22.43q0,21.43,9.12,34Q506.32,276,541.94,276t55.71-18.48q20.08-18.5,26.5-56.2l5.91-34.51a126.55,126.55,0,0,0,2-21.2Q632,93.37,573.86,93.37Zm-6.41,38.21q18.84,0,19.67,20.25l-54.13,32,2.91-16Q542.32,132.08,567.45,131.58Zm1.11,98.1q-7.75,8.15-20.08,8.14-18,0-19.75-17.6l53.34-31.6-2,11.73Q576.32,221.55,568.56,229.68Z"/><path d="M193,327.16A116.9,116.9,0,1,1,309.89,210.27,117,117,0,0,1,193,327.16Zm0-210.41a93.52,93.52,0,1,0,93.52,93.52A93.62,93.62,0,0,0,193,116.75Z"/><path d="M232.49,174.71c-40,0-40.46,36.49-52.15,57.93s-54.56,7.79-54.56,7.79c38.49,32.63,67.75-9.7,67.75-9.7,3.4,8.28,16.56,23.37,36.53,23.37,36.06-1.5,36-39,36-39S268.05,174.71,232.49,174.71Zm-1,69.61c-27.77,0-35.07-21.91-35.07-21.91s9.6-37.51,36-37.51,23.86,30.66,23.86,30.66S257.81,244.32,231.48,244.32Z"/><path class="cls-1" d="M149.22,249.37c40,0,39.08-33.41,52.15-54,16.16-30.53,52.6-13.63,52.6-13.63-36.47-30-61.89,11.65-61.89,11.65-3.41-8.28-20.46-23.38-40.43-23.38-36.06,1.5-36,39-36,39S113.66,249.37,149.22,249.37Zm1-67.66c27.76,0,35.06,20,35.06,20s-7.65,39.47-34.09,39.47-25.81-32.62-25.81-32.62S123.89,181.71,150.23,181.71Z"/></g></svg>