<svg id="Layer_1" data-name="Layer 1" xmlns="http://www.w3.org/2000/svg" xmlns:xlink="http://www.w3.org/1999/xlink" viewBox="0 0 1128.57 919.62"><defs><style>.cls-1{fill:none;}.cls-2{fill:#171717;}.cls-2,.cls-3{fill-rule:evenodd;}.cls-3{fill:#f15722;}.cls-4{clip-path:url(#clip-path);}.cls-5{fill:url(#Gradiente_sem_nome_2);}</style><clipPath id="clip-path" transform="translate(-33.71 -57.39)"><path class="cls-1" d="M468,317.44a130,130,0,1,0,130-130,130,130,0,0,0-130,130"/></clipPath><linearGradient id="Gradiente_sem_nome_2" x1="453.56" y1="745.45" x2="459.94" y2="745.45" gradientTransform="matrix(0, 40.77, 40.77, 0, -29793.37, -18303.89)" gradientUnits="userSpaceOnUse"><stop offset="0" stop-color="#f47920"/><stop offset="0.99" stop-color="#e54125"/><stop offset="1" stop-color="#e54125"/></linearGradient></defs><title>commerce-color-vertical</title><path class="cls-2" d="M105.33,786.69c25.52,0,42-10.08,57.22-25.1l-7.2-7C140.73,769,126.53,777,105.74,777c-34.36,0-60.91-28.4-60.91-64.83v-.4c0-36.23,26.14-64.42,60.71-64.42,21.6,0,36,9,48.57,21.19l7.61-7.82c-14.81-13.58-30.25-23-56-23-41.57,0-72,33.74-72,74.49v.41c0,41.37,30.46,74.09,71.62,74.09m134.12,0c43.63,0,72.65-35.19,72.65-74.5.2-.2.2-.2,0-.4,0-39.32-28.61-74.09-72.24-74.09s-72.64,35.19-72.64,74.49v.41c0,39.32,28.6,74.09,72.23,74.09m.41-9.67c-35.6,0-61.53-29.22-61.53-64.83v-.4c0-35.61,25.52-64.42,61.12-64.42S301,676.59,301,712.19v.41c0,35.61-25.52,64.42-61.12,64.42m94.4,7.2h10.29V659.1l57,82.93h.83l57-82.93V784.22h10.7V640.16H460l-57.83,85.2-57.83-85.2H334.26Zm164.37,0h10.29V659.1l57,82.93h.83l57-82.93V784.22h10.71V640.16H624.37l-57.83,85.2-57.82-85.2H498.63Zm164.37,0H766.52v-9.88H673.71V716.52h82.51v-9.88H673.71V650h91.78v-9.88H663Zm123.62,0h10.71V724.54h47.12l45.9,59.68h13.58l-47.55-61.53c24.29-3.29,42.2-17.08,42.2-41.16v-.41a38,38,0,0,0-10.91-26.76c-8.64-8.64-22.84-14.2-40.54-14.2H786.62Zm10.71-69.35V650h49.19c26.12,0,41.36,12.14,41.36,31.49v.41c0,20.79-17.91,32.93-42,32.93Zm189.06,71.82c25.52,0,42-10.08,57.21-25.1l-7.2-7C1021.79,769,1007.59,777,986.8,777c-34.36,0-60.91-28.4-60.91-64.83v-.4c0-36.23,26.14-64.42,60.71-64.42,21.61,0,36,9,48.56,21.19l7.62-7.82c-14.81-13.58-30.25-23-56-23-41.57,0-72,33.74-72,74.49v.41c0,41.37,30.45,74.09,71.61,74.09m72.38-2.47h103.52v-9.88h-92.82V716.52H1152v-9.88h-82.53V650h91.78v-9.88H1058.77Z" transform="translate(-33.71 -57.39)"/><path class="cls-3" d="M359.16,974.75h31.7V931.53h24.07c32.32,0,58.25-17.29,58.25-50.63v-.41c0-29.43-20.79-49.8-55.16-49.8H359.16Zm31.7-71.41V859.29h24.49c15.84,0,25.72,7.61,25.72,21.82v.41c0,12.35-9.27,21.82-25.11,21.82Zm91.51,71.41H585.89V945.94H514.06V830.69H482.37ZM651.48,977c38.69,0,63.19-21.4,63.19-65V830.69H683v82.52c0,22.85-11.72,34.58-31.07,34.58s-31.08-12.14-31.08-35.6v-81.5H589.12V913c0,42.39,23.67,64,62.36,64M784,976.8c31.07,0,52.89-16,52.89-44.66v-.4c0-25.11-16.47-35.6-45.69-43.22-24.9-6.38-31.07-9.47-31.07-18.94v-.41c0-7,6.37-12.55,18.52-12.55s24.69,5.35,37.45,14.2L832.52,847C817.91,835.22,800,828.63,779,828.63c-29.43,0-50.42,17.29-50.42,43.43v.41c0,28.6,18.73,36.63,47.75,44,24.07,6.18,29,10.28,29,18.31v.41c0,8.44-7.82,13.58-20.78,13.58-16.46,0-30.05-6.78-43-17.49l-18.73,22.44a91.69,91.69,0,0,0,61.12,23" transform="translate(-33.71 -57.39)"/><g class="cls-4"><rect class="cls-5" x="414.12" y="133.56" width="367.78" height="367.78" transform="translate(-83.03 458.44) rotate(-45)"/></g><path class="cls-2" d="M546.57,295.14c-17.87,0-31.71,17.23-25.82,36,3.55,11.3,14.79,18.42,26.63,18.42h25.27a9.39,9.39,0,0,1,9.39,9.38v23.18a25.85,25.85,0,1,0,51.7,0V358.91a9.38,9.38,0,0,1,9.39-9.38h31.3a13,13,0,0,1,12.66,15.79c-.82,3.65-1.66,7.4-2.51,11.15-2.3,10.08-4.7,20.52-6.84,29.67a28.75,28.75,0,0,1-28,22.23H546.12a27.49,27.49,0,0,1-26-18.61l-.09-.29c-11.39-33.24-32-93.5-40.2-112.8-10.11-23.89-21.82-40.2-38.32-51.16s-35.88-15.29-61.29-15.22c-12.24,0-17.35.23-22,.41-2.49.1-4.77.19-12.15.2-13.39,0-25.84,9-28.2,22.18a27.23,27.23,0,0,0,26.75,32.21c5.3,0,10.25-.2,15.73-.42,4.68-.18,9.88-.39,19.84-.41,14.47,0,24.48,1.75,31.34,6.3s12.55,13.23,18.35,26.94c6.85,16.19,27.38,76.13,38.7,109.19,2.87,8.35,5,14.55,7.52,21.62,3.86,10.74,9.83,18.63,16.93,24.18a46.79,46.79,0,0,0,29.25,10.07H673.36c12.16,0,22.4-2.23,32-9.11s15.84-16.62,19.55-31.28c1.88-7.39,7.3-30.7,12.59-54,4.78-21,10.36-44.55,11.68-51.36,3-29.48-19-41.86-37.67-41.86H643.13a9.38,9.38,0,0,1-9.39-9.38V256.13a25.85,25.85,0,1,0-51.7,0v29.63a9.38,9.38,0,0,1-9.39,9.38Zm2.86,194.1A32.62,32.62,0,1,0,582,521.84a32.65,32.65,0,0,0-32.61-32.6m116.91,0a32.62,32.62,0,1,0,32.6,32.6,32.64,32.64,0,0,0-32.6-32.6m7.15-59.73.29.07-.11.08a1.67,1.67,0,0,1-.31.2v-.24l.06-.09Zm0,0c.43-.14.71-.25.29.07Zm-.13.35c-.2.13-.13,0,0-.24Z" transform="translate(-33.71 -57.39)"/></svg>