<!DOCTYPE svg PUBLIC "-//W3C//DTD SVG 20010904//EN" "http://www.w3.org/TR/2001/REC-SVG-20010904/DTD/svg10.dtd">
<svg version="1.0" xmlns="http://www.w3.org/2000/svg" width="400px" height="230px" viewBox="0 0 4000 2300" preserveAspectRatio="xMidYMid meet">
	<g id="layer1" fill="#000000" stroke="none">
		<path d="M1217 2169 c-90 -21 -183 -92 -222 -169 -59 -115 -57 -231 5 -475 70 -273 66 -423 -15 -494 -42 -37 -93 -48 -148 -31 -72 21 -117 81 -117 155 0 25 -8 40 -31 59 -40 34 -64 33 -101 -5 -28 -28 -30 -34 -25 -79 10 -80 44 -145 108 -204 74 -68 134 -90 230 -84 80 6 134 34 198 103 65 71 84 122 89 248 5 125 -3 173 -61 382 -62 225 -56 348 20 417 74 67 241 83 348 34 141 -64 215 -201 215 -395 0 -154 -33 -285 -137 -551 -96 -246 -115 -313 -115 -425 -1 -146 53 -276 162 -385 139 -139 329 -192 514 -144 182 47 337 201 392 389 20 69 22 195 5 270 -12 49 -75 224 -146 400 -81 203 -116 449 -82 582 34 132 96 211 202 259 107 49 274 33 348 -34 45 -40 62 -92 60 -187 0 -50 -8 -114 -17 -145 -96 -328 -112 -495 -57 -622 25 -58 90 -131 148 -165 58 -34 149 -41 225 -19 109 31 211 155 225 274 5 47 3 53 -25 81 -17 17 -40 31 -52 31 -32 0 -80 -53 -80 -88 0 -134 -164 -209 -265 -121 -81 71 -85 221 -15 494 48 187 58 278 41 367 -24 121 -90 206 -199 256 -75 34 -226 42 -322 18 -132 -34 -234 -122 -299 -259 -52 -108 -65 -180 -58 -325 7 -152 42 -289 137 -531 82 -210 110 -310 110 -390 0 -160 -90 -305 -226 -368 -248 -113 -528 19 -583 275 -25 118 -7 215 83 440 116 291 156 450 156 620 0 205 -73 365 -211 467 -83 61 -165 85 -283 84 -50 -1 -108 -5 -129 -10z"/>
		<path d="M247 1966 c-72 -27 -140 -93 -172 -169 -9 -21 -15 -66 -15 -109 0 -96 28 -156 104 -225 74 -68 136 -88 250 -80 142 10 234 53 432 201 l105 79 -7 61 c-3 33 -11 66 -18 73 -8 9 -38 -8 -121 -68 -60 -44 -136 -96 -168 -115 -216 -128 -417 -91 -417 76 0 80 47 129 122 127 76 -2 113 73 65 129 -28 32 -101 42 -160 20z"/>
		<path d="M3618 1964 c-80 -43 -51 -149 40 -147 75 2 122 -47 122 -129 0 -168 -199 -203 -419 -72 -31 18 -105 68 -166 112 -82 60 -113 77 -121 68 -7 -6 -15 -38 -18 -72 l-7 -61 123 -92 c185 -138 307 -191 444 -191 90 0 157 25 221 83 74 69 95 113 101 214 4 75 2 88 -22 137 -60 122 -211 198 -298 150z"/>
	</g>
	
	<g id="layer2" fill="#ffffff" stroke="none">
		<path d="M0 1150 l0 -1150 2000 0 2000 0 0 1150 0 1150 -2000 0 -2000 0 0 -1150z m1502 990 c122 -37 220 -132 275 -265 31 -74 43 -145 43 -250 0 -167 -41 -329 -156 -617 -63 -158 -94 -270 -94 -339 0 -216 151 -395 364 -432 254 -43 495 163 496 424 0 80 -28 180 -110 390 -95 242 -130 379 -137 531 -7 145 6 217 57 324 88 184 226 262 445 252 196 -9 303 -94 335 -266 18 -91 8 -180 -42 -372 -38 -146 -42 -178 -43 -280 0 -100 3 -121 23 -161 26 -53 82 -97 135 -106 96 -15 207 80 207 178 0 34 31 69 60 69 11 0 30 -10 41 -21 18 -18 21 -29 15 -72 -30 -254 -341 -359 -506 -171 -111 127 -110 309 6 704 9 31 17 95 17 145 1 74 -2 97 -20 130 -50 94 -134 138 -263 138 -72 0 -95 -4 -145 -27 -111 -50 -188 -147 -222 -279 -34 -133 1 -379 82 -582 71 -176 134 -351 146 -400 17 -75 15 -201 -5 -270 -68 -234 -267 -385 -508 -385 -291 0 -522 233 -520 525 0 112 19 179 115 425 104 266 137 397 137 551 0 197 -85 347 -235 415 -80 37 -204 39 -280 5 -158 -70 -186 -192 -108 -476 58 -209 66 -257 61 -382 -5 -121 -23 -173 -78 -237 -76 -86 -198 -118 -308 -82 -104 35 -185 139 -199 255 -5 41 -2 52 16 70 40 40 101 14 101 -43 0 -107 112 -201 215 -182 54 10 120 75 141 138 26 80 15 218 -36 413 -62 244 -64 359 -5 476 36 70 114 127 202 148 72 17 216 12 285 -9z m-1105 -206 c17 -24 17 -69 -2 -84 -8 -7 -34 -13 -58 -14 -80 -2 -137 -64 -137 -146 0 -61 28 -109 84 -144 40 -25 57 -29 109 -29 117 2 211 46 412 191 l110 80 8 -60 c7 -52 5 -62 -10 -73 -10 -8 -53 -40 -95 -72 -163 -123 -271 -172 -404 -180 -147 -10 -257 48 -310 162 -35 75 -34 184 4 255 30 59 80 104 138 126 51 19 133 13 151 -12z m3352 10 c65 -19 130 -81 156 -147 24 -63 17 -185 -13 -243 -84 -163 -302 -200 -527 -89 -73 36 -283 186 -290 208 -2 6 -1 35 3 63 l7 51 110 -79 c61 -44 135 -94 166 -112 224 -133 425 -95 436 82 6 92 -47 155 -134 158 -52 2 -73 17 -73 53 1 66 57 86 159 55z"/>
</g>
</svg>