<?xml version="1.0" standalone="no"?>
<!DOCTYPE svg PUBLIC "-//W3C//DTD SVG 20010904//EN"
 "http://www.w3.org/TR/2001/REC-SVG-20010904/DTD/svg10.dtd">
<svg version="1.0" xmlns="http://www.w3.org/2000/svg"
 width="512.000000pt" height="198.000000pt" viewBox="0 0 512.000000 198.000000"
 preserveAspectRatio="xMidYMid meet">

<g transform="translate(0.000000,198.000000) scale(0.100000,-0.100000)"
fill="#000000" stroke="none">
<path d="M3824 1831 c-26 -11 -62 -56 -70 -87 -10 -38 8 -74 159 -312 79 -125
156 -246 170 -268 l26 -42 -171 -268 c-94 -148 -175 -282 -180 -297 -25 -68
33 -147 107 -147 45 0 5 -21 600 317 302 172 513 298 533 319 24 26 32 43 32
71 0 72 -19 88 -301 249 -145 83 -388 222 -539 309 -274 157 -319 176 -366
156z m295 -202 l228 -131 -95 -150 c-77 -121 -97 -147 -108 -136 -33 35 -314
493 -314 512 0 62 39 49 289 -95z m636 -366 c260 -149 265 -125 -68 -316 -163
-94 -264 -146 -275 -143 -9 3 -61 75 -115 161 -83 131 -96 157 -87 174 32 60
175 279 192 294 24 20 10 27 353 -170z m-464 -426 l57 -87 -67 -39 c-422 -244
-402 -234 -427 -222 -14 6 -24 19 -24 31 0 12 73 136 161 276 l162 256 40 -64
c23 -35 67 -102 98 -151z"/>
<path d="M199 1677 c-45 -35 -53 -114 -14 -152 34 -35 102 -35 142 -1 23 20
28 32 28 71 0 39 -5 51 -28 71 -31 27 -100 33 -128 11z"/>
<path d="M1055 1678 c-41 -24 -44 -37 -45 -207 l0 -163 -34 30 c-47 41 -98 57
-186 57 -161 -1 -270 -98 -301 -268 -24 -131 25 -272 119 -344 95 -72 235 -82
339 -23 l54 31 20 -24 c38 -49 126 -42 148 11 8 20 11 151 9 446 l-3 418 -28
24 c-30 26 -61 30 -92 12z m-127 -465 c91 -67 105 -193 31 -278 -77 -88 -233
-67 -283 38 -18 40 -21 122 -5 164 14 37 47 72 84 89 43 20 138 13 173 -13z"/>
<path d="M2623 1666 c-23 -20 -28 -32 -28 -69 0 -63 32 -97 91 -97 56 0 72 7
89 41 26 49 15 106 -24 136 -28 22 -97 16 -128 -11z"/>
<path d="M1554 1389 c-61 -14 -144 -68 -181 -117 -47 -62 -66 -137 -61 -236 6
-99 36 -165 104 -224 70 -63 139 -85 259 -86 171 -1 256 39 240 114 -10 45
-52 64 -108 49 -74 -20 -187 -16 -240 10 -43 21 -87 71 -87 100 0 8 58 11 201
11 l201 0 34 34 c25 25 34 43 34 68 0 101 -68 206 -164 253 -60 29 -165 40
-232 24z m161 -153 c35 -15 75 -67 75 -98 0 -16 -14 -18 -155 -18 -172 0 -173
1 -132 61 42 63 134 87 212 55z"/>
<path d="M2359 1388 c-20 -5 -51 -25 -69 -43 l-33 -34 -21 32 c-35 52 -114 50
-141 -3 -20 -39 -22 -520 -2 -560 26 -52 95 -62 137 -20 18 18 20 34 20 153 0
184 11 243 53 285 25 25 45 35 78 39 67 7 96 22 109 54 16 37 -1 82 -36 98
-29 13 -45 13 -95 -1z"/>
<path d="M3080 1384 c-121 -32 -175 -100 -168 -209 7 -107 60 -151 219 -181
106 -20 139 -37 139 -69 0 -38 -38 -56 -117 -56 -38 0 -90 5 -116 10 -55 13
-89 1 -106 -35 -13 -30 0 -67 31 -88 33 -22 162 -39 240 -33 68 6 146 34 182
65 49 44 70 149 42 215 -27 66 -94 102 -239 127 -80 15 -123 44 -113 77 12 37
56 47 176 39 102 -6 111 -5 130 14 25 25 26 74 1 99 -38 38 -202 51 -301 25z"/>
<path d="M212 1373 c-36 -14 -42 -56 -42 -312 0 -137 4 -261 10 -275 19 -51
94 -64 136 -25 l24 22 0 277 c0 276 0 277 -23 298 -22 21 -73 28 -105 15z"/>
<path d="M2632 1357 c-21 -23 -22 -30 -22 -298 l0 -276 24 -22 c42 -39 117
-26 136 25 6 14 10 138 10 275 0 304 -4 319 -94 319 -21 0 -40 -8 -54 -23z"/>
</g>
</svg>
