<svg id="Layer_1" data-name="Layer 1" xmlns="http://www.w3.org/2000/svg" viewBox="0 0 406 99"><defs><style>.cls-1{fill:#dadada;}.cls-2{fill:#fff;}.cls-3{fill:#3aaa35;}</style></defs><path class="cls-1" d="M96.08,80.49v-66h9.43V46.53l25.94-32.07h11.79l-25.94,33,25.94,33H131.45L105.51,48.42V80.49Z"/><path class="cls-1" d="M193.19,64q0,16.51-16.51,16.51H164.89q-16.5,0-16.5-16.51V31q0-16.51,16.5-16.51h11.79q16.51,0,16.51,16.51Zm-35.37,0q0,7.08,7.07,7.07h11.79q7.08,0,7.08-7.07V31q0-7.08-7.08-7.08H164.89q-7.06,0-7.07,7.08Z"/><path class="cls-1" d="M210.12,14.46l28.3,47.16V14.46h9.43v66h-9.43l-28.3-47.17V80.49h-9.43v-66Z"/><path class="cls-2" d="M264.79,64q0,7.08,7.07,7.07h21.22v9.44H271.86q-16.5,0-16.51-16.51V31q0-16.51,16.51-16.51h21.22v9.43H271.86q-7.07,0-7.07,7.08Z"/><path class="cls-2" d="M312,14.46v66h-9.43v-66Z"/><path class="cls-2" d="M332.75,71.05H361v9.44H323.31v-66h9.44Z"/><path class="cls-2" d="M378,14.46v66h-9.44v-66Z"/><polygon class="cls-3" points="56.03 48.55 56.03 48.55 77.4 69.91 77.4 81.05 44.4 48.55 77.4 16.04 77.4 27.53 56.03 48.55"/><polygon class="cls-3" points="32.35 48.55 32.35 48.55 53.72 69.91 53.72 81.05 20.72 48.55 53.72 16.04 53.72 27.53 32.35 48.55"/></svg>