<svg id="Layer_1" data-name="Layer 1" xmlns="http://www.w3.org/2000/svg" viewBox="0 0 397 97"><defs><style>.cls-1{fill:#1d1d1b;}.cls-2{fill:#3c3c3b;}.cls-3{fill:#3aaa35;}</style></defs><path class="cls-1" d="M87.08,84.49v-66h9.43V50.53l25.94-32.07h11.79l-25.94,33,25.94,33H122.45L96.51,52.42V84.49Z"/><path class="cls-1" d="M184.19,68q0,16.51-16.51,16.51H155.89q-16.5,0-16.5-16.51V35q0-16.51,16.5-16.51h11.79q16.51,0,16.51,16.51Zm-35.37,0q0,7.08,7.07,7.07h11.79q7.08,0,7.08-7.07V35q0-7.08-7.08-7.08H155.89q-7.06,0-7.07,7.08Z"/><path class="cls-1" d="M201.12,18.46l28.3,47.16V18.46h9.43v66h-9.43l-28.3-47.17V84.49h-9.43v-66Z"/><path class="cls-2" d="M255.79,68q0,7.08,7.07,7.07h21.22v9.44H262.86q-16.5,0-16.51-16.51V35q0-16.51,16.51-16.51h21.22v9.43H262.86q-7.07,0-7.07,7.08Z"/><path class="cls-2" d="M303,18.46v66h-9.43v-66Z"/><path class="cls-2" d="M323.75,75.05H352v9.44H314.31v-66h9.44Z"/><path class="cls-2" d="M369,18.46v66h-9.44v-66Z"/><polygon class="cls-3" points="47.03 52.55 47.03 52.55 68.4 73.91 68.4 85.05 35.4 52.55 68.4 20.04 68.4 31.53 47.03 52.55"/><polygon class="cls-3" points="23.35 52.55 23.35 52.55 44.72 73.91 44.72 85.05 11.72 52.55 44.72 20.04 44.72 31.53 23.35 52.55"/></svg>