<svg id="Layer_1" data-name="Layer 1" xmlns="http://www.w3.org/2000/svg" xmlns:xlink="http://www.w3.org/1999/xlink" viewBox="0 0 128 104.3"><defs><style>.cls-1{fill:none;}.cls-2{fill:#181818;}.cls-2,.cls-3{fill-rule:evenodd;}.cls-3{fill:#f15925;}.cls-4{clip-path:url(#clip-path);}.cls-5{fill:url(#linear-gradient);}</style><clipPath id="clip-path" transform="translate(0 -4.25)"><path class="cls-1" d="M49.26,33.74A14.74,14.74,0,1,0,64,19,14.74,14.74,0,0,0,49.26,33.74"/></clipPath><linearGradient id="linear-gradient" x1="444.74" y1="-611.68" x2="445.47" y2="-611.68" gradientTransform="translate(-24874.31 -18113.16) rotate(90) scale(40.77)" gradientUnits="userSpaceOnUse"><stop offset="0" stop-color="#f47a20"/><stop offset="0.99" stop-color="#e54226"/><stop offset="1" stop-color="#e54226"/></linearGradient></defs><g id="commerce_plus" data-name="commerce plus"><path class="cls-2" d="M8.12,87a8.61,8.61,0,0,0,6.49-2.85l-.81-.8a7.48,7.48,0,0,1-5.63,2.55,7,7,0,0,1-6.91-7.36v0a7,7,0,0,1,6.89-7.31,7.43,7.43,0,0,1,5.5,2.41l.87-.89a8.61,8.61,0,0,0-6.35-2.61A8.21,8.21,0,0,0,0,78.52v0A8.12,8.12,0,0,0,8.12,87m15.21,0a8.22,8.22,0,0,0,8.24-8.45s0,0,0,0a8.14,8.14,0,0,0-8.19-8.4,8.22,8.22,0,0,0-8.24,8.45v0A8.15,8.15,0,0,0,23.33,87m.05-1.1a7.07,7.07,0,0,1-7-7.35v0a7,7,0,0,1,6.93-7.3,7.07,7.07,0,0,1,7,7.35v0a7,7,0,0,1-6.93,7.31m10.71.82h1.17V72.49l6.46,9.41h.09l6.47-9.41v14.2h1.21V70.35H48.35L41.79,80l-6.56-9.66H34.09Zm18.64,0H53.9V72.49l6.46,9.41h.1l6.46-9.41v14.2h1.22V70.35H67L60.43,80l-6.56-9.66H52.73Zm18.64,0H83.11V85.56H72.59V79h9.35V77.89H72.59V71.46H83V70.34H71.37Zm14,0h1.22V79.92H92l5.21,6.77H98.7l-5.39-7c2.75-.38,4.78-1.94,4.78-4.67V75a4.3,4.3,0,0,0-1.23-3,6.45,6.45,0,0,0-4.6-1.61H85.39Zm1.22-7.87V71.46h5.58c3,0,4.69,1.38,4.69,3.57v0c0,2.36-2,3.74-4.76,3.74ZM108.05,87a8.61,8.61,0,0,0,6.49-2.85l-.82-.8a7.47,7.47,0,0,1-5.62,2.55,7,7,0,0,1-6.91-7.36v0a7,7,0,0,1,6.88-7.31,7.45,7.45,0,0,1,5.51,2.41l.87-.89a8.64,8.64,0,0,0-6.36-2.61,8.21,8.21,0,0,0-8.16,8.45v0A8.12,8.12,0,0,0,108.05,87m8.21-.28H128V85.57H117.47V79h9.36V77.89h-9.36V71.46h10.41V70.34H116.26Z" transform="translate(0 -4.25)"/><path class="cls-3" d="M36.91,108.3h3.6v-4.91h2.73c3.66,0,6.6-2,6.6-5.74V97.6c0-3.33-2.36-5.64-6.25-5.64H36.91Zm3.6-8.1v-5h2.77c1.8,0,2.92.86,2.92,2.47v0c0,1.4-1.05,2.48-2.85,2.48Zm10.37,8.1H62.63V105H54.48V92h-3.6Zm19.19.25c4.38,0,7.16-2.43,7.16-7.37V92H73.64v9.36c0,2.59-1.33,3.92-3.52,3.92s-3.53-1.38-3.53-4V92H63v9.33c0,4.81,2.69,7.26,7.08,7.26m15,0c3.52,0,6-1.82,6-5.07v0c0-2.85-1.86-4-5.18-4.91-2.82-.72-3.52-1.07-3.52-2.14v-.05c0-.79.72-1.42,2.1-1.42a7.62,7.62,0,0,1,4.25,1.61l1.86-2.7a9.42,9.42,0,0,0-6.07-2.09c-3.34,0-5.72,2-5.72,4.93v0c0,3.25,2.12,4.16,5.42,5,2.73.7,3.28,1.16,3.28,2.07v0c0,1-.88,1.54-2.35,1.54a7.47,7.47,0,0,1-4.88-2l-2.12,2.55a10.4,10.4,0,0,0,6.93,2.61" transform="translate(0 -4.25)"/><g class="cls-4"><rect class="cls-5" x="43.14" y="12.89" width="41.71" height="41.71" transform="translate(-5.12 50.89) rotate(-45)"/></g><path class="cls-2" d="M58.17,31.22a3.09,3.09,0,0,0-2.93,4.08,3.13,3.13,0,0,0,3,2.09h2.86a1.06,1.06,0,0,1,1.07,1.06v2.63a2.93,2.93,0,1,0,5.86,0V38.45a1.07,1.07,0,0,1,1.07-1.07h3.55a1.49,1.49,0,0,1,1.47,1.48,1.06,1.06,0,0,1,0,.31c-.09.42-.18.84-.28,1.27-.26,1.14-.53,2.33-.78,3.36a3.26,3.26,0,0,1-3.17,2.53H58.12a3.13,3.13,0,0,1-2.95-2.11v0c-1.3-3.77-3.63-10.6-4.56-12.79a12.22,12.22,0,0,0-4.35-5.8,11.88,11.88,0,0,0-7-1.73c-1.39,0-2,0-2.5.05-.28,0-.54,0-1.37,0a3.2,3.2,0,0,0-3.2,2.51,3.1,3.1,0,0,0,2.47,3.61,3.43,3.43,0,0,0,.56.05c.6,0,1.16,0,1.79-.05s1.12,0,2.25-.05a6.41,6.41,0,0,1,3.55.72,6.59,6.59,0,0,1,2.08,3.05c.78,1.84,3.11,8.64,4.39,12.39.33.94.57,1.65.85,2.45a6,6,0,0,0,1.92,2.74,5.28,5.28,0,0,0,3.32,1.14H72.55a5.52,5.52,0,0,0,5.84-4.58c.22-.83.83-3.48,1.43-6.12.54-2.38,1.18-5,1.33-5.83a4.09,4.09,0,0,0-4.28-4.74H69.12a1.07,1.07,0,0,1-1.07-1.07h0V26.79a2.93,2.93,0,1,0-5.86,0v3.36a1.07,1.07,0,0,1-1.06,1.07h-3Zm.32,22a3.7,3.7,0,1,0,3.69,3.7h0a3.7,3.7,0,0,0-3.69-3.7m13.26,0a3.7,3.7,0,1,0,3.69,3.7h0a3.7,3.7,0,0,0-3.69-3.7m.81-6.77h0l0,0v0h0Zm0,0s.08,0,0,0Zm0,0s0,0,0,0Z" transform="translate(0 -4.25)"/></g></svg>