<svg id="Layer_1" data-name="Layer 1" xmlns="http://www.w3.org/2000/svg" viewBox="0 0 128 68.33"><defs><style>.cls-1{fill:#010101;}</style></defs><g id="connect_hub" data-name="connect hub"><path class="cls-1" d="M38.17,97a11.79,11.79,0,0,1-7.32-5.57c-2-3.8-1.88-7.62.16-15.67,2.31-9,2.18-14-.49-16.3a4.88,4.88,0,0,0-4.88-1,5.2,5.2,0,0,0-3.86,5.12,2.24,2.24,0,0,1-1,1.94c-1.32,1.13-2.11,1.09-3.33-.16-.92-.92-1-1.12-.82-2.61a10.54,10.54,0,0,1,3.56-6.73,9,9,0,0,1,7.59-2.77c2.64.2,4.42,1.12,6.53,3.4s2.77,4,2.94,8.18-.1,5.71-2,12.6c-2,7.43-1.84,11.49.66,13.76s8,2.74,11.48,1.12c4.66-2.11,7.1-6.63,7.1-13,0-5.08-1.09-9.4-4.52-18.18-3.17-8.11-3.8-10.32-3.8-14A18.09,18.09,0,0,1,68.43,29.55,18.86,18.86,0,0,1,81.36,42.38a21.86,21.86,0,0,1,.17,8.91c-.4,1.62-2.48,7.39-4.82,13.2C74,71.19,72.88,79.3,74,83.69s3.17,7,6.67,8.54,9,1.09,11.48-1.12c1.48-1.32,2-3,2-6.17a21.25,21.25,0,0,0-.56-4.78c-3.17-10.82-3.7-16.33-1.88-20.52a13.57,13.57,0,0,1,4.88-5.45,10.1,10.1,0,0,1,7.42-.62c3.6,1,7,5.11,7.43,9,.16,1.55.1,1.75-.83,2.67a3.34,3.34,0,0,1-1.71,1c-1.06,0-2.64-1.75-2.64-2.9a5.34,5.34,0,0,0-8.75-4c-2.67,2.34-2.8,7.29-.49,16.3,1.58,6.16,1.91,9.17,1.35,12.1a11.13,11.13,0,0,1-6.56,8.45c-2.48,1.12-7.46,1.39-10.63.59a14.86,14.86,0,0,1-9.86-8.54c-1.72-3.56-2.15-5.94-1.92-10.72.23-5,1.39-9.54,4.52-17.52,2.71-6.93,3.63-10.23,3.63-12.87a13.34,13.34,0,0,0-7.45-12.14c-8.19-3.73-17.42.62-19.24,9.07C50,48,50.61,51.22,53.58,58.65c3.83,9.6,5.15,14.84,5.15,20.45,0,6.77-2.41,12.05-7,15.41a14.21,14.21,0,0,1-9.34,2.77A27.85,27.85,0,0,1,38.17,97Z" transform="translate(0 -28.98)"/><path class="cls-1" d="M6.17,90.25A10.53,10.53,0,0,1,.49,84.68,11.25,11.25,0,0,1,0,81.08c0-3.16.92-5.14,3.43-7.42s4.49-2.9,8.25-2.64c4.68.33,7.72,1.75,14.25,6.63l3.47,2.61-.23,2a5.87,5.87,0,0,1-.6,2.41c-.26.3-1.25-.26-4-2.24-2-1.46-4.49-3.17-5.54-3.8-7.13-4.22-13.76-3-13.76,2.51,0,2.64,1.55,4.26,4,4.19a2.53,2.53,0,0,1,2.15,4.26C10.52,90.65,8.12,91,6.17,90.25Z" transform="translate(0 -28.98)"/><path class="cls-1" d="M117.39,90.19a2.54,2.54,0,0,1,1.32-4.85c2.47.07,4-1.55,4-4.26,0-5.54-6.56-6.69-13.82-2.37-1,.59-3.46,2.24-5.48,3.69-2.7,2-3.73,2.54-4,2.25a5.44,5.44,0,0,1-.59-2.38l-.23-2,4-3c6.11-4.55,10.13-6.3,14.65-6.3a10.06,10.06,0,0,1,7.29,2.74c2.45,2.28,3.14,3.73,3.34,7.06.13,2.47.06,2.9-.73,4.52C125.24,89.27,120.26,91.77,117.39,90.19Z" transform="translate(0 -28.98)"/></g></svg>