<svg id="Layer_1" data-name="Layer 1" xmlns="http://www.w3.org/2000/svg" viewBox="0 0 128 23.86"><defs><style>.cls-1{fill:#1d1d1b;}.cls-2{fill:#3d3d3c;}.cls-3{fill:#3caa49;}</style></defs><path class="cls-1" d="M27,75.87V52.22h3.38V63.7l9.29-11.49h4.22L34.6,64l9.29,11.82H39.67L30.38,64.38V75.87Z" transform="translate(0 -52.21)"/><path class="cls-1" d="M61.79,70c0,3.94-2,5.92-5.92,5.92H51.65c-3.94,0-5.91-2-5.91-5.92V58.14c0-3.94,2-5.92,5.91-5.92h4.22c4,0,5.92,2,5.92,5.92ZM49.12,70a2.23,2.23,0,0,0,2.53,2.53h4.22A2.24,2.24,0,0,0,58.41,70V58.14a2.24,2.24,0,0,0-2.54-2.54H51.65a2.24,2.24,0,0,0-2.53,2.54Z" transform="translate(0 -52.21)"/><path class="cls-1" d="M67.85,52.21,78,69.11V52.21h3.38V75.86H78L67.85,59V75.87H64.48V52.22Z" transform="translate(0 -52.21)"/><path class="cls-2" d="M87.44,70A2.23,2.23,0,0,0,90,72.49h7.61v3.39H90c-3.94,0-5.91-2-5.91-5.92V58.14c0-3.94,2-5.92,5.91-5.92h7.61V55.6H90a2.24,2.24,0,0,0-2.53,2.54Z" transform="translate(0 -52.21)"/><path class="cls-2" d="M104.35,52.21V75.86H101V52.21Z" transform="translate(0 -52.21)"/><path class="cls-2" d="M111.79,72.49h10.12v3.38h-13.5V52.22h3.38Z" transform="translate(0 -52.21)"/><path class="cls-2" d="M128,52.21V75.86h-3.38V52.21Z" transform="translate(0 -52.21)"/><polygon class="cls-3" points="12.65 12.21 12.65 12.21 20.31 19.87 20.31 23.86 8.48 12.21 20.31 0.57 20.31 4.68 12.65 12.21"/><polygon class="cls-3" points="4.17 12.21 4.17 12.21 11.82 19.87 11.82 23.86 0 12.21 11.82 0.57 11.82 4.68 4.17 12.21"/></svg>