<svg id="Layer_1" data-name="Layer 1" xmlns="http://www.w3.org/2000/svg" viewBox="0 0 128 43.81"><defs><style>.cls-1{fill:#f16a36;}.cls-2,.cls-3,.cls-4{fill:#010101;}.cls-2,.cls-3{stroke:#010101;stroke-miterlimit:10;}.cls-3{stroke-width:0.75px;}</style></defs><g id="Layer_1-2" data-name="Layer 1"><path class="cls-1" d="M128.21,42.25l-10,15.8,4.44,15.53h-8.27l-3.26-11.49h-3.44l-2,11.49H97.83l5.53-31.33h7.83l-2.3,13.06h2.78l8.27-13.06Z" transform="translate(-0.21 -41.94)"/><path class="cls-2" d="M48.08,83.81a2.37,2.37,0,0,1-1.22-.3,2.2,2.2,0,0,1-.83-.83,2.69,2.69,0,0,1,0-2.45A2.12,2.12,0,0,1,48,79.09a2.21,2.21,0,0,1,1.12.3,1.9,1.9,0,0,1,.74.8,2.54,2.54,0,0,1,.26,1.18.27.27,0,0,1-.08.22.35.35,0,0,1-.22.08H46.17v-.54h3.67l-.36.26a1.91,1.91,0,0,0-.18-.88,1.42,1.42,0,0,0-.53-.61,1.47,1.47,0,0,0-.82-.22,1.48,1.48,0,0,0-.84.23,1.51,1.51,0,0,0-.57.63,2.05,2.05,0,0,0-.19.92,1.83,1.83,0,0,0,.22.91,1.68,1.68,0,0,0,.61.63,1.91,1.91,0,0,0,.9.23,2.18,2.18,0,0,0,.62-.11,1.57,1.57,0,0,0,.49-.27.42.42,0,0,1,.21-.08.31.31,0,0,1,.21.07.33.33,0,0,1,.11.22.23.23,0,0,1-.1.2,2.2,2.2,0,0,1-.7.39A2.41,2.41,0,0,1,48.08,83.81Z" transform="translate(-0.21 -41.94)"/><path class="cls-2" d="M51.06,81.78a.29.29,0,0,1-.23-.1.31.31,0,0,1-.09-.22.34.34,0,0,1,.09-.24.33.33,0,0,1,.23-.1h2a.35.35,0,0,1,.24.1.3.3,0,0,1,.09.24.32.32,0,0,1-.33.32Z" transform="translate(-0.21 -41.94)"/><path class="cls-2" d="M56.84,83.81a2.34,2.34,0,0,1-1.19-.3,2.26,2.26,0,0,1-.84-.84,2.36,2.36,0,0,1-.32-1.19v-4a.32.32,0,0,1,.28-.33h0a.32.32,0,0,1,.23.09.29.29,0,0,1,.09.24V80a2.07,2.07,0,0,1,.74-.64,2.21,2.21,0,0,1,1-.25,2.28,2.28,0,0,1,1.17.31,2.3,2.3,0,0,1,.82.85,2.38,2.38,0,0,1,.3,1.2,2.35,2.35,0,0,1-.31,1.21,2.26,2.26,0,0,1-.84.84A2.35,2.35,0,0,1,56.84,83.81Zm0-.59a1.67,1.67,0,0,0,1.49-.86,1.93,1.93,0,0,0,0-1.81,1.71,1.71,0,0,0-3,0,2,2,0,0,0,0,1.81,1.69,1.69,0,0,0,1.49.86Z" transform="translate(-0.21 -41.94)"/><path class="cls-2" d="M62.5,83.82a2.23,2.23,0,0,1-1.08-.25,1.82,1.82,0,0,1-.75-.73,2.42,2.42,0,0,1-.28-1.18v-2.2a.32.32,0,0,1,.32-.32h0a.29.29,0,0,1,.23.09.33.33,0,0,1,.1.23v2.2a1.52,1.52,0,0,0,.2.86,1.21,1.21,0,0,0,.54.51,1.71,1.71,0,0,0,.77.18,1.74,1.74,0,0,0,.75-.16,1.34,1.34,0,0,0,.53-.44A1.13,1.13,0,0,0,64,82h.46a1.89,1.89,0,0,1-1,1.62A2,2,0,0,1,62.5,83.82Zm1.86,0a.32.32,0,0,1-.23-.09.27.27,0,0,1-.09-.24v-4a.3.3,0,0,1,.28-.32h0a.28.28,0,0,1,.23.09.29.29,0,0,1,.1.23v4a.31.31,0,0,1-.1.24A.32.32,0,0,1,64.36,83.77Z" transform="translate(-0.21 -41.94)"/><path class="cls-2" d="M67.83,83.81a3,3,0,0,1-1-.17,2,2,0,0,1-.8-.51A.25.25,0,0,1,66,82.9a.32.32,0,0,1,.13-.22.29.29,0,0,1,.24-.07.33.33,0,0,1,.21.11,1.35,1.35,0,0,0,.53.36,2.1,2.1,0,0,0,.74.13,1.55,1.55,0,0,0,.91-.21.72.72,0,0,0,.3-.52.64.64,0,0,0-.29-.5,2.53,2.53,0,0,0-.95-.31,2.66,2.66,0,0,1-1.26-.47,1.05,1.05,0,0,1-.39-.81,1.11,1.11,0,0,1,.23-.72,1.51,1.51,0,0,1,.6-.43,2.61,2.61,0,0,1,1.82.05,1.82,1.82,0,0,1,.67.53.32.32,0,0,1,.07.23.3.3,0,0,1-.14.19.31.31,0,0,1-.23,0,.4.4,0,0,1-.23-.12,1.25,1.25,0,0,0-.49-.36,1.54,1.54,0,0,0-.64-.11,1.33,1.33,0,0,0-.75.19.56.56,0,0,0-.2.77l0,0a.84.84,0,0,0,.36.25,3.64,3.64,0,0,0,.72.19,3,3,0,0,1,1,.3,1.31,1.31,0,0,1,.53.46,1.17,1.17,0,0,1-.08,1.28,1.49,1.49,0,0,1-.64.47A2.41,2.41,0,0,1,67.83,83.81Z" transform="translate(-0.21 -41.94)"/><path class="cls-2" d="M71.24,78.26a.45.45,0,0,1-.33-.14.42.42,0,0,1-.13-.33.41.41,0,0,1,.14-.34.47.47,0,0,1,.32-.12.53.53,0,0,1,.32.12.41.41,0,0,1,.14.34.51.51,0,0,1-.13.33A.47.47,0,0,1,71.24,78.26Zm0,5.51a.3.3,0,0,1-.33-.28,0,0,0,0,1,0,0v-4a.3.3,0,0,1,.28-.33h0a.29.29,0,0,1,.23.09.34.34,0,0,1,.09.24v4a.34.34,0,0,1-.09.24.32.32,0,0,1-.23.09Z" transform="translate(-0.21 -41.94)"/><path class="cls-2" d="M73.56,83.77a.38.38,0,0,1-.25-.09.29.29,0,0,1-.08-.23v-4a.3.3,0,0,1,.27-.33h.06a.3.3,0,0,1,.32.28v4a.31.31,0,0,1-.32.32Zm3.64,0a.34.34,0,0,1-.24-.09.33.33,0,0,1-.09-.23v-2.2a1.7,1.7,0,0,0-.2-.86,1.32,1.32,0,0,0-.54-.51,1.86,1.86,0,0,0-1.53,0,1.32,1.32,0,0,0-.53.44,1,1,0,0,0-.19.63h-.47a1.87,1.87,0,0,1,1-1.61,2.05,2.05,0,0,1,1-.24,2.28,2.28,0,0,1,1.08.25,1.79,1.79,0,0,1,.74.73,2.38,2.38,0,0,1,.28,1.17v2.2a.31.31,0,0,1-.31.32Z" transform="translate(-0.21 -41.94)"/><path class="cls-2" d="M81.06,83.81a2.4,2.4,0,0,1-1.22-.3,2.2,2.2,0,0,1-.83-.83,2.69,2.69,0,0,1,0-2.45,2.12,2.12,0,0,1,1.94-1.14,2.21,2.21,0,0,1,1.12.3,1.9,1.9,0,0,1,.74.8,2.54,2.54,0,0,1,.26,1.18.27.27,0,0,1-.08.22.35.35,0,0,1-.22.08H79.15v-.54h3.66l-.35.26a1.91,1.91,0,0,0-.18-.88,1.36,1.36,0,0,0-.53-.61,1.43,1.43,0,0,0-.81-.22,1.51,1.51,0,0,0-1.41.86,1.93,1.93,0,0,0-.2.92,1.83,1.83,0,0,0,.22.91,1.7,1.7,0,0,0,.62.63,1.84,1.84,0,0,0,.89.23,2.18,2.18,0,0,0,.62-.11,1.47,1.47,0,0,0,.49-.27.42.42,0,0,1,.21-.08.31.31,0,0,1,.21.07.3.3,0,0,1,.11.22.25.25,0,0,1-.09.2,2.34,2.34,0,0,1-.71.39A2.41,2.41,0,0,1,81.06,83.81Z" transform="translate(-0.21 -41.94)"/><path class="cls-2" d="M85.78,83.81a3,3,0,0,1-1-.17,1.93,1.93,0,0,1-.8-.51.29.29,0,0,1-.08-.23.36.36,0,0,1,.13-.22.32.32,0,0,1,.25-.07.36.36,0,0,1,.21.11,1.17,1.17,0,0,0,.54.36,2.06,2.06,0,0,0,.74.13,1.51,1.51,0,0,0,.9-.21.67.67,0,0,0,.29-.52.6.6,0,0,0-.29-.51,2.43,2.43,0,0,0-.94-.31,2.66,2.66,0,0,1-1.26-.47,1,1,0,0,1-.4-.81,1.11,1.11,0,0,1,.23-.72,1.48,1.48,0,0,1,.61-.43,2.18,2.18,0,0,1,.84-.14,2.35,2.35,0,0,1,1,.19,1.71,1.71,0,0,1,.66.53.28.28,0,0,1,.07.23.26.26,0,0,1-.13.19.34.34,0,0,1-.24,0,.4.4,0,0,1-.22-.12,1.2,1.2,0,0,0-.49-.35,1.82,1.82,0,0,0-.65-.12,1.28,1.28,0,0,0-.74.19.57.57,0,0,0-.21.77l0,0a.9.9,0,0,0,.36.25,3.74,3.74,0,0,0,.73.19,3.13,3.13,0,0,1,1,.3,1.25,1.25,0,0,1,.53.46,1.15,1.15,0,0,1-.08,1.29,1.51,1.51,0,0,1-.64.47A2.33,2.33,0,0,1,85.78,83.81Z" transform="translate(-0.21 -41.94)"/><path class="cls-2" d="M90.34,83.81a3.08,3.08,0,0,1-1-.17,2,2,0,0,1-.8-.51.31.31,0,0,1,.06-.45.3.3,0,0,1,.24-.07.33.33,0,0,1,.21.11,1.23,1.23,0,0,0,.54.36,2.1,2.1,0,0,0,.74.13,1.55,1.55,0,0,0,.91-.21.69.69,0,0,0,.29-.52.62.62,0,0,0-.29-.51,2.47,2.47,0,0,0-1-.31,2.57,2.57,0,0,1-1.25-.47,1,1,0,0,1-.4-.81,1.11,1.11,0,0,1,.23-.72,1.48,1.48,0,0,1,.61-.43,2.18,2.18,0,0,1,.84-.14,2.3,2.3,0,0,1,1,.19,1.82,1.82,0,0,1,.67.53A.32.32,0,0,1,92,80a.3.3,0,0,1-.14.19.31.31,0,0,1-.23,0,.4.4,0,0,1-.23-.12A1.14,1.14,0,0,0,91,79.8a1.55,1.55,0,0,0-.64-.12,1.33,1.33,0,0,0-.75.19.56.56,0,0,0-.2.77l0,0a.84.84,0,0,0,.36.25,3.64,3.64,0,0,0,.72.19,3,3,0,0,1,1,.3,1.25,1.25,0,0,1,.53.46,1.15,1.15,0,0,1-.07,1.28,1.6,1.6,0,0,1-.65.47A2.35,2.35,0,0,1,90.34,83.81Z" transform="translate(-0.21 -41.94)"/><path class="cls-1" d="M96.66,85.75a.32.32,0,0,1-.23-.09.31.31,0,0,1-.1-.24V77.48a.33.33,0,0,1,.34-.33.33.33,0,0,1,.23.09.36.36,0,0,1,.09.24v7.94a.31.31,0,0,1-.31.33Z" transform="translate(-0.21 -41.94)"/><path class="cls-3" d="M101.27,79.87a.24.24,0,0,1-.21-.08.25.25,0,0,1-.09-.2.27.27,0,0,1,.09-.2.24.24,0,0,1,.21-.08h2.16a.25.25,0,0,1,.21.08.27.27,0,0,1,.09.2.25.25,0,0,1-.09.2.25.25,0,0,1-.21.08Zm2.12,3.9A1.52,1.52,0,0,1,102,83a1.67,1.67,0,0,1-.2-.85V78a.29.29,0,0,1,.09-.23.29.29,0,0,1,.23-.1.33.33,0,0,1,.33.31v4.16a1,1,0,0,0,.25.71.86.86,0,0,0,.66.27h.23a.27.27,0,0,1,.21.09.38.38,0,0,1,.09.24.31.31,0,0,1-.1.24.34.34,0,0,1-.26.08Z" transform="translate(-0.21 -41.94)"/><path class="cls-3" d="M107.08,83.81a2.44,2.44,0,0,1-1.21-.3,2.26,2.26,0,0,1-.84-.84,2.55,2.55,0,0,1,0-2.43,2.26,2.26,0,0,1,.84-.84,2.53,2.53,0,0,1,2.42,0,2.31,2.31,0,0,1,.83.84,2.36,2.36,0,0,1,.31,1.22,2.31,2.31,0,0,1-.31,1.2,2.26,2.26,0,0,1-.84.84A2.31,2.31,0,0,1,107.08,83.81Zm0-.59A1.81,1.81,0,0,0,108,83a1.61,1.61,0,0,0,.61-.63,1.93,1.93,0,0,0,0-1.81,1.54,1.54,0,0,0-.61-.63,1.78,1.78,0,0,0-1.76,0,1.58,1.58,0,0,0-.61.62,2,2,0,0,0,0,1.82,1.61,1.61,0,0,0,.61.63A1.81,1.81,0,0,0,107.08,83.22Z" transform="translate(-0.21 -41.94)"/><path class="cls-3" d="M112.81,83.81a2.44,2.44,0,0,1-1.21-.3,2.26,2.26,0,0,1-.84-.84,2.61,2.61,0,0,1,0-2.43,2.26,2.26,0,0,1,.84-.84,2.53,2.53,0,0,1,2.42,0,2.16,2.16,0,0,1,.83.84,2.5,2.5,0,0,1,0,2.43,2.26,2.26,0,0,1-.84.84A2.44,2.44,0,0,1,112.81,83.81Zm0-.59a1.68,1.68,0,0,0,.88-.23,1.7,1.7,0,0,0,.62-.63,2,2,0,0,0,0-1.81,1.63,1.63,0,0,0-.62-.63,1.78,1.78,0,0,0-1.76,0,1.63,1.63,0,0,0-.62.63,2,2,0,0,0,0,1.81,1.69,1.69,0,0,0,1.5.86Z" transform="translate(-0.21 -41.94)"/><path class="cls-3" d="M117.44,83.77a1,1,0,0,1-.61-.19,1.19,1.19,0,0,1-.41-.51,1.68,1.68,0,0,1-.15-.77V77.48a.34.34,0,0,1,.34-.33.4.4,0,0,1,.21.09.3.3,0,0,1,.09.24v4.83a1,1,0,0,0,.15.59.44.44,0,0,0,.38.23h.21a.25.25,0,0,1,.2.09.32.32,0,0,1,.08.23.28.28,0,0,1-.11.23.34.34,0,0,1-.27.09Z" transform="translate(-0.21 -41.94)"/><path class="cls-3" d="M120.44,83.81a3.08,3.08,0,0,1-1-.17,1.89,1.89,0,0,1-.79-.51.29.29,0,0,1-.08-.23.32.32,0,0,1,.13-.22.31.31,0,0,1,.24-.07.36.36,0,0,1,.22.11,1.22,1.22,0,0,0,.53.36,2,2,0,0,0,.74.13,1.51,1.51,0,0,0,.9-.21.67.67,0,0,0,.29-.52.6.6,0,0,0-.29-.51,2.42,2.42,0,0,0-1-.31,2.61,2.61,0,0,1-1.25-.47,1,1,0,0,1-.4-.81,1.11,1.11,0,0,1,.23-.72,1.48,1.48,0,0,1,.61-.43,2.18,2.18,0,0,1,.84-.14,2.35,2.35,0,0,1,1,.19,1.71,1.71,0,0,1,.66.53.28.28,0,0,1,.07.23.26.26,0,0,1-.13.19.34.34,0,0,1-.24,0,.35.35,0,0,1-.22-.12,1.2,1.2,0,0,0-.49-.35,1.82,1.82,0,0,0-.65-.12,1.28,1.28,0,0,0-.74.19.57.57,0,0,0-.21.77l0,0a.94.94,0,0,0,.37.25,3.47,3.47,0,0,0,.72.19,3,3,0,0,1,1,.3,1.25,1.25,0,0,1,.53.46,1.19,1.19,0,0,1-.07,1.28,1.6,1.6,0,0,1-.65.47A2.35,2.35,0,0,1,120.44,83.81Z" transform="translate(-0.21 -41.94)"/><path class="cls-4" d="M61.45,41.94q-12.27,0-14.53,13L45.87,61a24.91,24.91,0,0,0-.35,4,10,10,0,0,0,1.61,6c1.6,2.14,4.5,3.22,8.69,3.22s7.47-1.09,9.83-3.27,3.93-5.48,4.68-9.92l1-6.09a22.43,22.43,0,0,0,.35-3.74Q71.73,41.95,61.45,41.94Zm-1.13,6.75q3.24,0,3.46,3.38l-9.53,5.78.5-2.76c.76-4.21,2.61-6.34,5.57-6.4ZM60.52,66A4.69,4.69,0,0,1,57,67.45c-2.2,0-3.37-1.13-3.51-3.37L63,58.3l-.44,2.53c-.43,2.5-1.11,4.22-2,5.18Z" transform="translate(-0.21 -41.94)"/><path class="cls-4" d="M88.09,41.94q-12.28,0-14.54,13l-1,6.1a23.8,23.8,0,0,0-.36,4,10,10,0,0,0,1.61,6c1.6,2.14,4.5,3.22,8.69,3.22s7.47-1.09,9.84-3.27S96.21,65.44,97,61L98,54.91a22.43,22.43,0,0,0,.35-3.74Q98.35,41.95,88.09,41.94ZM87,48.69q3.33,0,3.48,3.58l-9.56,5.64.51-2.82Q82.52,48.78,87,48.69ZM87.15,66a4.66,4.66,0,0,1-3.55,1.44,3.11,3.11,0,0,1-3.48-3.11l9.41-5.58-.35,2.07C88.74,63.33,88.06,65.05,87.15,66Z" transform="translate(-0.21 -41.94)"/><path class="cls-4" d="M20.85,83.22A20.64,20.64,0,1,1,41.48,62.58h0A20.65,20.65,0,0,1,20.85,83.22Zm0-37.15A16.51,16.51,0,1,0,37.36,62.58h0A16.53,16.53,0,0,0,20.85,46.07Z" transform="translate(-0.21 -41.94)"/><path class="cls-4" d="M27.82,56.3c-7.06,0-7.14,6.45-9.21,10.23S9,67.91,9,67.91c6.8,5.76,12-1.72,12-1.72a7.31,7.31,0,0,0,6.45,4.13c6.37-.26,6.36-6.88,6.36-6.88S34.1,56.3,27.82,56.3Zm-.18,12.29a6.27,6.27,0,0,1-6.19-3.86s1.7-6.63,6.36-6.63S32,63.52,32,63.52s.27,5.07-4.38,5.07Z" transform="translate(-0.21 -41.94)"/><path class="cls-1" d="M13.12,69.49c7.06,0,6.9-5.9,9.21-9.54,2.85-5.39,9.28-2.4,9.28-2.4-6.44-5.3-10.92,2.05-10.92,2.05-.61-1.46-3.62-4.12-7.14-4.12-6.37.26-6.36,6.88-6.36,6.88S6.84,69.49,13.12,69.49Zm.18-11.95c4.9,0,6.18,3.53,6.18,3.53s-1.35,7-6,7-4.56-5.76-4.56-5.76-.26-4.74,4.39-4.74Z" transform="translate(-0.21 -41.94)"/></g></svg>