<svg id="Layer_1" data-name="Layer 1" xmlns="http://www.w3.org/2000/svg" viewBox="0 0 127.32 50.74"><defs><style>.cls-1{fill:#384ca0;}</style></defs><g id="olist"><g id="logotype"><g id="logotype_2" data-name="logotype 2"><path class="cls-1" d="M18.73,52.26C8,52.26.35,60.25.35,70.57S8,88.88,18.73,88.88A17.85,17.85,0,0,0,37,70.57,17.85,17.85,0,0,0,18.73,52.26Zm8.65,18.31c0,5.72-3.46,10.18-8.65,10.18S10,76.29,10,70.57s3.53-10.19,8.73-10.19S27.38,64.84,27.38,70.57Z" transform="translate(-0.35 -38.14)"/><path class="cls-1" d="M52,38.14H42.51V88.08H52Z" transform="translate(-0.35 -38.14)"/><path class="cls-1" d="M69.3,88.08v-35H59.84v35Zm0-39.89v-8H59.84v8Z" transform="translate(-0.35 -38.14)"/><path class="cls-1" d="M101.41,56.85a17.3,17.3,0,0,0-12.12-4.59c-6.39,0-12.52,3.59-12.52,10.72,0,6.12,4.6,8.52,8.79,10.32,3.46,1.53,6.66,2.59,6.66,5.06,0,2.13-2.53,3.06-4.46,3.06-3.4,0-5.59-1.53-8.26-4.13l-5.39,5.59a19.5,19.5,0,0,0,14.11,6c6.8,0,13.45-3.53,13.45-11.26,0-6.65-5.72-8.92-10.25-10.78-2.93-1.2-5.53-2.33-5.53-4.53,0-1.66,1.6-2.66,3.4-2.66a10.72,10.72,0,0,1,6.92,2.93Z" transform="translate(-0.35 -38.14)"/><path class="cls-1" d="M126.67,60.91V53.05h-8.92V45.33h-8l-1.46,7.72h-4.2v7.86h4.2V75.49a20.61,20.61,0,0,0,.66,5.86c1.27,4.53,4.93,7.53,10.39,7.53a17.59,17.59,0,0,0,8.32-2.07l-2.93-7a8,8,0,0,1-3.79,1c-2,0-2.8-1.26-3.07-3.33a22.56,22.56,0,0,1-.13-3V60.91Z" transform="translate(-0.35 -38.14)"/></g></g></g></svg>