<svg id="Layer_1" data-name="Layer 1" xmlns="http://www.w3.org/2000/svg" viewBox="0 0 128 37.53"><defs><style>.cls-1{fill:#010101;}</style></defs><g id="ideris"><path class="cls-1" d="M96.3,45.52a4.25,4.25,0,0,0-1.84,2.29c-.26,1,.21,1.94,4.18,8.2l4.47,7,.68,1.1-4.49,7c-2.47,3.89-4.6,7.41-4.73,7.8a3,3,0,0,0,2.81,3.87c1.18,0,.13.55,15.77-8.33,7.94-4.52,13.48-7.84,14-8.39a2.43,2.43,0,0,0,.84-1.86c0-1.9-.5-2.32-7.91-6.55-3.81-2.18-10.2-5.83-14.17-8.12C98.72,45.49,97.54,45,96.3,45.52Zm7.76,5.31,6,3.44-2.5,3.94c-2,3.18-2.55,3.87-2.84,3.58-.86-.92-8.25-13-8.25-13.46C96.46,46.7,97.49,47,104.06,50.83Zm16.71,9.62c6.84,3.91,7,3.28-1.79,8.3-4.28,2.47-6.93,3.84-7.22,3.76a25.51,25.51,0,0,1-3-4.23c-2.18-3.44-2.52-4.13-2.28-4.57a89.33,89.33,0,0,1,5-7.73C112.12,55.45,111.76,55.27,120.77,60.45Zm-12.19,11.2,1.49,2.28-1.76,1c-11.09,6.41-10.56,6.15-11.22,5.83a1,1,0,0,1-.63-.81,67.2,67.2,0,0,1,4.23-7.26L105,66l1,1.69C106.61,68.6,107.76,70.36,108.58,71.65Z" transform="translate(0 -45.35)"/><path class="cls-1" d="M1,49.57a2.83,2.83,0,0,0-.37,4,2.9,2.9,0,0,0,3.73,0,1.94,1.94,0,0,0,.74-1.87,1.93,1.93,0,0,0-.74-1.86A3.2,3.2,0,0,0,1,49.57Z" transform="translate(0 -45.35)"/><path class="cls-1" d="M23.52,49.54c-1.07.63-1.15,1-1.18,5.44v4.29l-.89-.79C20.21,57.4,18.87,57,16.56,57c-4.23,0-7.1,2.57-7.91,7a9.5,9.5,0,0,0,3.13,9,8.33,8.33,0,0,0,8.91.61l1.42-.82.52.64c1,1.28,3.31,1.1,3.89-.29.21-.53.29-4,.24-11.73l-.08-11-.74-.63A1.94,1.94,0,0,0,23.52,49.54ZM20.19,61.76A5,5,0,0,1,21,69.07a4.63,4.63,0,0,1-7.44-1,7.12,7.12,0,0,1-.13-4.31,4.5,4.5,0,0,1,2.21-2.34A6,6,0,0,1,20.19,61.76Z" transform="translate(0 -45.35)"/><path class="cls-1" d="M64.74,49.86A1.86,1.86,0,0,0,64,51.67c0,1.66.84,2.55,2.39,2.55s1.89-.18,2.34-1.08a2.8,2.8,0,0,0-.63-3.57A3.2,3.2,0,0,0,64.74,49.86Z" transform="translate(0 -45.35)"/><path class="cls-1" d="M36.64,57.14a9.73,9.73,0,0,0-4.76,3.07,9,9,0,0,0-1.6,6.2A7.69,7.69,0,0,0,33,72.3c1.84,1.66,3.66,2.24,6.81,2.26,4.49,0,6.73-1,6.31-3-.26-1.19-1.37-1.69-2.84-1.29A11.07,11.07,0,0,1,37,70c-1.13-.56-2.29-1.87-2.29-2.63,0-.21,1.53-.29,5.29-.29h5.28l.89-.9a2.34,2.34,0,0,0,.9-1.78,7.78,7.78,0,0,0-4.31-6.65A10.74,10.74,0,0,0,36.64,57.14Zm4.23,4a3.72,3.72,0,0,1,2,2.57c0,.42-.37.48-4.07.48-4.52,0-4.55,0-3.47-1.61A4.66,4.66,0,0,1,40.87,61.16Z" transform="translate(0 -45.35)"/><path class="cls-1" d="M57.8,57.16A4.9,4.9,0,0,0,56,58.29l-.86.9-.56-.84a2.17,2.17,0,0,0-3.7.07c-.53,1-.58,13.67,0,14.72a2.23,2.23,0,0,0,3.6.53c.47-.47.52-.89.52-4,0-4.84.29-6.39,1.4-7.49a3.08,3.08,0,0,1,2.05-1c1.76-.18,2.52-.58,2.86-1.42a2,2,0,0,0-1-2.57A3,3,0,0,0,57.8,57.16Z" transform="translate(0 -45.35)"/><path class="cls-1" d="M76.75,57.27c-3.18.84-4.6,2.63-4.42,5.49s1.58,4,5.76,4.76c2.78.52,3.65,1,3.65,1.81,0,1-1,1.47-3.07,1.47a19.85,19.85,0,0,1-3-.26c-1.45-.34-2.34,0-2.79.92a1.92,1.92,0,0,0,.82,2.31c.86.58,4.25,1,6.3.87a9.64,9.64,0,0,0,4.79-1.71,5.64,5.64,0,0,0,1.1-5.65c-.71-1.73-2.47-2.68-6.28-3.34-2.1-.39-3.23-1.15-3-2s1.47-1.23,4.63-1c2.68.15,2.91.13,3.41-.37a2,2,0,0,0,0-2.6C83.66,56.93,79.35,56.58,76.75,57.27Z" transform="translate(0 -45.35)"/><path class="cls-1" d="M1.37,57.56C.42,57.93.26,59,.26,65.76A55.35,55.35,0,0,0,.53,73a2.26,2.26,0,0,0,3.57.65l.63-.58V65.78c0-7.25,0-7.28-.6-7.83A3,3,0,0,0,1.37,57.56Z" transform="translate(0 -45.35)"/><path class="cls-1" d="M65,58c-.55.6-.58.79-.58,7.83v7.25l.64.58A2.26,2.26,0,0,0,68.6,73a56.23,56.23,0,0,0,.26-7.23c0-8-.1-8.39-2.47-8.39A1.9,1.9,0,0,0,65,58Z" transform="translate(0 -45.35)"/></g></svg>