<svg xmlns="http://www.w3.org/2000/svg" width="212" height="42" shape-rendering="geometricPrecision" text-rendering="geometricPrecision" image-rendering="optimizeQuality" fill-rule="evenodd" clip-rule="evenodd"><defs><style>.fil3{fill:#333}.fil0,.fil2{fill:#ff354d}.fil2{fill-rule:nonzero}</style></defs><g id="Camada_x0020_1"><g id="_949886696"><path class="fil0" d="M136.38 26.82c1.26-1.57 2.52-3.15 3.78-4.72-.57-.6-.87-1.35-1.2-2.08-.37-1.46-.47-2.91.11-4.3.61-1.44 1.44-2.63 2.64-3.36 1.01-.52 2.03-1 3.27-1.08 1.05.02 2.11.03 3.15.68 2.94-3.76 5.89-7.52 8.83-11.27-3.73 2.03-7.73 3.38-11.76 4.65-6.25.04-11.57 4.87-12.4 11.03-.33 2.66.08 5.15 1.37 7.48.67 1.06 1.31 2.16 2.21 2.97zM153.76 9.45c-1.26 1.57-2.52 3.14-3.78 4.72.58.6.87 1.34 1.2 2.08.37 1.46.47 2.9-.11 4.3-.61 1.44-1.44 2.62-2.64 3.35-1.01.52-2.03 1-3.27 1.08-1.05-.01-2.11-.03-3.15-.67-2.94 3.76-5.88 7.51-8.83 11.27 3.73-2.04 7.73-3.39 11.76-4.66 6.25-.04 11.57-4.86 12.4-11.03.33-2.65-.08-5.15-1.37-7.47-.67-1.07-1.31-2.17-2.21-2.97z"/><path d="M.77 7.67h4.3c0 .28 3.23 4.45 9.7 12.51 5.6-7.1 8.77-11.26 9.51-12.51h4.3v21.29H24.1c-.25 0-.37-.12-.37-.37V17.02c0-.69.06-1.56.19-2.62v-.18h-.19c-.07.66-3.06 4.7-8.96 12.13h-.75c-5.96-7.58-8.94-11.62-8.95-12.13h-.19v14.74H.77V7.67zm40.27.56h4.47c.88 1 4.98 7.91 12.31 20.71h-5.41c-2.33-3.7-5.38-9.18-9.13-16.41-1 1.33-3.92 6.49-8.78 15.48-.36.62-.61.93-.75.93H28.9v-.18C36.54 15.65 40.59 8.81 41.04 8.23zm20.61-.18h14.56c2.59 0 4.2.56 4.84 1.68.26.87.38 1.61.38 2.25H61.28l.18.36v12.12l-.18.38h15.29v-4.48h-8.01v-3.55h13.06v6.54c0 3.73-1.31 5.59-3.92 5.59H60.16c-2.62 0-3.92-1.86-3.92-5.59v-9.7c0-2.91.62-4.58 1.86-5.04.75-.37 1.94-.56 3.55-.56zm30.68.18h4.47c.88 1 4.98 7.91 12.32 20.71h-5.42c-2.33-3.7-5.38-9.18-9.13-16.41-1 1.33-3.92 6.49-8.78 15.48-.36.62-.61.93-.74.93h-4.86v-.18C87.83 15.65 91.88 8.81 92.33 8.23z" fill="#333" fill-rule="nonzero"/><path class="fil2" d="M159.78 7.67h19.41c2.49 0 3.73 1.74 3.73 5.22v3.19c0 2.28-.68 3.77-2.05 4.47-1.17.26-2.1.38-2.8.38h-2.61v.19c.82.45 4 3 9.52 7.65v.18h-6.91c-1.51-1.25-4.43-3.93-8.77-8.02h-2.79v-3.74h8.95c1.43 0 2.23-.31 2.42-.93v-3.92c-.19-.62-.99-.93-2.42-.93h-10.63v17.54h-5.05V7.67zm25.7.38h13.43c6.3 0 10.22 2.11 11.76 6.34.37 1.01.56 1.94.56 2.8v1.86c0 3.91-1.87 6.84-5.6 8.77-1.64.75-3.51 1.12-5.6 1.12h-14.55V8.05zm5.04 3.92v12.87h7.09c5.6 0 8.4-1.99 8.4-5.97v-1.12c0-2.65-1.25-4.46-3.74-5.41-.93-.25-1.8-.37-2.61-.37h-9.14z"/><path class="fil3" d="M35.64 19.9h13.79v2.77H35.64zM87.85 19.9h13.78v2.77H87.85z"/><path class="fil2" d="M111.56 7.64h21.47V9.7l-14.94 15.11h14.94v4.1h-22.96v-2.23c0-.22 3.55-3.89 10.64-11.01l3.92-4.11h-12.7c-.24 0-.37-.12-.37-.37V7.64z"/><path d="M5.16 37.12c0 .61-.22 1.09-.67 1.44-.44.34-1.05.51-1.81.51-.83 0-1.46-.11-1.91-.32v-.78c.29.12.6.21.94.28.33.07.67.11 1 .11.54 0 .95-.11 1.22-.31s.41-.49.41-.85c0-.25-.05-.44-.15-.6-.09-.15-.26-.29-.48-.42-.23-.13-.58-.28-1.04-.45-.65-.23-1.11-.5-1.39-.82-.28-.32-.42-.73-.42-1.24 0-.54.21-.97.61-1.29.4-.31.94-.47 1.6-.47.69 0 1.33.13 1.91.38l-.25.7c-.58-.24-1.14-.36-1.68-.36-.43 0-.76.09-1 .28-.25.18-.37.44-.37.77 0 .24.05.43.14.59.09.15.24.3.45.42.21.13.53.27.97.43.73.26 1.23.54 1.51.84.27.3.41.68.41 1.16zm5.81-.76c0 .85-.22 1.51-.64 1.99-.43.48-1.03.72-1.78.72-.47 0-.88-.11-1.24-.33a2.08 2.08 0 0 1-.84-.94c-.2-.41-.3-.89-.3-1.44 0-.86.22-1.52.64-1.99.43-.48 1.02-.72 1.77-.72.73 0 1.31.25 1.74.73.43.49.65 1.15.65 1.98zm-3.98 0c0 .66.13 1.17.4 1.52.27.35.66.53 1.18.53.52 0 .91-.18 1.18-.53.27-.34.4-.85.4-1.52s-.13-1.17-.4-1.52c-.27-.34-.67-.51-1.19-.51-.52 0-.91.17-1.17.51-.27.34-.4.84-.4 1.52zm6.16 2.61h-.79v-7.41h.79v7.41zm2.42-5.22v3.39c0 .42.09.74.29.95.19.21.49.32.91.32.54 0 .94-.15 1.2-.45.25-.3.38-.79.38-1.46v-2.75h.79v5.22h-.66l-.11-.7h-.04c-.17.26-.39.46-.68.59-.29.14-.61.21-.98.21-.64 0-1.11-.15-1.43-.45-.32-.31-.47-.79-.47-1.45v-3.42h.8zm7.33 5.32c-.76 0-1.34-.23-1.76-.7-.41-.47-.62-1.12-.62-1.97 0-.88.21-1.55.63-2.03.42-.48 1.02-.72 1.8-.72.25 0 .5.03.75.09.25.05.45.11.59.19l-.24.67a4.75 4.75 0 0 0-.57-.18c-.21-.04-.39-.06-.55-.06-1.06 0-1.59.67-1.59 2.03 0 .64.13 1.13.39 1.47.26.35.64.52 1.15.52.43 0 .88-.1 1.34-.29v.71c-.35.18-.79.27-1.32.27zm.7 1.28c0 .3-.12.54-.36.71-.25.17-.61.25-1.08.25-.16 0-.32-.01-.46-.04v-.51c.14.03.31.04.5.04.25 0 .44-.03.56-.09.13-.07.2-.18.2-.35 0-.14-.07-.25-.19-.34-.13-.08-.36-.15-.71-.2l.42-.85h.53l-.27.55c.57.12.86.4.86.83zm6.36-3.99c0 .85-.21 1.51-.64 1.99-.43.48-1.02.72-1.78.72-.47 0-.88-.11-1.24-.33a2.2 2.2 0 0 1-.84-.94c-.2-.41-.3-.89-.3-1.44 0-.86.22-1.52.64-1.99.43-.48 1.02-.72 1.77-.72.74 0 1.32.25 1.75.73.43.49.64 1.15.64 1.98zm-3.98 0c0 .66.14 1.17.4 1.52.27.35.66.53 1.18.53.52 0 .91-.18 1.18-.53.27-.34.4-.85.4-1.52s-.13-1.17-.4-1.52c-.27-.34-.66-.51-1.19-.51-.52 0-.91.17-1.17.51-.26.34-.4.84-.4 1.52zm2.32-3.31c-.13 0-.27-.03-.4-.09s-.26-.12-.38-.19c-.13-.07-.25-.14-.36-.2a.752.752 0 0 0-.34-.09c-.16 0-.28.05-.36.14-.08.1-.14.25-.19.44h-.46c.04-.38.15-.69.33-.9a.89.89 0 0 1 .71-.33c.15 0 .29.03.42.09.14.06.27.12.4.19.12.07.24.14.35.2.12.06.22.09.33.09.15 0 .27-.05.34-.14.08-.1.14-.24.19-.44h.47c-.04.38-.15.68-.33.9-.18.22-.42.33-.72.33zm5.25 6.02c-.77 0-1.38-.24-1.82-.71-.45-.47-.67-1.12-.67-1.96 0-.84.2-1.51.62-2 .41-.5.97-.75 1.67-.75.65 0 1.17.22 1.55.65.38.43.57 1 .57 1.7v.5h-3.59c.01.62.17 1.08.46 1.4.29.32.71.48 1.24.48.56 0 1.12-.12 1.67-.36v.71c-.28.12-.55.21-.79.26-.25.05-.55.08-.91.08zm-.21-4.75c-.42 0-.75.13-1 .41-.25.27-.4.65-.44 1.13h2.72c0-.5-.11-.88-.33-1.15-.22-.26-.54-.39-.95-.39zm6.85 3.23c0 .48-.18.86-.54 1.12-.37.27-.87.4-1.53.4-.69 0-1.23-.11-1.62-.33v-.73c.25.12.52.22.81.3.29.07.56.11.83.11.41 0 .73-.07.95-.2.23-.14.34-.33.34-.61 0-.2-.09-.37-.27-.52-.18-.14-.52-.31-1.03-.51-.49-.18-.83-.34-1.04-.47-.2-.14-.35-.29-.45-.46-.1-.17-.15-.38-.15-.62 0-.42.17-.76.52-1.01.34-.24.82-.37 1.42-.37.56 0 1.11.12 1.65.35l-.28.64c-.53-.22-1-.32-1.43-.32-.37 0-.65.06-.84.17-.2.12-.29.28-.29.49 0 .14.03.26.11.36.07.09.18.19.34.28.16.09.47.22.92.38.62.23 1.03.46 1.25.69.22.22.33.51.33.86zm6.25 1.52c-.34 0-.65-.06-.93-.19s-.52-.32-.71-.58h-.06c.04.31.06.6.06.87v2.14h-.79v-7.56h.64l.11.71h.04c.2-.28.44-.49.71-.62.27-.12.58-.19.93-.19.69 0 1.23.24 1.6.71.38.48.57 1.14.57 2 0 .86-.19 1.52-.58 2-.38.47-.91.71-1.59.71zm-.12-4.74c-.53 0-.92.15-1.15.44-.24.3-.36.76-.37 1.41v.18c0 .73.12 1.25.37 1.57.24.32.63.48 1.17.48.45 0 .81-.19 1.07-.55.25-.37.38-.87.38-1.51 0-.65-.13-1.15-.38-1.5-.26-.35-.62-.52-1.09-.52zm6.88 4.64l-.16-.74H53c-.26.33-.52.55-.78.67-.26.11-.58.17-.97.17-.51 0-.92-.13-1.21-.4-.3-.27-.44-.65-.44-1.14 0-1.06.84-1.61 2.52-1.66l.89-.03v-.32c0-.41-.09-.72-.26-.91-.18-.19-.46-.29-.85-.29-.43 0-.92.13-1.47.4l-.25-.61c.26-.14.54-.25.85-.33.3-.08.61-.12.92-.12.62 0 1.08.14 1.38.42.3.27.45.72.45 1.33v3.56h-.58zm-1.79-.55c.49 0 .88-.14 1.16-.41.28-.27.42-.65.42-1.13v-.47l-.79.03c-.63.02-1.08.12-1.36.29-.28.17-.41.44-.41.81 0 .29.08.5.26.65.17.15.41.23.72.23zm6.38-4.77c.24 0 .44.02.63.06l-.11.74c-.22-.05-.41-.07-.57-.07-.43 0-.79.17-1.09.51-.3.34-.45.77-.45 1.28v2.8h-.79v-5.22h.66l.08.97h.04c.2-.34.43-.61.7-.79.28-.18.58-.28.9-.28zm4.62 5.32l-.16-.74h-.04c-.26.33-.51.55-.77.67-.26.11-.59.17-.97.17-.52 0-.93-.13-1.22-.4-.29-.27-.44-.65-.44-1.14 0-1.06.84-1.61 2.53-1.66l.88-.03v-.32c0-.41-.08-.72-.26-.91-.18-.19-.46-.29-.85-.29-.43 0-.92.13-1.47.4l-.24-.61c.25-.14.53-.25.84-.33.31-.08.61-.12.92-.12.62 0 1.08.14 1.39.42.3.27.45.72.45 1.33v3.56h-.59zm-1.79-.55c.5 0 .88-.14 1.16-.41.28-.27.43-.65.43-1.13v-.47l-.8.03c-.62.02-1.08.12-1.36.29-.27.17-.41.44-.41.81 0 .29.08.5.26.65.17.15.41.23.72.23zm8.75.65c-.78 0-1.38-.24-1.83-.71-.45-.47-.67-1.12-.67-1.96 0-.84.21-1.51.62-2 .42-.5.97-.75 1.67-.75.66 0 1.17.22 1.55.65.38.43.58 1 .58 1.7v.5h-3.6c.02.62.17 1.08.46 1.4.3.32.71.48 1.25.48.56 0 1.11-.12 1.66-.36v.71c-.28.12-.54.21-.79.26-.25.05-.55.08-.9.08zm-.22-4.75c-.42 0-.75.13-1 .41-.25.27-.4.65-.44 1.13h2.73c0-.5-.11-.88-.34-1.15-.22-.26-.53-.39-.95-.39zm3.05 2.4V36h2.34v.72H72.2zm6.67-4.09c-.76 0-1.36.26-1.81.76-.44.51-.66 1.21-.66 2.1 0 .91.21 1.61.64 2.11.43.5 1.03.75 1.83.75.48 0 1.04-.09 1.66-.27v.72c-.48.18-1.08.27-1.79.27-1.02 0-1.82-.31-2.37-.93-.56-.63-.84-1.51-.84-2.66 0-.72.14-1.35.4-1.89.27-.54.66-.95 1.17-1.24.5-.3 1.1-.44 1.78-.44.74 0 1.37.13 1.92.4l-.34.69c-.53-.25-1.06-.37-1.59-.37zm7.56 3.73c0 .85-.21 1.51-.64 1.99-.43.48-1.02.72-1.78.72-.46 0-.88-.11-1.24-.33a2.2 2.2 0 0 1-.84-.94c-.19-.41-.29-.89-.29-1.44 0-.86.21-1.52.64-1.99.42-.48 1.01-.72 1.77-.72.73 0 1.31.25 1.74.73.43.49.64 1.15.64 1.98zm-3.97 0c0 .66.13 1.17.4 1.52.26.35.66.53 1.17.53.52 0 .91-.18 1.18-.53.27-.34.4-.85.4-1.52s-.13-1.17-.4-1.52c-.27-.34-.66-.51-1.19-.51-.51 0-.91.17-1.17.51-.26.34-.39.84-.39 1.52zm12.01 2.61v-3.39c0-.42-.09-.73-.26-.94-.18-.21-.46-.31-.83-.31-.49 0-.86.14-1.09.42-.24.29-.36.72-.36 1.31v2.91h-.79v-3.39c0-.42-.08-.73-.26-.94-.18-.21-.46-.31-.84-.31-.49 0-.85.15-1.08.44-.23.3-.35.79-.35 1.46v2.74h-.79v-5.22h.64l.13.71h.04c.15-.25.36-.45.63-.59.27-.14.58-.22.91-.22.82 0 1.35.3 1.6.89h.04c.16-.27.38-.49.68-.65.29-.16.63-.24 1.01-.24.59 0 1.03.16 1.32.46.3.3.44.79.44 1.45v3.41h-.79zm9.08 0v-3.39c0-.42-.09-.73-.27-.94-.18-.21-.45-.31-.83-.31-.49 0-.85.14-1.09.42-.23.29-.35.72-.35 1.31v2.91h-.79v-3.39c0-.42-.09-.73-.27-.94-.17-.21-.45-.31-.83-.31-.5 0-.86.15-1.09.44-.23.3-.35.79-.35 1.46v2.74h-.79v-5.22h.65l.13.71h.04c.14-.25.35-.45.63-.59.27-.14.57-.22.91-.22.81 0 1.35.3 1.6.89h.04c.15-.27.38-.49.67-.65.3-.16.63-.24 1.01-.24.59 0 1.03.16 1.33.46.29.3.44.79.44 1.45v3.41h-.79zm4.62.1c-.77 0-1.38-.24-1.82-.71-.45-.47-.67-1.12-.67-1.96 0-.84.21-1.51.62-2 .41-.5.97-.75 1.67-.75.65 0 1.17.22 1.55.65.38.43.57 1 .57 1.7v.5h-3.59c.01.62.17 1.08.46 1.4.3.32.71.48 1.24.48.56 0 1.12-.12 1.67-.36v.71c-.28.12-.54.21-.79.26-.25.05-.55.08-.91.08zm-.21-4.75c-.42 0-.75.13-1 .41-.25.27-.4.65-.44 1.13h2.73c0-.5-.11-.88-.34-1.15-.22-.26-.54-.39-.95-.39zm5.86-.67c.23 0 .44.02.63.06l-.11.74c-.22-.05-.41-.07-.58-.07-.42 0-.78.17-1.08.51-.3.34-.45.77-.45 1.28v2.8h-.79v-5.22h.65l.09.97h.04c.2-.34.43-.61.7-.79.28-.18.57-.28.9-.28zm3.5 5.42c-.76 0-1.35-.23-1.76-.7-.41-.47-.62-1.12-.62-1.97 0-.88.21-1.55.63-2.03.42-.48 1.02-.72 1.8-.72.25 0 .5.03.75.09.25.05.45.11.59.19l-.24.67a4.75 4.75 0 0 0-.57-.18c-.21-.04-.39-.06-.55-.06-1.06 0-1.59.67-1.59 2.03 0 .64.13 1.13.38 1.47.27.35.65.52 1.16.52.43 0 .88-.1 1.33-.29v.71c-.35.18-.78.27-1.31.27zm4.76 0c-.77 0-1.38-.24-1.83-.71-.45-.47-.67-1.12-.67-1.96 0-.84.21-1.51.62-2 .42-.5.97-.75 1.67-.75.66 0 1.18.22 1.56.65.38.43.57 1 .57 1.7v.5h-3.6c.02.62.17 1.08.47 1.4.29.32.7.48 1.24.48.56 0 1.11-.12 1.66-.36v.71c-.28.12-.54.21-.79.26-.25.05-.55.08-.9.08zm-.22-4.75c-.42 0-.75.13-1 .41-.25.27-.39.65-.44 1.13h2.73c0-.5-.11-.88-.33-1.15-.23-.26-.54-.39-.96-.39z" fill="#4d4d4d" fill-rule="nonzero"/></g></g></svg>