<?xml version="1.0" encoding="utf-8"?>
<!-- Generator: Adobe Illustrator 21.0.0, SVG Export Plug-In . SVG Version: 6.00 Build 0)  -->
<svg version="1.1" id="Layer_1" xmlns="http://www.w3.org/2000/svg" xmlns:xlink="http://www.w3.org/1999/xlink" x="0px" y="0px"
	 viewBox="0 0 1794.8 443.9" style="enable-background:new 0 0 1794.8 443.9;" xml:space="preserve">
<style type="text/css">
	.st0{fill:#2A56C6;}
</style>
<g>
	<g>
		<path class="st0" d="M337.8,131.5c-2.5-1.3-5.5-1-7.8,0.6L186.9,236.2c-2.5,1.8-5.8,1.8-8.3,0L35.4,132.2
			c-2.3-1.7-5.3-1.9-7.8-0.6c-2.5,1.3-4.1,3.9-4.1,6.7v141.4c0,8,6.5,14.5,14.5,14.5c8.5,0,15.4-6.9,15.4-15.4v-96.7l118.5,86.1
			c6.5,4.7,15.3,4.7,21.8,0l118.5-86.1v97.6c0,8,6.5,14.5,14.5,14.5c8.5,0,15.4-6.9,15.4-15.4V138.2
			C341.9,135.4,340.4,132.8,337.8,131.5z"/>
		<path class="st0" d="M35.5,126.7l147.2-86.8l147.2,86.8c0.7,0.4,1.5,0.6,2.3,0.6c1.5,0,3-0.8,3.8-2.2c1.3-2.1,0.5-4.9-1.6-6.1
			L182.7,29.5L31,119c-2.1,1.3-2.8,4-1.6,6.1C30.6,127.2,33.4,127.9,35.5,126.7z"/>
		<g>
			<path class="st0" d="M184.8,414.4L28.5,303.6c-2-1.4-2.5-4.2-1.1-6.2c1.4-2,4.2-2.5,6.2-1.1l151,107l147-107c2-1.5,4.8-1,6.2,1
				c1.4,2,1,4.8-1,6.2L184.8,414.4z"/>
		</g>
	</g>
	<g>
		<path class="st0" d="M672.5,289.2h-25v-95c0-23.7-11.2-38.2-34.4-38.2c-20.6,0-35.6,17.2-35.6,40v93.2h-24.7v-95
			c0-23.7-11.8-38.2-34.1-38.2c-20.6,0-35.9,17.2-35.9,40v93.2h-25V136.8h24.1v16.6c9.4-12.7,23.5-20.4,40.3-20.4
			c21.5,0,37.4,9.8,46.8,26c9.4-15.7,25.6-26,47.4-26c35,0,56.2,24,56.2,61.9V289.2z"/>
		<path class="st0" d="M739.9,113.7h-25V83.8h25V113.7z M739.9,289.2h-25V136.8h25V289.2z"/>
		<path class="st0" d="M909.8,289.2H885v-92.6c0-23.4-13-40.5-37.1-40.5c-23,0-39.7,17.2-39.7,40v93.2h-25V136.8h24.1v16.6
			c10.3-12.7,25.9-20.4,44.2-20.4c37.1,0,58.3,26.6,58.3,64.5V289.2z"/>
		<path class="st0" d="M1079.6,228.6c0,37.6-26.8,64.2-63.9,64.2s-64.2-26.6-64.2-64.2V104.3h24.7v32.6h102.4v24H976.3v67.8
			c0,23.1,15.9,40,39.4,40c23.3,0,39.2-16.9,39.2-40v-13.9h24.7V228.6z"/>
		<path class="st0" d="M1255.9,241.9c-10.6,32.6-36.5,50.9-71.5,50.9c-43.6,0-77.7-34.9-77.7-79.6c0-44.1,34.1-80.2,76.2-80.2
			c39.2,0,76.8,32.6,76.5,86.7H1132c3.2,31.7,27.4,50.3,52.4,50.3c21.5,0,36.8-10.4,45-28.1H1255.9z M1231.8,197.2
			c-6.2-24.9-26.8-41.4-48.9-41.4c-20.9,0-43,15.4-49.5,41.4H1231.8z"/>
		<path class="st0" d="M1431.4,282.1c0,48.8-31.5,82-78,82c-35.9,0-63.9-19.2-71.5-50.3h26.2c10,22.8,34.1,26,45.3,26
			c38.9,0,53-30.2,53-57.7v-16c-10.9,14.8-29.7,26.9-51.5,26.9c-43.6,0-75.9-35.8-75.9-79.9s32.4-80.2,75.9-80.2
			c22.4,0,41.8,12.7,52.4,28.1v-24.3h24.1V282.1z M1354.8,156.3c-28.6,0-50.9,25.5-50.9,57.1c0,31.1,22.4,56.5,50.9,56.5
			c28,0,51.5-25.5,51.5-56.5C1406.3,181.8,1382.8,156.3,1354.8,156.3z"/>
		<path class="st0" d="M1598.6,207.8h-24.7v-11.2c0-23.7-13.5-40.5-37.1-40.5c-23,0-39.7,17.2-39.7,40v93.2h-25V136.8h24.1v16.6
			c10.3-12.7,25.9-20.4,44.2-20.4c37.1,0,58.3,26.6,58.3,64.5V207.8z"/>
		<path class="st0" d="M1771.4,289.2h-24.1v-24.6c-10.6,15.7-30,28.4-52.4,28.4c-43.6,0-75.9-35.8-75.9-79.9s32.4-80.2,75.9-80.2
			c22.4,0,41.8,12.7,52.4,28.1v-24.3h24.1V289.2z M1694.8,156.9c-28.6,0-50.9,25.5-50.9,56.5c0,30.5,22.4,55.6,50.9,55.6
			c28,0,51.5-25.2,51.5-55.6C1746.3,182.4,1722.8,156.9,1694.8,156.9z"/>
	</g>
</g>
</svg>
