<svg xmlns="http://www.w3.org/2000/svg" xmlns:xlink="http://www.w3.org/1999/xlink" width="706.443" height="134.485" viewBox="0 0 706.443 134.485">
  <defs>
    <linearGradient id="linear-gradient" y1="1" x2="1" y2="1" gradientUnits="objectBoundingBox">
      <stop offset="0" stop-color="#f1790c"/>
      <stop offset="1" stop-color="#ec4814"/>
    </linearGradient>
  </defs>
  <g id="logo-wapstore" transform="translate(226 10.27)">
    <path id="Caminho_1" data-name="Caminho 1" d="M-169.157,43.612V62.364a4.426,4.426,0,0,1-4.417,4.416h-18.752a4.427,4.427,0,0,1-4.416-4.416V43.612a4.428,4.428,0,0,1,4.416-4.417h18.752c1.253,0,1.788-1.623,1.788-2.654v-21.2a4.863,4.863,0,0,1,4.851-4.85h21.2a4.861,4.861,0,0,1,4.849,4.85v21.2a3.264,3.264,0,0,0,3.252,3.251h24.574c2.015,0,3.251-2.012,3.251-3.859V9.644a5.765,5.765,0,0,1,5.751-5.751h26.289a5.765,5.765,0,0,1,5.75,5.751V35.933a5.765,5.765,0,0,1-5.75,5.751h-26.289a3.568,3.568,0,0,0-3.555,3.555V69.813a5.461,5.461,0,0,1-5.447,5.446h-24.574a5.46,5.46,0,0,1-5.447-5.446V45.239c0-1.543-.8-3.848-2.654-3.848h-21.2a2.23,2.23,0,0,0-2.222,2.221Z" fill-rule="evenodd" fill="url(#linear-gradient)"/>
    <path id="Caminho_2" data-name="Caminho 2" d="M-221.943,14.1h17.226a4.066,4.066,0,0,1,4.057,4.057V35.381a4.067,4.067,0,0,1-4.057,4.058h-17.226A4.067,4.067,0,0,1-226,35.381V18.156a4.066,4.066,0,0,1,4.057-4.057Z" fill="#c1c1c0" fill-rule="evenodd"/>
    <path id="Caminho_3" data-name="Caminho 3" d="M15.432,9.92a4.323,4.323,0,0,0-4.487-3.084A4.266,4.266,0,0,0,6.6,9.92L-8.825,65.584a3.259,3.259,0,0,1-3.365,2.384,3.284,3.284,0,0,1-3.085-2.384L-29.156,7.958a3.919,3.919,0,0,0-3.5-2.805A3.71,3.71,0,0,0-36.306,8.8a3.918,3.918,0,0,0,.139,1.262l13.742,57.346A10.556,10.556,0,0,0-12.19,75.259,10.65,10.65,0,0,0-1.674,67.548L10.945,20.436l12.9,47.112A10.434,10.434,0,0,0,34.08,75.259,10.612,10.612,0,0,0,44.6,67.407L58.617,9.92a7.918,7.918,0,0,1,.14-.981,3.855,3.855,0,0,0-3.646-3.786,4.079,4.079,0,0,0-3.505,2.805L37.445,65.725a3.434,3.434,0,0,1-3.365,2.243A3.16,3.16,0,0,1,31,65.584L15.432,9.92Z" fill="#c1c1c0"/>
    <path id="Caminho_4" data-name="Caminho 4" d="M73.2,7.4c0,2.1,1.4,3.505,3.785,3.505h25.1c7.291,0,11.638,6.169,11.638,13.881V35.018h-24.4a20.2,20.2,0,0,0-20.19,20.191,19.987,19.987,0,0,0,20.19,20.05h26.22a5.454,5.454,0,0,0,5.608-5.609V24.362c0-11.777-7.852-20.471-19.069-20.471H76.7A3.388,3.388,0,0,0,73.2,7.4ZM89.323,67.968a12.836,12.836,0,0,1-12.9-12.759,12.985,12.985,0,0,1,12.9-13.04h24.4v25.8Z" fill="#c1c1c0"/>
    <path id="Caminho_5" data-name="Caminho 5" d="M135.173,97.273a3.716,3.716,0,1,0,7.43,0V75.259h23.276c11.777,0,22.014-8.553,22.014-23.275V30.391c0-10.235-5.889-26.5-22.295-26.5H141.061a6.246,6.246,0,0,0-5.888,6.029V97.273Zm7.43-85.95h23c8.554,0,14.863,7.851,14.863,19.489V51.984c0,9.674-6.731,16.264-14.582,16.264H142.6V11.323Z" fill="#c1c1c0"/>
    <path id="Caminho_6" data-name="Caminho 6" d="M426.123,75.395c-.17-.128-.332-.265-.5-.405h0l1.053-1.284c.123.109.246.208.361.3h0a3.923,3.923,0,0,0,3.978.769h0a8.4,8.4,0,0,0,3.815-3.419h0c2.549-3.8,3.887-9.929,2.893-14h0l1.88.046c1.12,4.856-.343,11.1-3.072,15.267h0A9.622,9.622,0,0,1,432.07,76.6h0a6.068,6.068,0,0,1-5.894-1.158h0c-.016-.014-.037-.031-.053-.046Z" transform="matrix(0.996, -0.087, 0.087, 0.996, -3.209, 38.493)" fill="#464749"/>
    <path id="Uni達o_1" data-name="Uni達o 1" d="M-695.732-367.9c-13.321,0-23.415-9.815-23.415-24.678v-21.312c0-14.862,9.814-26.078,23.415-26.078h8.553c13.46,0,23.276,11.217,23.276,26.078v21.312c0,14.863-10.1,24.678-23.276,24.678Zm-15.985-45.99v21.312c0,9.675,6.872,17.667,15.985,17.667h8.553c8.975,0,15.985-7.992,15.985-17.667v-21.312c0-9.814-7.01-19.068-15.985-19.068h-8.553C-704.846-432.958-711.717-423.7-711.717-413.889Zm129.555,45.148c-20.33,0-25.8-10.937-25.8-33.23v-10.938c0-17.385,11.5-27.2,26.361-27.2,17.384,0,26.92,9.4,26.92,27.2v6.592a5.488,5.488,0,0,1-5.748,5.608h-40.1c.281,16.265,4.486,24.957,18.508,24.957h21.453a3.424,3.424,0,0,1,3.643,3.5,3.388,3.388,0,0,1-3.5,3.506Zm-18.366-44.168v5.189h38.417v-5.189c0-13.179-6.449-20.19-19.489-20.19C-593.518-433.1-600.529-425.106-600.529-412.908Zm-49.354,40.522v-63.936a3.572,3.572,0,0,1,3.645-3.786,3.772,3.772,0,0,1,3.787,3.786v2.8c4.486-4.487,10.935-6.591,19.907-6.591h4.349a3.544,3.544,0,0,1,3.784,3.506,3.387,3.387,0,0,1-3.505,3.5h-4.628c-13.6,0-19.907,7.852-19.907,20.611v40.1a3.656,3.656,0,0,1-3.787,3.646A3.46,3.46,0,0,1-649.883-372.387Zm-85.25,3.646c-15.284,0-21.031-8.132-21.031-23.228v-39.446H-763.6a3.537,3.537,0,0,1-3.644-3.646,3.654,3.654,0,0,1,3.644-3.786h7.432v-11.637a3.654,3.654,0,0,1,3.646-3.785,3.8,3.8,0,0,1,3.786,3.926v11.5h18.648a3.722,3.722,0,0,1,3.926,3.786,3.574,3.574,0,0,1-3.785,3.646h-18.788v39.446c0,10.352,3.364,15.8,13.6,15.8h5.189a3.685,3.685,0,0,1,3.785,3.785,3.574,3.574,0,0,1-3.785,3.646Zm-92.258,0a3.472,3.472,0,0,1-3.505-3.506,3.471,3.471,0,0,1,3.505-3.5h19.769c11.357,0,18.648-3.226,18.648-13.181,0-6.729-5.467-10.936-15.142-12.2l-6.03-.7c-14.3-1.542-22.856-6.029-22.856-18.788,0-13.882,11.076-19.349,23.836-19.349h21.453a3.544,3.544,0,0,1,3.784,3.5,3.388,3.388,0,0,1-3.505,3.505h-21.732c-9.113,0-16.125,3.364-16.125,12.057,0,7.852,5.189,10.516,17.107,11.919l5.328.7c13.321,1.822,21.592,7.571,21.592,19.208,0,15.564-10.8,20.331-26.359,20.331Z" transform="translate(1035.123 444)" fill="url(#linear-gradient)"/>
    <path id="Exclus達o_1" data-name="Exclus達o 1" d="M-811.356-395.445a3.376,3.376,0,0,1-2.477-1.085l-18.275-19.813a3.338,3.338,0,0,1-.889-2.415,3.35,3.35,0,0,1,1.084-2.345l34.305-31.64c1.35-1.246,25.338-1.524,25.58-1.526l0,.051c-.145,2.561-1.451,25.055-2.736,26.241l-34.307,31.641A3.365,3.365,0,0,1-811.356-395.445Zm31.61-55.359a3.977,3.977,0,0,0-2.705,1.058,3.962,3.962,0,0,0-1.284,2.771,3.968,3.968,0,0,0,1.056,2.871,3.807,3.807,0,0,0,2.827,1.327,4.108,4.108,0,0,0,2.684-1.057,4.149,4.149,0,0,0,1.457-2.853,3.833,3.833,0,0,0-1.1-2.83A4,4,0,0,0-779.747-450.8Z" transform="translate(1202.569 519.16)" fill="#c1c1c0" stroke="rgba(0,0,0,0)" stroke-miterlimit="10" stroke-width="1"/>
    <path id="Caminho_14" data-name="Caminho 14" d="M393.673,115.795a2.84,2.84,0,0,1-4.015-.161l-12.126-13.148a2.842,2.842,0,0,1,.164-4.014l24.282-22.395a2.842,2.842,0,0,1,4.015.162l12.124,13.147a2.843,2.843,0,0,1-.162,4.015l-24.282,22.394Z" fill="#fff"/>
    <path id="Caminho_15" data-name="Caminho 15" d="M419.971,69.126a7.9,7.9,0,0,1,1.9-3.883h0a28.2,28.2,0,0,1,13.67-8.338h0a6.735,6.735,0,0,1,4.064.5l.02.073L439.3,58.69a5.334,5.334,0,0,0-2.891.046h0a20.894,20.894,0,0,0-4.518,1.651h0a26.228,26.228,0,0,0-8.386,6.228h0a6.706,6.706,0,0,0-1.615,3.189h0a2.153,2.153,0,0,0,.837,2.09c.407.324,3.168,1.529,3.83,1.844l-1.056,1.5a26.267,26.267,0,0,1-3.863-2.119,4.459,4.459,0,0,1-1.67-3.989Z" fill="#464749"/>
  </g>
</svg>
