<?xml version="1.0" encoding="UTF-8"?>
<!DOCTYPE svg PUBLIC "-//W3C//DTD SVG 1.1//EN" "http://www.w3.org/Graphics/SVG/1.1/DTD/svg11.dtd">
<!-- Creator: CorelDRAW X8 -->
<svg xmlns="http://www.w3.org/2000/svg" xml:space="preserve" width="77.4698mm" height="24.9766mm" version="1.1" style="shape-rendering:geometricPrecision; text-rendering:geometricPrecision; image-rendering:optimizeQuality; fill-rule:evenodd; clip-rule:evenodd"
viewBox="0 0 7747 2498"
 xmlns:xlink="http://www.w3.org/1999/xlink">
 <defs>
   <mask id="id0">
  <linearGradient id="id1" gradientUnits="userSpaceOnUse" x1="964.875" y1="1183.63" x2="1570.35" y2="3448.12">
   <stop offset="0" style="stop-opacity:1; stop-color:white"/>
   <stop offset="1" style="stop-opacity:0.909804; stop-color:white"/>
  </linearGradient>
    <rect style="fill:url(#id1)" x="100" y="241" width="1838" height="1835"/>
   </mask>
   <mask id="id2">
  <linearGradient id="id3" gradientUnits="userSpaceOnUse" x1="1186.18" y1="2310.06" x2="1418.05" y2="3253.97">
   <stop offset="0" style="stop-opacity:0.878431; stop-color:white"/>
   <stop offset="0.54902" style="stop-opacity:0.560784; stop-color:white"/>
   <stop offset="1" style="stop-opacity:0; stop-color:white"/>
  </linearGradient>
    <rect style="fill:url(#id3)" x="51" y="36" width="1935" height="2246"/>
   </mask>
  <linearGradient id="id4" gradientUnits="userSpaceOnUse" x1="533.872" y1="473.93" x2="1304.29" y2="2444.8">
   <stop offset="0" style="stop-opacity:1; stop-color:#5A4C9D"/>
   <stop offset="1" style="stop-opacity:1; stop-color:#2F79BD"/>
  </linearGradient>
  <linearGradient id="id5" gradientUnits="userSpaceOnUse" x1="597.339" y1="590.954" x2="1278.47" y2="2131.07">
   <stop offset="0" style="stop-opacity:1; stop-color:#5A4C9D"/>
   <stop offset="1" style="stop-opacity:1; stop-color:#4663AC"/>
  </linearGradient>
  <linearGradient id="id6" gradientUnits="userSpaceOnUse" x1="826.901" y1="718.929" x2="1603.33" y2="2540.94">
   <stop offset="0" style="stop-opacity:1; stop-color:#6153A0"/>
   <stop offset="0.541176" style="stop-opacity:1; stop-color:#4465AD"/>
   <stop offset="1" style="stop-opacity:1; stop-color:#2677BB"/>
  </linearGradient>
  <linearGradient id="id7" gradientUnits="userSpaceOnUse" xlink:href="#id6" x1="4990.93" y1="2945.91" x2="4330.1" y2="72.72">
  </linearGradient>
 </defs>
 <g id="Layer_x0020_1">
  <metadata id="CorelCorpID_0Corel-Layer"/>
  <path class="fil0" d="M2291 2271c0,-16 3,-31 8,-45 6,-14 14,-26 25,-36 10,-10 22,-18 35,-23 14,-6 29,-9 45,-9 15,0 30,3 44,9 14,6 25,14 36,24 10,10 18,22 24,35 6,14 9,29 9,45 0,15 -3,30 -9,44 -6,14 -14,25 -24,36 -11,10 -22,18 -36,24 -14,6 -29,9 -44,9 -6,0 -13,-1 -19,-3 -6,-1 -12,-3 -17,-5 -6,-2 -11,-5 -16,-8 -5,-2 -9,-6 -13,-9l0 98 -48 0 0 -186zm48 0c0,9 2,17 5,25 4,8 8,15 14,20 6,6 13,11 21,14 7,4 16,5 25,5 9,0 17,-1 25,-5 8,-3 15,-8 20,-14 6,-5 11,-12 14,-20 4,-8 5,-16 5,-25 0,-9 -1,-18 -5,-25 -3,-8 -8,-15 -14,-21 -5,-6 -12,-10 -20,-14 -8,-3 -16,-5 -25,-5 -9,0 -18,2 -25,5 -8,4 -15,8 -21,14 -6,6 -10,13 -14,21 -3,7 -5,16 -5,25zm204 -187l48 0 0 290 -48 0 0 -290zm77 186c0,-16 3,-30 9,-44 6,-14 14,-26 24,-36 10,-10 22,-18 36,-24 14,-6 28,-9 44,-9 16,0 31,3 44,9 14,6 26,14 36,24 10,10 18,22 24,36 6,14 9,28 9,44l0 104 -48 0 0 -11c-19,13 -41,20 -65,20 -17,0 -33,-3 -46,-9 -14,-5 -26,-13 -36,-24 -10,-10 -18,-22 -23,-36 -5,-13 -8,-28 -8,-44zm48 0c0,9 2,17 5,25 4,8 8,15 14,21 6,6 13,10 21,14 8,3 16,5 25,5 9,0 17,-2 25,-5 8,-3 15,-7 21,-13 6,-6 11,-13 14,-21 3,-8 5,-16 5,-26 0,-9 -2,-17 -5,-25 -4,-8 -8,-15 -14,-20 -6,-6 -13,-11 -21,-14 -8,-4 -16,-5 -25,-5 -9,0 -17,1 -25,5 -8,3 -15,8 -21,14 -6,5 -10,12 -14,20 -3,8 -5,16 -5,25zm191 -55l0 -48 19 0 0 -74 49 0 0 74 48 0 0 48 -48 0 0 159 -49 0 0 -159 -19 0zm140 55c0,-16 3,-30 9,-44 6,-14 14,-26 24,-36 10,-10 22,-18 36,-24 14,-6 28,-9 44,-9 16,0 31,3 44,9 14,6 26,14 36,24 10,10 18,22 24,36 6,14 9,28 9,44l0 104 -48 0 0 -11c-19,13 -41,20 -65,20 -17,0 -33,-3 -47,-9 -14,-5 -25,-13 -35,-24 -10,-10 -18,-22 -23,-36 -6,-13 -8,-28 -8,-44zm48 0c0,9 2,17 5,25 4,8 8,15 14,21 6,6 13,10 21,14 8,3 16,5 25,5 9,0 17,-2 25,-5 8,-3 15,-7 21,-13 6,-6 11,-13 14,-21 3,-8 5,-16 5,-26 0,-9 -2,-17 -5,-25 -4,-8 -9,-15 -14,-20 -6,-6 -13,-11 -21,-14 -8,-4 -16,-5 -25,-5 -9,0 -17,1 -25,5 -8,3 -15,8 -21,14 -6,5 -10,12 -14,20 -3,8 -5,16 -5,25zm291 -125c0,-4 -1,-7 -3,-9 -2,-3 -5,-4 -9,-4 -4,0 -7,1 -9,4 -3,2 -4,5 -4,9l0 80 48 0 0 49 -48 0 0 100 -49 0 0 -100 -19 0 0 -49 19 0 0 -80c0,-9 2,-17 4,-24 2,-7 6,-14 11,-19 5,-6 11,-10 19,-13 7,-3 16,-5 27,-5 11,0 20,1 28,4 8,3 14,7 19,13 5,5 9,12 11,19 2,8 3,16 3,25l0 12 -48 0 0 -12zm45 125c0,-16 3,-30 9,-44 6,-14 14,-26 24,-36 11,-10 23,-18 36,-24 14,-6 29,-9 44,-9 16,0 31,3 45,9 13,6 25,14 35,24 10,10 18,22 24,36 6,14 9,28 9,44 0,16 -3,31 -9,44 -6,14 -14,26 -24,36 -10,10 -22,18 -35,24 -14,6 -29,9 -45,9 -15,0 -30,-3 -44,-9 -13,-6 -25,-14 -36,-24 -10,-10 -18,-22 -24,-36 -6,-13 -9,-28 -9,-44zm48 0c0,9 2,17 5,25 4,8 9,15 14,21 6,6 13,10 21,14 8,3 16,5 25,5 9,0 17,-2 25,-5 8,-4 15,-8 21,-14 6,-6 11,-13 14,-21 3,-8 5,-16 5,-25 0,-9 -2,-17 -5,-25 -3,-8 -8,-15 -14,-20 -6,-6 -13,-11 -21,-14 -8,-4 -16,-5 -25,-5 -9,0 -17,1 -25,5 -8,3 -15,8 -21,14 -5,5 -10,12 -14,20 -3,8 -5,16 -5,25zm207 -103l48 0 0 21c10,-7 21,-13 34,-16 13,-4 27,-6 42,-6l0 48c-11,0 -20,2 -29,5 -10,4 -18,9 -25,15 -6,5 -12,12 -16,20 -4,8 -6,17 -6,25l0 95 -48 0 0 -207zm157 0l49 0 0 12c6,-8 13,-13 20,-17 7,-3 16,-5 25,-5 14,0 27,3 38,9 12,6 22,13 30,23 9,-10 20,-17 32,-23 13,-6 26,-9 40,-9 13,0 25,3 37,8 11,5 21,12 29,20 9,9 16,19 21,30 5,12 7,24 7,37l0 122 -48 0 -1 -122c0,-6 -1,-12 -3,-17 -3,-6 -6,-11 -10,-15 -4,-4 -9,-7 -15,-10 -5,-2 -11,-4 -17,-4 -6,0 -12,2 -18,4 -5,3 -10,6 -14,10 -4,4 -7,9 -10,15 -2,5 -3,11 -3,17l0 122 -49 0 0 -122c0,-6 -2,-12 -4,-18 -2,-5 -5,-10 -10,-14 -4,-5 -9,-8 -14,-10 -6,-2 -12,-4 -18,-4 -6,0 -12,2 -18,4 -5,3 -10,6 -14,10 -4,5 -7,9 -10,15 -2,6 -3,11 -3,17l0 122 -49 0 0 -207zm357 103c0,-16 3,-30 9,-44 6,-14 14,-26 24,-36 11,-10 23,-18 36,-24 14,-6 29,-9 44,-9 16,0 31,3 45,9 13,6 25,14 35,24 10,10 18,22 24,36 6,14 9,28 9,44l0 104 -48 0 0 -11c-19,13 -41,20 -65,20 -17,0 -32,-3 -46,-9 -14,-5 -26,-13 -36,-24 -10,-10 -17,-22 -23,-36 -5,-13 -8,-28 -8,-44zm48 0c0,9 2,17 5,25 4,8 9,15 14,21 6,6 13,10 21,14 8,3 16,5 25,5 9,0 18,-2 25,-5 8,-3 15,-7 21,-13 6,-6 11,-13 14,-21 4,-8 5,-16 5,-26 0,-9 -2,-17 -5,-25 -3,-8 -8,-15 -14,-20 -6,-6 -13,-11 -21,-14 -7,-4 -16,-5 -25,-5 -9,0 -17,1 -25,5 -8,3 -15,8 -21,14 -5,5 -10,12 -14,20 -3,8 -5,16 -5,25zm570 0c0,16 -3,31 -9,45 -5,14 -13,25 -24,36 -10,10 -22,18 -36,23 -13,6 -28,9 -44,9 -16,0 -30,-3 -44,-9 -14,-6 -26,-14 -36,-24 -10,-10 -18,-22 -24,-36 -6,-13 -9,-28 -9,-44 0,-16 3,-30 9,-44 6,-14 14,-26 24,-36 10,-10 22,-18 36,-24 14,-6 28,-9 44,-9 6,0 12,1 18,2 7,2 12,4 18,6 6,2 11,5 16,8 5,2 9,6 13,9l0 -98 48 0 0 186zm-48 0c0,-9 -2,-17 -5,-25 -4,-8 -8,-15 -14,-20 -6,-6 -13,-11 -21,-14 -8,-4 -16,-5 -25,-5 -9,0 -17,1 -25,5 -8,3 -15,8 -20,14 -6,5 -11,12 -14,20 -4,8 -6,16 -6,25 0,9 2,17 6,25 3,8 8,15 14,21 5,6 12,10 20,14 8,3 16,5 25,5 9,0 17,-2 25,-5 8,-4 15,-8 21,-14 6,-6 10,-13 14,-21 3,-8 5,-16 5,-25zm123 4c0,8 2,16 6,24 3,7 8,14 14,19 6,6 12,10 20,13 8,3 16,5 25,5 14,0 26,-4 36,-11 11,-7 18,-16 23,-28l53 0c-5,16 -11,29 -19,40 -8,11 -17,20 -27,27 -10,7 -20,12 -32,15 -11,4 -23,5 -34,5 -16,0 -31,-3 -45,-9 -13,-6 -25,-14 -35,-24 -11,-10 -19,-22 -24,-36 -6,-13 -9,-28 -9,-44 0,-16 3,-30 9,-44 5,-14 13,-26 24,-36 10,-10 22,-18 35,-24 14,-6 29,-9 45,-9 17,0 33,4 46,10 14,6 26,15 36,25 9,11 17,23 22,37 6,14 9,29 9,45l-178 0zm120 -42c-11,-18 -29,-27 -55,-27 -27,1 -45,10 -56,27l111 0zm267 42c0,8 2,16 6,24 3,7 8,14 14,19 6,6 13,10 20,13 8,3 16,5 25,5 14,0 26,-4 37,-11 10,-7 17,-16 22,-28l53 0c-5,16 -11,29 -19,40 -8,11 -16,20 -26,27 -10,7 -21,12 -33,15 -11,4 -23,5 -34,5 -16,0 -31,-3 -44,-9 -14,-6 -26,-14 -36,-24 -10,-10 -18,-22 -24,-36 -6,-13 -9,-28 -9,-44 0,-16 3,-30 9,-44 6,-14 14,-26 24,-36 10,-10 22,-18 36,-24 13,-6 28,-9 44,-9 17,0 33,4 47,10 13,6 25,15 35,25 10,11 17,23 23,37 5,14 8,29 8,45l-178 0zm120 -42c-11,-18 -29,-27 -55,-27 -26,1 -45,10 -55,27l110 0zm234 -7l0 49 -148 0 0 -49 148 0zm75 45c0,9 2,17 5,25 4,8 8,15 14,21 6,6 13,10 21,14 8,3 16,5 25,5 11,0 20,-2 29,-6 9,-4 16,-10 22,-18l54 0c-5,13 -12,24 -19,33 -8,9 -16,16 -26,22 -9,6 -18,10 -29,13 -10,3 -20,4 -31,4 -16,0 -31,-3 -44,-9 -14,-6 -26,-14 -36,-24 -10,-10 -18,-22 -24,-36 -6,-13 -9,-28 -9,-44 0,-16 3,-30 9,-44 6,-14 14,-26 24,-36 10,-10 22,-18 36,-24 13,-6 28,-9 44,-9 10,0 20,2 31,4 10,3 20,7 29,13 10,6 18,13 26,22 8,9 14,20 19,33l-54 0c-6,-9 -14,-14 -22,-18 -9,-4 -19,-5 -29,-5 -9,0 -17,1 -25,5 -8,3 -15,8 -21,14 -6,5 -10,12 -14,20 -3,8 -5,16 -5,25zm192 0c0,-16 3,-30 9,-44 6,-14 14,-26 24,-36 11,-10 23,-18 36,-24 14,-6 29,-9 45,-9 15,0 30,3 44,9 13,6 25,14 35,24 11,10 19,22 25,36 5,14 8,28 8,44 0,16 -3,31 -8,44 -6,14 -14,26 -25,36 -10,10 -22,18 -35,24 -14,6 -29,9 -44,9 -16,0 -31,-3 -45,-9 -13,-6 -25,-14 -36,-24 -10,-10 -18,-22 -24,-36 -6,-13 -9,-28 -9,-44zm48 0c0,9 2,17 6,25 3,8 8,15 14,21 5,6 12,10 20,14 8,3 17,5 25,5 9,0 18,-2 26,-5 8,-4 14,-8 20,-14 6,-6 11,-13 14,-21 4,-8 5,-16 5,-25 0,-9 -1,-17 -5,-25 -3,-8 -8,-15 -14,-20 -6,-6 -12,-11 -20,-14 -8,-4 -17,-5 -26,-5 -8,0 -17,1 -25,5 -8,3 -15,8 -20,14 -6,5 -11,12 -14,20 -4,8 -6,16 -6,25zm205 -103l49 0 0 12c7,-8 14,-13 21,-17 7,-3 15,-5 25,-5 14,0 27,3 38,9 12,6 22,13 30,23 9,-10 20,-17 32,-23 13,-6 26,-9 40,-9 13,0 25,3 36,8 12,5 22,12 30,20 9,9 15,19 20,30 5,12 8,24 8,37l0 122 -49 0 0 -122c0,-6 -1,-12 -4,-17 -2,-6 -5,-11 -10,-15 -4,-4 -9,-7 -14,-10 -6,-2 -11,-4 -17,-4 -7,0 -13,2 -18,4 -6,3 -10,6 -14,10 -5,4 -8,9 -10,15 -3,5 -4,11 -4,17l1 122 -49 0 -1 -122c0,-6 -1,-12 -3,-18 -3,-5 -6,-10 -10,-14 -4,-5 -9,-8 -15,-10 -5,-2 -11,-4 -17,-4 -7,0 -13,2 -18,4 -5,3 -10,6 -14,10 -4,5 -8,9 -10,15 -2,6 -4,11 -4,17l1 122 -49 0 -1 -207zm361 0l49 0 0 12c6,-8 13,-13 20,-17 8,-3 16,-5 25,-5 14,0 27,3 39,9 11,6 21,13 30,23 9,-10 19,-17 32,-23 12,-6 25,-9 39,-9 13,0 25,3 37,8 11,5 21,12 30,20 8,9 15,19 20,30 5,12 7,24 7,37l1 122 -49 0 -1 -122c0,-6 -1,-12 -3,-17 -2,-6 -6,-11 -10,-15 -4,-4 -9,-7 -14,-10 -6,-2 -12,-4 -18,-4 -6,0 -12,2 -17,4 -6,3 -11,6 -15,10 -4,4 -7,9 -10,15 -2,5 -3,11 -3,17l0 122 -49 0 0 -122c0,-6 -1,-12 -4,-18 -2,-5 -5,-10 -9,-14 -4,-5 -9,-8 -15,-10 -6,-2 -12,-4 -18,-4 -6,0 -12,2 -17,4 -6,3 -11,6 -15,10 -4,5 -7,9 -9,15 -3,6 -4,11 -4,17l0 122 -48 0 -1 -207zm404 107c0,8 2,16 6,24 3,7 8,14 14,19 6,6 12,10 20,13 8,3 16,5 25,5 14,0 26,-4 37,-11 10,-7 17,-16 22,-28l53 0c-5,16 -11,29 -19,40 -8,11 -17,20 -27,27 -9,7 -20,12 -32,15 -11,4 -23,5 -34,5 -16,0 -31,-3 -45,-9 -13,-6 -25,-14 -35,-24 -10,-10 -19,-22 -24,-36 -6,-13 -9,-28 -9,-44 0,-16 3,-30 9,-44 5,-14 14,-26 24,-36 10,-10 22,-18 35,-24 14,-6 29,-9 45,-9 17,0 33,4 47,10 13,6 25,15 35,25 10,11 17,23 22,37 6,14 9,29 9,45l-178 0zm120 -42c-11,-18 -29,-27 -55,-27 -26,1 -45,10 -56,27l111 0zm87 -65l48 0 0 21c10,-7 21,-13 34,-16 12,-4 26,-6 42,-6l0 48c-11,0 -21,2 -30,5 -9,4 -17,9 -24,15 -7,5 -12,12 -16,20 -4,8 -6,17 -6,25l0 95 -48 0 0 -207zm176 103c0,9 1,17 5,25 3,8 8,15 14,21 5,6 12,10 20,14 8,3 16,5 25,5 11,0 21,-2 30,-6 9,-4 16,-10 21,-18l54 0c-5,13 -11,24 -19,33 -8,9 -16,16 -25,22 -9,6 -19,10 -29,13 -10,3 -21,4 -32,4 -15,0 -30,-3 -44,-9 -14,-6 -25,-14 -36,-24 -10,-10 -18,-22 -24,-36 -6,-13 -9,-28 -9,-44 0,-16 3,-30 9,-44 6,-14 14,-26 24,-36 11,-10 22,-18 36,-24 14,-6 29,-9 44,-9 11,0 21,2 31,4 11,3 20,7 30,13 9,6 17,13 25,22 8,9 14,20 20,33l-55 0c-6,-9 -13,-14 -22,-18 -9,-4 -18,-5 -29,-5 -9,0 -17,1 -25,5 -8,3 -15,8 -20,14 -6,5 -11,12 -14,20 -4,8 -5,16 -5,25zm239 4c1,8 3,16 6,24 4,7 9,14 14,19 6,6 13,10 21,13 7,3 16,5 24,5 15,0 27,-4 37,-11 10,-7 18,-16 23,-28l52 0c-4,16 -11,29 -18,40 -8,11 -17,20 -27,27 -10,7 -21,12 -32,15 -12,4 -23,5 -35,5 -16,0 -30,-3 -44,-9 -14,-6 -26,-14 -36,-24 -10,-10 -18,-22 -24,-36 -6,-13 -9,-28 -9,-44 0,-16 3,-30 9,-44 6,-14 14,-26 24,-36 10,-10 22,-18 36,-24 14,-6 28,-9 44,-9 18,0 33,4 47,10 14,6 26,15 35,25 10,11 18,23 23,37 5,14 8,29 8,45l-178 0zm120 -42c-10,-18 -28,-27 -54,-27 -27,1 -46,10 -56,27l110 0z"/>
  <path class="fil1" d="M6625 1159c0,54 10,105 31,153 21,48 50,90 85,125 35,36 77,64 125,85 48,21 99,31 153,31 65,0 125,-12 179,-36 54,-25 98,-60 131,-107l329 0c-32,75 -71,141 -118,197 -46,55 -97,101 -152,136 -56,35 -115,61 -177,78 -63,17 -127,25 -192,25 -96,0 -186,-18 -269,-54 -84,-36 -156,-85 -218,-146 -62,-62 -111,-134 -146,-218 -36,-83 -54,-173 -54,-269 0,-96 18,-185 54,-269 35,-83 84,-155 146,-217 62,-61 134,-110 218,-146 83,-36 173,-55 269,-55 62,0 125,8 188,24 63,16 123,42 179,77 57,36 108,81 156,136 47,54 86,120 118,198l-331 0c-37,-51 -82,-87 -136,-109 -54,-22 -112,-33 -174,-33 -54,0 -105,11 -153,32 -48,21 -90,49 -125,85 -35,35 -64,77 -85,125 -21,48 -31,99 -31,152zm-4340 1c0,-96 18,-186 54,-269 36,-84 86,-156 148,-218 62,-61 135,-110 218,-146 84,-36 173,-54 269,-54 96,0 186,18 269,54 84,36 156,85 218,146 61,62 110,134 146,218 36,83 54,173 54,269 0,96 -18,185 -54,269 -36,83 -85,155 -146,217 -62,61 -134,110 -218,146 -83,37 -173,55 -269,55 -96,0 -185,-18 -269,-55 -83,-36 -156,-85 -218,-146 -62,-62 -112,-134 -148,-217 -36,-84 -54,-173 -54,-269zm293 0c0,54 10,105 31,153 21,48 50,89 85,125 36,35 78,63 126,84 48,21 99,32 153,32 54,0 105,-11 153,-32 49,-21 90,-49 126,-84 35,-36 64,-77 85,-125 21,-48 31,-99 31,-153 0,-54 -10,-105 -31,-153 -21,-48 -50,-90 -85,-125 -36,-35 -77,-64 -126,-85 -48,-21 -99,-31 -153,-31 -54,0 -105,10 -153,31 -48,21 -90,50 -126,85 -35,35 -64,77 -85,125 -21,48 -31,99 -31,153zm1295 -686l319 0 0 138c66,-46 141,-82 225,-106 85,-25 177,-37 278,-37l0 319c-70,0 -135,11 -195,34 -61,23 -114,54 -160,93 -45,40 -82,86 -108,138 -27,52 -40,108 -40,166l0 630 -319 0 0 -1375zm1917 0l318 0 0 748c0,86 -16,167 -49,242 -33,75 -77,142 -133,199 -56,58 -122,103 -198,136 -76,33 -158,50 -244,50 -86,0 -167,-17 -242,-50 -75,-33 -141,-78 -199,-136 -58,-57 -103,-124 -136,-200 -33,-76 -50,-158 -50,-244l0 -745 319 0 0 748c0,42 9,82 25,118 17,37 39,69 66,96 28,28 60,49 98,65 37,16 77,23 119,23 42,0 82,-7 119,-23 36,-16 68,-37 96,-65 27,-27 49,-59 66,-96 16,-36 25,-76 25,-118l0 -748z"/>
  <polygon class="fil2" points="757,241 1679,472 1938,1385 1285,2076 365,1840 100,927 "/>
  <path class="fil3" style="mask:url(#id0)" d="M1768 1354l170 31 -653 691 -38 -133 38 133 -920 -236 0 0 -265 -913 0 0 657 -686 0 0 922 231 -135 138 135 -138 259 913 -170 -31zm-250 -717l0 0 -699 -170 -496 516 0 0 204 690 0 0 694 181 481 -512 0 0 -184 -705z"/>
  <path class="fil4" style="mask:url(#id2)" d="M1806 1618l181 89 -960 575 0 -153 0 153 -965 -560 0 0 -10 -1118 -1 0 962 -568 0 0 971 554 -198 115 198 -115 3 1117 -181 -89zm-57 -892l0 0 -738 -415 -725 427 0 0 11 846 0 0 729 426 707 -428 0 0 16 -856z"/>
  <path class="fil5" d="M592 889l191 0c20,0 37,13 44,31l0 0 27 66 508 0 0 0 118 0 0 0 0 0 -8 20 -117 287 0 0 -38 92 0 0 0 0 0 0 -421 0 0 0 0 0 -162 -403 -142 0c-26,0 -47,-21 -47,-47l0 0c0,-25 21,-46 47,-46zm728 200l-425 0 82 204 260 0 83 -204zm-51 337c38,0 70,32 70,70 0,39 -32,70 -70,70 -39,0 -71,-31 -71,-70 0,-38 32,-70 71,-70zm-307 0c39,0 70,32 70,70 0,39 -31,70 -70,70 -39,0 -70,-31 -70,-70 0,-38 31,-70 70,-70z"/>
 </g>
</svg>
