<svg id="Layer_1" data-name="Layer 1" xmlns="http://www.w3.org/2000/svg" viewBox="0 0 800 600"><defs><style>.cls-1{fill:#390;}.cls-2,.cls-4{fill:none;}.cls-3{fill:#fff;}.cls-4{stroke:#fff;stroke-width:3px;}</style></defs><title>pluggto-logo</title><rect class="cls-1" x="189.84" y="156.8" width="412.06" height="322.44"/><path class="cls-2" d="M235.42,336.15s-1.56-58.56,62.64-64.56c0,0,4.18-70.43,77.26-73.37,0,0,54.29-6.84,79.34,48.92,0,0,65.77-8.81,76.21,51.84,0,0,36,9.29,32.37,50.87,0,0-1,45-66.82,48.91,0,0-35.5,35.21-78.3,2.93H297S232.29,399.21,235.42,336.15Z"/><path class="cls-3" d="M240,336.15c-.2-8.9,2.27-18.28,5.94-26.3,9.56-20.91,29.9-31.36,52.08-33.64a4.75,4.75,0,0,0,4.62-4.62c1.75-28.14,21.81-56.3,50.3-65.14a90.77,90.77,0,0,1,43.26-2.33c25.19,5,43.85,22.38,54.43,45.35a4.44,4.44,0,0,0,4,2.28,81.44,81.44,0,0,1,30.88,2.42c22.67,6,36.71,23.28,40.88,46a4.54,4.54,0,0,0,3.22,3.22c14.82,3.92,25.53,17.12,28.5,31.74,2.52,12.39.23,23.58-6.82,34.18-5.44,8.16-13.77,13.81-22.57,17.8a83.11,83.11,0,0,1-19.5,5.56c-4.78.87-12.8-.29-16.5,3.17a54.52,54.52,0,0,1-62.41,8.2c-3.84-2-8.27-7-12.68-7H327.25c-23.46,0-44.29,1.89-64.9-11.49-16.92-11-23.08-30-22.31-49.43.24-5.95-9-5.93-9.23,0-.92,23.13,7.37,44.24,26.88,57.4,11.06,7.47,24.71,11.5,37.94,12.66,8.92.79,18.16.1,27.11.1h95.31c-1.7,0,3.67,3.45,3.71,3.47a72,72,0,0,0,14.55,6.94c21.21,7.69,47.35,1,63.38-14.7l-3.27,1.36c30.28-2,65.54-15.61,71-49.42,4-25.25-9.42-52.6-35.28-59.43l3.22,3.22c-4.47-24.44-19.58-43.1-43.15-51.22a85.22,85.22,0,0,0-37.51-4l4,2.28C447.85,221.39,429,203.58,404,196.5c-13.41-3.8-27.08-3.6-40.75-1.75-38.29,5.18-64.55,36.4-69.5,73.61-.14,1.07-.28,2.15-.34,3.23l4.61-4.62c-24.41,2.51-46.71,13.18-58.66,35.42-5.38,10-8.86,22.32-8.59,33.76C230.94,342.1,240.18,342.11,240,336.15Z"/><path class="cls-3" d="M457.12,311H448.7v-8h24.71v8H465v44.87h-7.92Z"/><path class="cls-3" d="M300.15,301.17a12.09,12.09,0,0,1,9.22,3.64,12.65,12.65,0,0,1,3.18,8.88v7.63a12.24,12.24,0,0,1-3.62,8.88,11.85,11.85,0,0,1-8.78,3.69h-4.56v19.77h-7.92V301.17Zm4.74,12.65a4.54,4.54,0,0,0-1.24-3.31,4.39,4.39,0,0,0-3.29-1.26h-4.77v16.8h4.77a4.31,4.31,0,0,0,3.21-1.34,4.42,4.42,0,0,0,1.32-3.22Z"/><path class="cls-3" d="M339.27,353.66H317.7V301.17h7.91v44.61h13.66Z"/><path class="cls-3" d="M356.06,354.24a12.45,12.45,0,0,1-12.53-12.48V301.17h7.75v40.51a4.34,4.34,0,0,0,1.34,3.2,4.45,4.45,0,0,0,3.23,1.32,4.51,4.51,0,0,0,4.52-4.52V301.17h8.25v40.59a11.94,11.94,0,0,1-3.68,8.88A12.26,12.26,0,0,1,356.06,354.24Z"/><path class="cls-3" d="M386.92,354.33a12.56,12.56,0,0,1-12.57-12.53V313.15a12.55,12.55,0,1,1,25.1,0v6h-8.21V313a4.58,4.58,0,0,0-4.57-4.56,4.29,4.29,0,0,0-3.2,1.34,4.42,4.42,0,0,0-1.32,3.22v28.74a4.51,4.51,0,0,0,4.52,4.52,4.48,4.48,0,0,0,3.23-1.31,4.34,4.34,0,0,0,1.34-3.2V331.41h-4.4v-8h12.61V341.8a12.53,12.53,0,0,1-12.53,12.53Z"/><path class="cls-3" d="M417.58,354.33A12.55,12.55,0,0,1,405,341.8V313.15a12.55,12.55,0,1,1,25.09,0v6h-8.21V313a4.58,4.58,0,0,0-4.57-4.56,4.31,4.31,0,0,0-3.2,1.34A4.42,4.42,0,0,0,412.8,313v28.74a4.51,4.51,0,0,0,4.52,4.52,4.46,4.46,0,0,0,3.23-1.31,4.34,4.34,0,0,0,1.34-3.2V331.41h-4.4v-8H430.1V341.8a12.53,12.53,0,0,1-12.52,12.53Z"/><path class="cls-3" d="M434.37,345.78h7.91v7.92h-7.91Z"/><path class="cls-3" d="M490.2,302.32a12.55,12.55,0,0,1,12.57,12.56v28.66a12.55,12.55,0,1,1-25.09,0V314.88a12.53,12.53,0,0,1,12.52-12.56Zm4.32,12.4a4.51,4.51,0,0,0-4.53-4.53,4.42,4.42,0,0,0-3.22,1.32,4.31,4.31,0,0,0-1.34,3.21v28.73a4.31,4.31,0,0,0,1.34,3.21A4.42,4.42,0,0,0,490,348a4.51,4.51,0,0,0,4.53-4.53Z"/><path class="cls-3" d="M500.15,208.31a1.14,1.14,0,0,1-1.06,1.19h0a1.14,1.14,0,0,1-1.19-1.06l-.48-8.66a1.14,1.14,0,0,1,1.07-1.19h0a1.12,1.12,0,0,1,1.18,1.06Z"/><path class="cls-3" d="M508.28,207.85a1.12,1.12,0,0,1-1.06,1.19h0A1.12,1.12,0,0,1,506,208l-.48-8.65a1.13,1.13,0,0,1,1.06-1.19h0a1.14,1.14,0,0,1,1.19,1.06Z"/><path class="cls-3" d="M514.14,207.2a1.8,1.8,0,0,1-1.68,1.89l-18.71,1a1.78,1.78,0,0,1-1.88-1.68h0a1.79,1.79,0,0,1,1.68-1.88l18.7-1a1.78,1.78,0,0,1,1.89,1.68Z"/><path class="cls-3" d="M512.14,216.44a2.47,2.47,0,0,1-2.24,2.66l-12.5.7a2.47,2.47,0,0,1-2.51-2.41l-.38-6.75a2.47,2.47,0,0,1,2.24-2.67l12.49-.69a2.45,2.45,0,0,1,2.52,2.39Z"/><path class="cls-4" d="M479.2,245S503,235.76,503,217.29"/><path class="cls-3" d="M522.14,228.73a1.15,1.15,0,0,1-1.57.32h0a1.15,1.15,0,0,1-.31-1.57l4.78-7.22a1.15,1.15,0,0,1,1.57-.33h0a1.14,1.14,0,0,1,.31,1.57Z"/><path class="cls-3" d="M528.93,233.21a1.13,1.13,0,0,1-1.56.33h0a1.14,1.14,0,0,1-.32-1.57l4.78-7.23a1.13,1.13,0,0,1,1.56-.32h0a1.13,1.13,0,0,1,.32,1.56Z"/><path class="cls-3" d="M534,236.19a1.8,1.8,0,0,1-2.48.51l-15.62-10.34a1.78,1.78,0,0,1-.51-2.47h0a1.79,1.79,0,0,1,2.47-.51l15.63,10.33a1.79,1.79,0,0,1,.51,2.48Z"/><path class="cls-3" d="M526.91,242.4a2.46,2.46,0,0,1-3.39.8l-10.44-6.89a2.46,2.46,0,0,1-.58-3.43l3.73-5.65a2.46,2.46,0,0,1,3.38-.81l10.44,6.91a2.45,2.45,0,0,1,.59,3.42Z"/><path class="cls-4" d="M483.43,245.66s24.57,6.77,35.6-8"/><path class="cls-3" d="M470.85,205.84a1.14,1.14,0,0,1-.28,1.57h0a1.14,1.14,0,0,1-1.57-.28L464,200a1.14,1.14,0,0,1,.27-1.58h0a1.13,1.13,0,0,1,1.57.28Z"/><path class="cls-3" d="M477.51,201.15a1.12,1.12,0,0,1-.27,1.57h0a1.14,1.14,0,0,1-1.58-.27l-5-7.09a1.12,1.12,0,0,1,.27-1.57h0a1.12,1.12,0,0,1,1.57.27Z"/><path class="cls-3" d="M482.14,197.5a1.78,1.78,0,0,1-.43,2.49l-15.33,10.76a1.77,1.77,0,0,1-2.49-.43h0a1.8,1.8,0,0,1,.43-2.49l15.33-10.76a1.78,1.78,0,0,1,2.49.43Z"/><path class="cls-3" d="M485.32,206.4a2.47,2.47,0,0,1-.49,3.44L474.59,217a2.47,2.47,0,0,1-3.41-.71l-3.89-5.54a2.48,2.48,0,0,1,.49-3.45L478,200.15a2.46,2.46,0,0,1,3.4.71Z"/><path class="cls-4" d="M472.45,248.05S487.74,227.66,478,212"/><path class="cls-4" d="M418.12,401.69s55.17-73.55,93.43,25.39"/><path class="cls-3" d="M518.69,428.11a1.14,1.14,0,0,1-.15-1.59h0a1.15,1.15,0,0,1,1.59-.14l6.66,5.55a1.15,1.15,0,0,1,.15,1.59h0a1.13,1.13,0,0,1-1.59.14Z"/><path class="cls-3" d="M513.48,434.37a1.13,1.13,0,0,1-.15-1.59h0a1.15,1.15,0,0,1,1.6-.14l6.65,5.55a1.12,1.12,0,0,1,.15,1.58h0a1.13,1.13,0,0,1-1.59.14Z"/><path class="cls-3" d="M510,439.11a1.79,1.79,0,0,1-.24-2.52l12-14.39a1.78,1.78,0,0,1,2.51-.23h0a1.77,1.77,0,0,1,.23,2.51l-12,14.4a1.78,1.78,0,0,1-2.51.23Z"/><path class="cls-3" d="M504.57,431.35a2.47,2.47,0,0,1-.42-3.45l8-9.63a2.48,2.48,0,0,1,3.48-.2l5.19,4.33a2.48,2.48,0,0,1,.44,3.46l-8,9.61a2.45,2.45,0,0,1-3.47.21Z"/></svg>