<svg xmlns="http://www.w3.org/2000/svg" width="1575.47" height="715.845" viewBox="0 0 1575.47 715.845">
  <defs>
    <style>
      .tiny-erp{
        fill: #0050dc;
        fill-rule: evenodd;
      }
    </style>
  </defs>
  <path id="TinyERP" class="tiny-erp" d="M665.04,476.823a38.5,38.5,0,0,0-38.527,38.47v298.6a38.53,38.53,0,0,0,77.059,0v-298.6A38.5,38.5,0,0,0,665.04,476.823Zm289.811-8.567c-101.757,0-184.534,82.631-184.534,184.2V813.89a38.529,38.529,0,0,0,77.058,0V652.457c0-59.149,48.214-107.288,107.476-107.288s107.479,48.139,107.479,107.288V813.89a38.53,38.53,0,0,0,77.06,0V652.457C1139.39,550.887,1056.6,468.256,954.851,468.256Zm579.569,8.567a38.5,38.5,0,0,0-38.54,38.47V676.954c-0.14,59.029-48.29,107.029-107.47,107.029-59.27,0-107.48-48.139-107.48-107.29V515.277a38.53,38.53,0,0,0-77.06,0V676.693c0,101.573,82.79,184.2,184.54,184.2,34.44,0,88.39-24.7,107.47-49.311v45.9c0,59.16-48.21,107.3-107.48,107.3a38.462,38.462,0,1,0,0,76.923c101.76,0,184.54-82.64,184.54-184.223V515.293A38.5,38.5,0,0,0,1534.42,476.823Zm-1009.4,76.914a38.457,38.457,0,1,0,0-76.914H446.8V409.112a38.527,38.527,0,0,0-77.053,0v251.72c0,101.582,53.524,191.514,155.275,191.514a38.464,38.464,0,1,0,0-76.928c-59.252,0-78.222-76.4-78.222-114.586v-107.1h78.219Zm139.2-227.865a46.37,46.37,0,1,0,46.445,46.369A46.419,46.419,0,0,0,664.222,325.872ZM1637.64,844.385V710.1a5.994,5.994,0,0,1,2.8-5.181,11.37,11.37,0,0,1,6.61-1.931h71.24a5.792,5.792,0,0,1,5.2,2.845,11.906,11.906,0,0,1,1.8,6.5,12.107,12.107,0,0,1-1.9,6.907,5.86,5.86,0,0,1-5.1,2.846h-59.44v46.522h30.82a6.076,6.076,0,0,1,5.11,2.541,10.091,10.091,0,0,1,1.89,6.2,9.685,9.685,0,0,1-1.8,5.789,5.968,5.968,0,0,1-5.2,2.541h-30.82V832.4h59.44a5.866,5.866,0,0,1,5.1,2.847,12.119,12.119,0,0,1,1.9,6.906,11.89,11.89,0,0,1-1.8,6.5,5.782,5.782,0,0,1-5.2,2.845h-71.24a11.349,11.349,0,0,1-6.61-1.931A5.984,5.984,0,0,1,1637.64,844.385Zm104.66,0V709.894a6.9,6.9,0,0,1,7.01-6.909h38.02q46.02,0,46.03,41.446,0,17.2-7.61,27.008a36.279,36.279,0,0,1-20.61,13.05l28.02,53.559a6.179,6.179,0,0,1,.8,3.053q0,4.076-4.11,7.542a13.26,13.26,0,0,1-8.7,3.465q-5.2,0-8.41-6.317L1783.53,787.5h-20.22v56.863a5.879,5.879,0,0,1-3.1,5.2,13.868,13.868,0,0,1-7.5,1.937,13.551,13.551,0,0,1-7.31-1.931A5.86,5.86,0,0,1,1742.3,844.385Zm21.01-73.95h24.02q24.81,0,24.82-24.175t-24.82-24.175h-24.02v48.35Zm90.86,73.95V709.894a6.277,6.277,0,0,1,2.3-4.878,8.592,8.592,0,0,1,5.9-2.031h39.02q20.01,0,31.92,10.771t11.91,33.925v1.625q0,23.163-12.31,34.031t-32.72,10.87h-24.81v50.178a5.88,5.88,0,0,1-3.1,5.182,15.356,15.356,0,0,1-14.91,0A5.828,5.828,0,0,1,1854.17,844.385Zm21.21-67.245h24.81q11.415,0,17.61-6.6,6.21-6.6,6.21-19.807v-2.438q0-13.206-6.21-19.705-6.195-6.5-17.61-6.5h-24.81V777.14Z" transform="translate(-369.75 -325.875)"/>
</svg>
