<svg id="Camada_1" data-name="Camada 1" xmlns="http://www.w3.org/2000/svg" viewBox="0 0 839 216.22417"><defs><style>.cls-1{fill:#3ba2ff;}</style></defs><path class="cls-1" d="M41.8626,407.78845l0,0a26.77094,26.77094,0,0,1,35.58027-3.80656l121.96283,88.0636a3.26568,3.26568,0,0,0,4.839-1.2l67.59734-136.69317a21.03926,21.03926,0,0,1,27.77364-9.73114h0a21.03927,21.03927,0,0,1,10.366,27.47865L234.75016,544.14209a24.19522,24.19522,0,0,1-39.13333,7.57065L64.673,423.00218a3.87229,3.87229,0,0,0-5.52976.10286h0a3.87228,3.87228,0,0,0-.3443,4.89736l60.7262,85.70751a3.79863,3.79863,0,0,0,6.63943-.81827l27.83709-71.52042a15.795,15.795,0,0,1,22.52308-8.00358l0,0A15.795,15.795,0,0,1,183.155,453.515l-31.72,71.37464c-9.87788,22.22664-40.4389,24.709-53.77439,4.36788L39.38263,440.364A26.77093,26.77093,0,0,1,41.8626,407.78845Z" transform="translate(-35 -342.43472)"/><path d="M498.69505,390.00218c-6.20137,0-10.47577,3.71285-12.6992,11.01738l-22.3754,69.97675L445.29,399.31066a13.53223,13.53223,0,0,0-4.2687-6.68454,11.751,11.751,0,0,0-7.7877-2.62394,12.06571,12.06571,0,0,0-8.00577,2.62394,13.48476,13.48476,0,0,0-4.26728,6.68454l-20.839,70.48557-22.049-68.79377c-1.23714-3.70857-2.87763-6.48215-4.87729-8.24522a11.45936,11.45936,0,0,0-7.81336-2.75506c-6.93112,0-10.59407,3.663-10.59407,10.59265a22.17463,22.17463,0,0,0,.945,6.552l32.19555,96.58664a11.97675,11.97675,0,0,0,4.55661,5.8137,12.45273,12.45273,0,0,0,14.51215.00142,12.048,12.048,0,0,0,4.588-5.90634l20.9601-73.872,19.94531,73.872a10.75118,10.75118,0,0,0,4.36989,5.90492,12.71783,12.71783,0,0,0,7.47272,2.33317,11.90238,11.90238,0,0,0,7.16771-2.34742,12.22269,12.22269,0,0,0,4.43688-5.828l32.167-96.49684a19.02354,19.02354,0,0,0,1.18441-6.83135,10.50919,10.50919,0,0,0-2.68807-7.53115C504.79951,390.95854,502.13994,390.00218,498.69505,390.00218Z" transform="translate(-35 -342.43472)"/><path d="M604.278,396.73661c-8.32218-5.0469-18.30766-7.6067-29.68136-7.6067a61.3027,61.3027,0,0,0-31.06815,7.91741,55.9287,55.9287,0,0,0-21.43044,22.09747,66.04545,66.04545,0,0,0-7.67939,31.90479,62.58218,62.58218,0,0,0,8.13405,31.83068,57.67672,57.67672,0,0,0,22.63765,21.972,67.88358,67.88358,0,0,0,54.12056,4.12475,61.855,61.855,0,0,0,18.788-9.78452,9.30214,9.30214,0,0,0,4.062-7.69221c0-3.19547-1.49369-6.06027-4.3927-8.47611a10.80117,10.80117,0,0,0-7.5055-2.55267,12.73261,12.73261,0,0,0-8.06136,2.69235,39.31957,39.31957,0,0,1-11.21691,5.64979,41.04455,41.04455,0,0,1-13.12536,2.31464c-10.624,0-19.71441-3.03441-27.02038-9.02056A36.79761,36.79761,0,0,1,537.84167,460.12h80.90291a11.39035,11.39035,0,0,0,8.1882-3.12563,10.54756,10.54756,0,0,0,3.27529-7.90172c0-11.626-2.24481-22.08607-6.67314-31.09239A50.4577,50.4577,0,0,0,604.278,396.73661Zm-66.18266,43.06612c1.8443-8.5488,5.77379-15.51127,11.69438-20.71495,6.294-5.53007,14.64043-8.335,24.80692-8.335,9.12461,0,16.61159,2.78784,22.2514,8.2837,5.33766,5.21081,8.764,12.19038,10.19642,20.76626Z" transform="translate(-35 -342.43472)"/><path d="M745.443,395.7603a11.66758,11.66758,0,0,0-4.9115-4.082,12.53183,12.53183,0,0,0-5.65407-1.24142,12.159,12.159,0,0,0-6.04744,1.602,10.80687,10.80687,0,0,0-4.41408,4.68488l-36.08655,78.67948L651.801,396.6796a10.98023,10.98023,0,0,0-4.26157-4.62787,11.20148,11.20148,0,0,0-5.74244-1.61484,10.65777,10.65777,0,0,0-5.21936,1.24142c-4.57656,2.289-6.89691,5.72675-6.89691,10.22065a10.08157,10.08157,0,0,0,1.01052,4.54092L676.8103,503.6793a15.46764,15.46764,0,0,0,4.83168,6.09875,12.04125,12.04125,0,0,0,6.91116,1.88422c5.09821,0,8.91082-2.70233,11.32381-8.01l46.092-97.18526a10.73893,10.73893,0,0,0,1.24141-4.78607,10.50713,10.50713,0,0,0-1.76592-5.91774Z" transform="translate(-35 -342.43472)"/><path d="M866.09115,419.01651a57.22527,57.22527,0,0,0-21.8623-21.97347v-.00142a62.957,62.957,0,0,0-31.49431-7.91171,63.98054,63.98054,0,0,0-31.81643,7.91028,56.23249,56.23249,0,0,0-21.87227,21.98345c-5.17233,9.30562-7.79483,20.08071-7.79483,32.02594a64.6495,64.6495,0,0,0,7.79483,31.80787,56.21737,56.21737,0,0,0,21.87227,21.98487,63.96289,63.96289,0,0,0,31.81643,7.90743c11.8027,0,22.47231-2.661,31.71095-7.91028a56.45764,56.45764,0,0,0,21.75968-21.982A64.69233,64.69233,0,0,0,874,451.04958C874,439.11005,871.339,428.33211,866.09115,419.01651ZM845.0441,471.35405a34.779,34.779,0,0,1-13.15529,13.88789,39.07574,39.07574,0,0,1-38.31,0,35.54536,35.54536,0,0,1-13.27073-13.90071,42.11392,42.11392,0,0,1-4.826-20.29165,42.76045,42.76045,0,0,1,4.83026-20.40709,35.39187,35.39187,0,0,1,13.26646-14.00476,39.0951,39.0951,0,0,1,38.31,0,34.63583,34.63583,0,0,1,13.15244,13.99335,43.57739,43.57739,0,0,1,4.72764,20.4185A42.91113,42.91113,0,0,1,845.0441,471.35405Z" transform="translate(-35 -342.43472)"/></svg>